<?xml version="1.0" standalone="no"?>
<!DOCTYPE svg PUBLIC "-//W3C//DTD SVG 1.1//EN" "http://www.w3.org/Graphics/SVG/1.1/DTD/svg11.dtd" >
<svg xmlns="http://www.w3.org/2000/svg">
<metadata>Generated by IcoMoon</metadata>
<defs>
<font id="icomoon" horiz-adv-x="1024">
<font-face units-per-em="1024" ascent="960" descent="-64" />
<missing-glyph horiz-adv-x="1024" />
<glyph unicode="&#x20;" horiz-adv-x="512" d="" />
<glyph unicode="&#xe900;" glyph-name="star" d="M512 152.576l316.416-190.976-83.968 359.936 279.552 242.176-368.128 31.232-143.872 339.456-143.872-339.456-368.128-31.232 279.552-242.176-83.968-359.936z" />
<glyph unicode="&#xe901;" glyph-name="star-out" d="M1024 563.712l-368.128 31.744-143.872 338.944-143.872-339.456-368.128-31.232 279.552-242.176-83.968-359.936 316.416 190.976 316.416-190.976-83.456 359.936zM512 248.32l-192.512-116.224 51.2 219.136-169.984 147.456 224.256 19.456 87.040 206.336 87.552-206.848 224.256-19.456-169.984-147.456 51.2-219.136z" />
<glyph unicode="&#xe902;" glyph-name="taj" d="M0 764.416l270.708-215.319c2.234 3.537 4.375 6.609 6.237 9.868 75.869 130.327 153.972 259.072 223.418 392.937 2.048 3.91 2.793 7.82 10.054 8.006s8.006-4.375 9.961-8.099c70.004-133.865 148.015-262.796 223.884-392.937 1.769-2.979 3.724-5.772 6.237-9.309l273.036 217.647v-539.927h-1024zM1023.907-64h-1019.345v173.242h1019.345z" />
<glyph unicode="&#xe903;" glyph-name="time" d="M511.602 846.222c-219.761-0.227-397.824-178.43-397.824-398.222 0-219.932 178.29-398.222 398.222-398.222s398.222 178.29 398.222 398.222v0c0 219.932-178.29 398.222-398.222 398.222-0.14 0-0.28 0-0.42 0h0.022zM512 129.422c-175.946 0-318.578 142.632-318.578 318.578s142.632 318.578 318.578 318.578c175.946 0 318.578-142.632 318.578-318.578v0c0-175.946-142.632-318.578-318.578-318.578v0zM502.5 722.66h-85.333v-341.333l298.667-179.2 42.667 69.973-256 151.893z" />
<glyph unicode="&#xe904;" glyph-name="user" d="M512 448c141.385 0 256 114.615 256 256s-114.615 256-256 256c-141.385 0-256-114.615-256-256v0c0-141.385 114.615-256 256-256v0zM512 320c-170.88 0-512-85.76-512-256v-128h1024v128c0 170.24-341.12 256-512 256z" />
<glyph unicode="&#xe905;" glyph-name="user-lang" d="M546.253 42.035l-119.45 74.752c-22.634 12.708-37.736 36.459-37.99 63.76v55.895c0.009 5.091 2.17 9.675 5.622 12.893l0.010 0.010c28.89 28.446 50.455 64.251 61.659 104.378l0.395 1.657c1.085 4.55 3.814 8.331 7.511 10.762l0.067 0.041c7.676 4.949 12.76 13.345 13.055 22.946l0.001 0.043v61.030c-1.055 8.41-5.431 15.633-11.752 20.425l-0.075 0.055c-3.575 3.232-5.817 7.88-5.837 13.053v88.528c0 4.045-9.523 123.699-159.078 123.699s-159.078-119.654-159.078-124.774v-87.296c0-0.042 0.001-0.091 0.001-0.14 0-5.2-2.247-9.874-5.822-13.107l-0.015-0.014c-6.396-4.847-10.772-12.070-11.812-20.331l-0.015-0.149v-60.979c0.043-9.919 5.188-18.627 12.945-23.638l0.111-0.067c3.763-2.472 6.493-6.253 7.553-10.683l0.024-0.12c11.525-41.521 33.106-77.060 61.998-105.11l0.057-0.055c3.469-3.234 5.632-7.831 5.632-12.933 0-0.043 0-0.087 0-0.13v0.007-55.859c-0.368-27.714-15.907-51.716-38.677-64.114l-0.388-0.194-117.76-74.24c-32.93-18.018-54.936-52.342-55.142-91.824v-14.16h600.883v14.131c0 0.015 0 0.033 0 0.051 0 39.426-21.845 73.751-54.091 91.529l-0.539 0.272zM953.293 483.584h-247.398c-39.051 0-70.707-31.657-70.707-70.707v0-35.328l-106.035-70.707 106.035-70.707v-35.328c0.117-38.962 31.728-70.502 70.707-70.502 0 0 0 0 0 0h247.398c39.051 0 70.707 31.657 70.707 70.707v0 211.866c0 39.051-31.657 70.707-70.707 70.707v0zM917.965 218.47c9.756 0 17.664-7.908 17.664-17.664s-7.908-17.664-17.664-17.664v0c-6.236-0.778-13.453-1.223-20.774-1.223-24.386 0-47.62 4.929-68.762 13.844l1.164-0.436c-19.951-8.488-43.159-13.422-67.518-13.422-7.349 0-14.593 0.449-21.707 1.321l0.853-0.085c-9.756 0-17.664 7.908-17.664 17.664s7.908 17.664 17.664 17.664v0c5.238-0.365 11.351-0.573 17.513-0.573 12.529 0 24.858 0.859 36.93 2.522l-1.399-0.158c-12.216 12.395-21.844 27.376-27.986 44.045l-0.277 0.858c-0.669 1.79-1.056 3.858-1.056 6.016 0 9.759 7.911 17.67 17.67 17.67 7.601 0 14.080-4.799 16.575-11.532l0.040-0.122c6.145-16.743 16.665-30.661 30.184-40.796l0.229-0.164c21.548 16.294 35.328 41.879 35.328 70.682 0 0.009 0 0.018 0 0.027v-0.001 35.328h-123.75c-9.756 0-17.664 7.908-17.664 17.664s7.908 17.664 17.664 17.664h70.707v35.328c0 9.756 7.908 17.664 17.664 17.664s17.664-7.908 17.664-17.664v0-35.328h70.707c9.756 0 17.664-7.908 17.664-17.664s-7.908-17.664-17.664-17.664h-17.664v-35.328c-0.037-33.66-13.512-64.166-35.348-86.446l0.020 0.021c10.557-1.671 22.731-2.626 35.128-2.626 6.305 0 12.552 0.247 18.733 0.732l-0.817-0.052zM900.25 800.922v-17.664h-141.363v17.664c1.061 38.223 32.3 68.805 70.682 68.805s69.62-30.581 70.679-68.707l0.002-0.098zM953.293 960h-247.398c-39.051 0-70.707-31.657-70.707-70.707v0-35.328l-106.035-70.707 106.035-70.707v-35.328c0.117-38.962 31.728-70.502 70.707-70.502 0 0 0 0 0 0h247.398c39.051 0 70.707 31.657 70.707 70.707v0 211.866c0 39.051-31.657 70.707-70.707 70.707v0zM935.629 677.222c0-9.756-7.908-17.664-17.664-17.664s-17.664 7.908-17.664 17.664v70.707h-141.414v-70.707c0-9.756-7.908-17.664-17.664-17.664s-17.664 7.908-17.664 17.664v123.699c0 58.562 47.474 106.035 106.035 106.035s106.035-47.474 106.035-106.035v0z" />
<glyph unicode="&#xe906;" glyph-name="users" d="M726.412 392.169c64.256-43.613 109.382-102.703 109.382-181.527v-140.707h187.601v140.73c-0.093 102.237-167.54 162.746-296.983 181.504zM560.361 632.762c0-103.609-83.992-187.601-187.601-187.601s-187.601 83.992-187.601 187.601c0 103.609 83.992 187.601 187.601 187.601s187.601-83.992 187.601-187.601zM650.124 445.161c103.609 0 187.601 83.992 187.601 187.601s-83.992 187.601-187.601 187.601v0c-22.461-0.376-43.848-4.472-63.734-11.697l1.363 0.433c38.849-47.74 62.38-109.296 62.38-176.349s-23.531-128.61-62.785-176.863l0.405 0.514c18.524-6.784 39.913-10.873 62.207-11.239l0.164-0.002zM375.203 398.266c-125.231 0-375.203-62.836-375.203-187.601v-140.707h750.406v140.707c0 124.765-250.042 187.601-375.203 187.601z" />
<glyph unicode="&#xe907;" glyph-name="whatsapp1" d="M1024 461.198c-2.741-276.059-227.167-498.791-503.614-498.791-88.79 0-172.214 22.977-244.65 63.309l2.564-1.311-278.3-88.405 90.738 267.719c-45.258 73.167-72.079 161.885-72.079 256.867 0 0.215 0 0.43 0 0.645v-0.033c4.259 274.377 227.681 495.164 502.67 495.164s498.411-220.788 502.665-494.765l0.005-0.399zM521.216 880.356c-0.34 0.001-0.741 0.002-1.143 0.002-231.991 0-420.201-187.452-421.427-419.156v-0.117c0-0.072 0-0.157 0-0.243 0-92.4 30.21-177.745 81.291-246.695l-0.794 1.121-52.736-155.705 162.361 51.598c65.372-43.419 145.671-69.277 232.010-69.277 232.349 0 420.958 187.272 423.121 419.11l0.002 0.205c-1.29 231.771-189.475 419.159-421.427 419.159-0.442 0-0.884-0.001-1.326-0.002h0.069zM775.111 346.169c-3.129 5.063-11.378 8.135-23.666 14.279s-72.932 35.669-84.196 39.822-19.57 6.201-27.762-6.087-31.744-39.822-39.026-47.957-14.336-9.216-26.681-3.186c-38.101 15.337-70.886 35.792-99.412 60.963l0.369-0.319c-26.405 24.361-49.050 52.239-67.334 83.012l-0.933 1.696c-7.225 12.231-0.74 18.83 5.348 24.917s12.345 14.279 18.489 21.447c4.875 5.843 9.018 12.54 12.142 19.78l0.203 0.529c1.39 2.858 2.203 6.218 2.203 9.767 0 4.313-1.2 8.345-3.284 11.782l0.057-0.101c-3.584 6.144-27.932 66.276-38.286 90.738s-20.48 20.423-27.705 20.423-15.417 1.024-23.609 1.024c-13.074-0.298-24.734-6.113-32.784-15.199l-0.041-0.047c-26.584-24.973-43.143-60.351-43.143-99.597 0-0.845 0.008-1.689 0.023-2.531l-0.002 0.126c4.306-48.341 22.559-91.742 50.656-126.939l-0.366 0.475c51.699-79.858 123.096-142.946 207.448-183.295l3.041-1.31c125.156-48.924 125.156-32.597 147.911-30.492 35.543 6.961 65.102 28.279 82.918 57.535l0.311 0.549c5.44 12.047 8.609 26.118 8.609 40.93 0 6.141-0.545 12.155-1.589 17.997l0.091-0.616z" />
<glyph unicode="&#xe908;" glyph-name="about1" d="M512 960c-282.77 0-512-229.23-512-512s229.23-512 512-512c282.77 0 512 229.23 512 512v0c0 282.77-229.23 512-512 512v0zM563.2 192h-102.4v307.2h102.4zM563.2 601.6h-102.4v102.4h102.4z" />
<glyph unicode="&#xe909;" glyph-name="instagram" d="M704 960h-384c-176.704 0-320-143.296-320-320v-384c0-176.704 143.296-320 320-320h384c176.704 0 320 143.296 320 320v384c0 176.704-143.296 320-320 320zM928 256c0-123.52-100.48-224-224-224h-384c-123.52 0-224 100.48-224 224v384c0 123.52 100.48 224 224 224h384c123.52 0 224-100.48 224-224v-384zM512 704c-141.376 0-256-114.624-256-256s114.624-256 256-256 256 114.624 256 256-114.624 256-256 256zM512 288c-88.192 0-160 71.808-160 160 0 88.256 71.808 160 160 160s160-71.744 160-160c0-88.192-71.808-160-160-160zM821.312 723.2c0-18.84-15.272-34.112-34.112-34.112s-34.112 15.272-34.112 34.112c0 18.84 15.272 34.112 34.112 34.112s34.112-15.272 34.112-34.112z" />
<glyph unicode="&#xe90a;" d="M18.286 777.143h987.429c10.099 0 18.286-8.187 18.286-18.286v-621.714c0-10.099-8.187-18.286-18.286-18.286h-987.429c-10.099 0-18.286 8.187-18.286 18.286v621.714c0 10.099 8.187 18.286 18.286 18.286z" />
<glyph unicode="&#xe90b;" d="M73.143 704h877.714v-512h-877.714v512z" />
<glyph unicode="&#xe90c;" d="M321.536 558.848c-0.878-11.959-1.975-32.914 8.229-35.182 12.288-1.17 5.486 20.809 9.947 24.795 0.841 1.975 2.377 1.975 2.523-0.512v-18.651c-0.005-0.109-0.007-0.237-0.007-0.365 0-4.251 2.96-7.811 6.932-8.73l0.060-0.012c3.218 0.256 5.376 0 6.656-2.999q0.731-16.128 1.499-32.256s7.314-2.158 7.826 18.286c-0.548 5.46-0.86 11.799-0.86 18.212 0 2.096 0.033 4.185 0.1 6.265l-0.008-0.304c0 2.304 2.962 2.45 4.974 1.317 3.218-2.267 4.645-5.047 9.655-3.95 7.607 2.121 12.142 5.815 12.288 11.63-0.235 6.042-1.476 11.728-3.559 16.988l0.122-0.348c0.329 0.987-1.499 3.657-1.134 4.608 1.353-2.121 3.438-1.938 3.913 0-0.883 4.191-3.243 7.721-6.499 10.097l-0.047 0.033c-2.706 2.377-6.656 1.865-8.082-3.072-0.006-0.22-0.010-0.479-0.010-0.739 0-6.569 2.353-12.588 6.262-17.26l-0.034 0.042c1.036-2.17 1.642-4.717 1.642-7.404 0-0.548-0.025-1.089-0.074-1.624l0.005 0.069c-0.7-0.423-1.545-0.673-2.449-0.673-1.546 0-2.921 0.732-3.797 1.869l-0.008 0.011s-6.071 4.535-6.071 5.522c0.597 1.901 0.94 4.088 0.94 6.355 0 2.858-0.547 5.589-1.541 8.093l0.052-0.148c-0.764 3.033-2.145 5.673-4.011 7.893l0.024-0.030c-1.499 1.609-3.657 1.609-4.535 0-0.936-2.631-1.477-5.665-1.477-8.826 0-3.674 0.731-7.177 2.055-10.371l-0.066 0.18c1.39-4.096 3.657-6.693 2.523-6.693-0.841-2.304-2.56-1.792-3.657 0.878-1.373 5.020-2.162 10.784-2.162 16.732 0 0.263 0.002 0.526 0.005 0.789v-0.040c-0.512 4.608-1.134 14.446-4.169 16.896-1.829 2.523-4.571 1.317-5.559-0.987-0.080-1.377-0.126-2.987-0.126-4.607 0-3.079 0.165-6.119 0.488-9.112l-0.032 0.371c1.594-6.090 2.884-13.398 3.61-20.871l0.047-0.596c0.293-10.094-5.851-4.389-5.559 0.658 0.592 2.761 0.932 5.934 0.932 9.185 0 3.616-0.419 7.134-1.212 10.508l0.061-0.31c-0.987 2.597-2.158 3.218-4.608 2.816s-6.875-5.266-8.265-14.263c-0.625-2.334-1.214-5.283-1.634-8.285l-0.048-0.419c-0.695-4.645-3.657-7.899-5.888 0.658-1.865 6.217-2.999 21.504-6.071 17.92z" />
<glyph unicode="&#xe90d;" d="M354.926 509.806c-10.971-5.303-21.321-10.24-32-15.36 4.2 10.777 13.669 18.655 25.156 20.528l0.188 0.025c6.583-0.183 4.937-2.56 6.656-5.157z" />
<glyph unicode="&#xe90e;" d="M395.813 577.536c-0.622 0-1.28-0.439-2.048-0.622-2.606-0.736-4.484-3.092-4.484-5.888 0-0.506 0.062-0.998 0.178-1.468l-0.009 0.042c3.072-18.798 5.12-32.914 8.192-51.858 0.475-2.231-1.353-5.12-3.657-4.827-4.059 2.743-5.047 8.265-11.922 8.046-5.724-0.801-10.253-5.096-11.395-10.628l-0.015-0.087c-0.47-1.845-0.74-3.963-0.74-6.144s0.27-4.299 0.777-6.323l-0.038 0.179c1.857-2.189 4.609-3.568 7.684-3.568 1.342 0 2.623 0.263 3.794 0.74l-0.067-0.024c3.035 1.243 5.522 4.279 6.583 3.657v0c0.658-1.17 0-10.971-14.299-18.505-8.741-3.913-15.689-4.827-19.419 2.304-2.341 4.462 0.183 21.394-5.522 17.481-16.896-43.483 39.497-49.518 45.787-1.755 0.402 1.317 1.682 2.67 2.56 2.341s0.731-0.695 0.841-1.646c-1.317-43.264-43.63-46.19-50.798-32.585-1.576 4.243-2.488 9.144-2.488 14.259 0 0.13 0.001 0.26 0.002 0.39v-0.020c-0.007 1.789-0.656 3.425-1.728 4.692l0.009-0.011c-1.719 1.28-4.023-2.085-4.498-7.899-0.371-2.337-0.583-5.032-0.583-7.776 0-0.957 0.026-1.908 0.077-2.852l-0.006 0.132c2.231-34.194 56.722-19.493 65.536 8.741 1.141 5.496 1.794 11.811 1.794 18.28 0 3.067-0.147 6.099-0.434 9.091l0.030-0.381h0.402c5.449-5.815 13.019-0.768 14.629 1.28 0.451 0.609 1.167 0.999 1.974 0.999 0.652 0 1.245-0.255 1.684-0.671l-0.001 0.001c1.414-1.025 3.183-1.639 5.096-1.639 3.583 0 6.662 2.155 8.011 5.24l0.022 0.056c0.916 4.698 1.57 10.256 1.82 15.918l0.009 0.246c-2.218-0.442-4.182-1.283-5.908-2.45l0.057 0.036c-0.199-0.205-0.341-0.467-0.401-0.758l-0.002-0.010c-0.219-1.536-0.475-3.109-0.695-4.645 0.014-0.055 0.022-0.118 0.022-0.183s-0.008-0.128-0.023-0.188l0.001 0.005c-0.128-0.211-0.301-0.384-0.505-0.508l-0.007-0.004c-0.951-0.512-2.633-0.219-2.743 1.207-1.28 5.925-6.693 6.729-9.947-2.487-2.194-1.792-6.217-2.121-6.619 0.549 0.549 6.181-1.975 7.022-6.949 4.096-1.609 12.251-3.182 23.918-4.791 36.133 2.085 0 3.986-1.463 5.888 0.914-1.953 7.838-4.996 14.729-9.013 20.931l0.163-0.268-0.366 0.366h-0.293c-0.104 0.027-0.224 0.042-0.347 0.042s-0.243-0.015-0.358-0.044l0.010 0.002zM381.147 510.062c0.117 0.018 0.253 0.028 0.391 0.028 1.211 0 2.239-0.785 2.602-1.874l0.006-0.019c0.132-0.343 0.209-0.74 0.209-1.154 0-0.801-0.286-1.535-0.762-2.106l0.004 0.005c-0.402-0.549-1.902-0.329-2.962-0.329-0.077-0.007-0.168-0.012-0.259-0.012-1.010 0-1.897 0.525-2.404 1.317l-0.007 0.011c-0.366 1.17 0.731 2.267 1.207 3.145v0l0.183 0.256c0.494 0.398 1.105 0.672 1.773 0.766l0.019 0.002z" />
<glyph unicode="&#xe90f;" d="M433.774 578.523c-1.354-0.102-2.598-0.483-3.705-1.085l0.048 0.024c-1.539-1.348-2.505-3.317-2.505-5.511 0-1.533 0.472-2.956 1.278-4.132l-0.016 0.025c2.121-1.024 4.279-3.182 2.853-4.352-6.071-6.473-21.943-17.262-22.601-19.237v0h0.183c1.763-0.245 3.8-0.385 5.87-0.385s4.107 0.14 6.102 0.411l-0.232-0.026c7.071 6.054 13.436 12.465 19.252 19.354l0.204 0.248c-0.805 0.731-1.573 1.243-2.414 1.975-0.372 0.253-0.612 0.675-0.612 1.152s0.241 0.899 0.608 1.149l0.005 0.003c1.579 1.172 2.591 3.030 2.591 5.125 0 1.809-0.755 3.442-1.967 4.601l-0.002 0.002c-1.279 0.606-2.778 0.96-4.361 0.96-0.151 0-0.302-0.003-0.452-0.010l0.021 0.001zM433.152 573.111c1.28-0.087 2.346-0.919 2.772-2.063l0.007-0.022c0.622-1.353 0.293-2.67-0.695-2.889s-2.341 0.658-2.962 2.011-0.293 2.706 0.695 2.926v0z" />
<glyph unicode="&#xe910;" d="M324.023 478.976c-3.222-4.878-5.14-10.863-5.14-17.296 0-3.899 0.705-7.633 1.993-11.083l-0.072 0.219c1.288-1.493 3.183-2.432 5.297-2.432 0.533 0 1.053 0.060 1.552 0.173l-0.047-0.009c2.906 2.297 4.754 5.822 4.754 9.779 0 0.823-0.080 1.627-0.232 2.405l0.013-0.079c-1.243 1.975-2.231 2.304-3.657 0.622-2.67-5.413-3.657-1.719-3.986 1.317-0.082 1.27-0.129 2.753-0.129 4.248 0 3.859 0.313 7.644 0.915 11.332l-0.054-0.403c0.658 4.242 0 2.962-1.353 1.243z" />
<glyph unicode="&#xe911;" d="M581.12 494.19c-5.815 12.507-13.861 24.905-16.421 29.659s-21.943 32.914-24.759 35.986c-6.29 7.314 10.203-3.109-2.085 11.739-4.681 3.986-4.937 4.242-8.85 7.534-1.975 1.39-6.766 3.95-7.607-0.256-0.134-0.963-0.21-2.076-0.21-3.206 0-1.989 0.237-3.923 0.683-5.775l-0.034 0.167c1.36-2.885 3.023-5.366 4.998-7.562l-0.025 0.028c19.173-25.12 37.049-53.462 52.324-83.354l1.473-3.174c2.633 1.243 2.048 16.165 0.512 18.286z" />
<glyph unicode="&#xe912;" glyph-name="share" d="M832.958 309.183c-59.284 0-111.576-28.244-145.74-71.496l-316.881 162.053c4.148 15.472 7.13 31.459 7.13 48.284 0 18.316-3.541 35.56-8.483 52.34l315.483 161.305c33.976-45.209 87.621-74.758 148.536-74.758 103.188 0 186.66 83.472 186.66 186.568 0.002 103.002-83.472 186.522-186.658 186.522-102.955 0-186.52-83.52-186.52-186.52 0-16.872 2.984-32.905 7.178-48.424l-316.835-162.053c-34.21 43.297-86.597 71.634-145.973 71.634-103.095 0-186.52-83.565-186.52-186.613s83.427-186.568 186.52-186.568c61.008 0 114.607 29.642 148.722 74.897l315.342-161.305c-4.941-16.732-8.528-34.117-8.528-52.48 0-103.048 83.565-186.568 186.52-186.568 103.188 0 186.66 83.52 186.66 186.568 0.048 103.141-83.425 186.615-186.613 186.615z" />
<glyph unicode="&#xe913;" d="M555.557 452.535c-1.17-1.28 2.816-6.766 7.973-6.766 10.61 1.774 19.235 8.858 23.149 18.377l0.073 0.202c2.725 4.046 4.598 8.884 5.25 14.102l0.016 0.161c0.135 3.431 0.212 7.459 0.212 11.504 0 21.527-2.181 42.545-6.334 62.844l0.344-2.010c-0.109 0.606-0.171 1.304-0.171 2.016 0 1.078 0.143 2.122 0.41 3.115l-0.019-0.084c0.549 0.658 2.45 0 3.474 1.646s-3.913 13.97-6.985 18.761c-1.097 2.158-1.463 3.657-3.291-0.256-1.926-3.632-3.057-7.941-3.057-12.513 0-0.384 0.008-0.766 0.024-1.146l-0.002 0.054c4.133-28.489 5.376-53.394 8.082-81.883 0.087-0.525 0.136-1.131 0.136-1.748 0-2.49-0.805-4.792-2.17-6.659l0.022 0.032c-7.442-8.284-16.488-14.964-26.668-19.581l-0.504-0.205z" />
<glyph unicode="&#xe914;" d="M672.073 452.608c-6.217-3.657-6.217-7.68-1.207-7.826 0.347-0.014 0.754-0.022 1.163-0.022 10.052 0 18.98 4.817 24.6 12.268l0.056 0.078c2.357 4.643 3.874 10.081 4.201 15.837l0.005 0.108c0.243 5.018 0.381 10.898 0.381 16.81 0 21.654-1.855 42.876-5.414 63.513l0.315-2.207c-0.487 2.177-0.79 4.696-0.841 7.276l-0.001 0.038c0.549 1.426 3.365 0 4.389 1.499s-7.314 12.763-10.35 17.554c-1.097 2.121-1.463 3.657-3.291-0.293-1.364-2.798-2.162-6.088-2.162-9.564 0-1.428 0.135-2.825 0.392-4.179l-0.022 0.139c4.273-25.48 7.377-55.89 8.62-86.779l0.047-1.468c-0.275-2.702-0.883-5.179-1.786-7.51l0.067 0.196c-2.541-3.712-5.334-6.947-8.449-9.841l-0.036-0.033c-2.816-2.085-8.814-4.096-10.752-5.632z" />
<glyph unicode="&#xe915;" d="M676.535 480.366c0 7.314 0 13.458 0 18.871s-2.706 25.6-3.657 30.025-1.646 10.971-2.889 16.091c-0.576 2.699-0.958 5.844-1.058 9.059l-0.002 0.084c0.512 1.463 2.45 0 3.401 1.646-1.178 8.535-4.059 16.212-8.296 22.951l0.141-0.24c-1.17 2.121-3.255 1.39-5.851-2.048-2.414-2.231-1.536-7.314-0.585-12.288 6.238-28.202 9.811-60.594 9.811-93.821 0-1.075-0.004-2.149-0.011-3.222l0.001 0.165c-0.329-2.633 9.143 7.79 9.070 12.763z" />
<glyph unicode="&#xe916;" d="M630.967 520.375c-3.877 0-12.032 7.607-14.409 11.959-0.286 0.795-0.451 1.713-0.451 2.669 0 1.377 0.343 2.675 0.948 3.811l-0.021-0.044c1.426 0.914 3.657 1.975 5.303 0.951 0 0 1.719-2.377 1.39-2.706 2.121-1.024 3.035-0.439 3.255 0.439 0 1.499-0.622 2.414-0.622 4.096 0.277 2.263 2.187 3.999 4.503 3.999 1.409 0 2.668-0.643 3.5-1.651l0.006-0.008c1.3-2.31 2.092-5.060 2.157-7.99v-0.019c0-1.317-2.121 0.219-3.291 0s-1.499-1.682-1.573-2.926c-0.219-3.291-0.622-8.521-0.695-12.507z" />
<glyph unicode="&#xe917;" d="M559.287 472.32c0.156 3.863 0.246 8.398 0.246 12.953 0 8.001-0.275 15.939-0.816 23.803l0.059-1.062c-0.402 13.678-2.633 40.229-3.657 44.581-1.207 8.338 3.438-0.914 2.779 3.913-2.275 8.364-6.27 15.606-11.606 21.633l0.049-0.056c-1.755 2.487-1.682 2.999-4.389-0.622-0.79-2.34-1.245-5.034-1.245-7.835 0-3.19 0.591-6.241 1.669-9.051l-0.058 0.173c3.421-14.029 6.018-30.673 7.255-47.694l0.059-1.019c0.62-8.74 0.973-18.938 0.973-29.219 0-7.873-0.207-15.698-0.616-23.469l0.046 1.086c2.926 0 7.643 4.754 9.289 11.849z" />
<glyph unicode="&#xe918;" d="M689.957 488.082c-6.875 11.483-17.225 24.978-19.968 29.623s-26.185 38.949-29.257 41.984c-8.558 8.997 3.95 1.463-1.646 8.411-3.051 3.668-6.371 6.919-9.993 9.805l-0.137 0.106c-2.011 1.28-3.255 3.657-3.913-0.439-0.234-2.313-0.367-4.998-0.367-7.714 0-1.223 0.027-2.439 0.080-3.649l-0.006 0.172c0.524-2.691 1.709-5.046 3.38-6.967l-0.015 0.018c21.76-26.25 42.134-55.482 59.989-86.354l1.634-3.063c2.597 1.353 1.719 16.055 0 18.103z" />
<glyph unicode="&#xe919;" d="M606.83 352.146v0c-2.731-0.494-4.775-2.854-4.775-5.691 0-2.091 1.111-3.923 2.775-4.937l0.025-0.014c-64.11 0-162.487 1.097-183.552 1.097-11.813 0-49.115 1.39-49.847 1.39 6.97-8.932 17.736-14.621 29.83-14.621 1.732 0 3.437 0.117 5.107 0.343l-0.195-0.022c28.489 0 160.402 0.366 197.925 0.366-0.628-1.48-0.993-3.202-0.993-5.009 0-3.363 1.265-6.431 3.345-8.754l-0.011 0.013h0.256c2.523-0.585 3.657 1.207 4.462 2.523 4.3-0.258 9.328-0.405 14.391-0.405s10.091 0.147 15.081 0.437l-0.69-0.032c1.39-2.048 2.816-4.023 5.449-3.657 4.681 1.024 8.375 1.499 8.485 10.971 0 0-0.475 16.165-10.971 15.177-2.523-0.366-9.545-1.097-9.545-1.097-8.155 0.951-14.153 1.061-23.333 1.426 0.841 1.061 2.341 5.413 0.512 7.022-0.489 0.362-1.105 0.579-1.771 0.579-0.149 0-0.296-0.011-0.44-0.032l0.016 0.002h-0.219c-0.475 0.695-0.731 2.341-1.024 2.779h-0.183zM611.291 328.887v0c9.362-0.475 18.286 0 27.502-0.549 0.515-0.593 0.829-1.372 0.829-2.225 0-0.965-0.402-1.836-1.047-2.455l-0.001-0.001h-0.219l-7.863 0.256c0.011 0.066 0.017 0.142 0.017 0.219s-0.006 0.153-0.019 0.227l0.001-0.008c-0.731 2.158-5.925 2.011-7.314 0.329v0 0 0c-0.005-0.033-0.008-0.071-0.008-0.11s0.003-0.077 0.009-0.114l-0.001 0.004v-0.256c-1.257-0.079-2.727-0.123-4.207-0.123-2.718 0-5.401 0.151-8.040 0.445l0.325-0.029c-1.207 1.499-1.061 4.206 0.366 4.864z" />
<glyph unicode="&#xe91a;" d="M444.635 568.759c-6.254-17.883 3.657-37.413 10.423-35.511 4.901-2.011 8.046 7.314 10.057 17.591 1.39 2.853 2.414 3.182 3.109 1.682 0-13.641 0.987-16.64 4.498-20.773 1.98-1.749 4.598-2.817 7.465-2.817 2.728 0 5.23 0.967 7.183 2.576l-0.019-0.015 6.107 6.107c0.669 0.716 1.619 1.162 2.674 1.162 0.925 0 1.77-0.343 2.414-0.91l-0.004 0.004c1.865-1.682 1.573-4.608 5.559-6.656 1.153-0.392 2.481-0.619 3.862-0.619 3.207 0 6.129 1.221 8.326 3.224l-0.010-0.009c2.231 3.657 2.743 5.12 3.657 6.583 1.609 2.121 4.315 1.17 4.315 0.475s-1.829-2.341-0.768-4.498c1.902-1.426 2.341-0.512 3.474-0.183 3.95 1.902 6.949 10.533 6.949 10.533 0 3.218-1.609 2.962-2.779 2.304s-1.609-1.243-3.145-2.158c-1.938-0.293-5.669-1.573-7.57 1.317-1.107 3.038-2.264 6.976-3.21 10.995l-0.155 0.781c0 0.256-2.523 5.486-0.183 5.851 1.17-0.219 3.657-0.878 4.096 1.243 1.243 2.085-2.67 7.973-5.303 10.971-1.061 1.278-2.65 2.086-4.428 2.086-1.658 0-3.152-0.703-4.2-1.827l-0.003-0.003c-2.158-1.975-1.865-4.206-2.304-6.327-0.167-0.679-0.263-1.458-0.263-2.26 0-2.42 0.874-4.636 2.323-6.349l-0.012 0.014c3.056-4.237 4.888-9.534 4.888-15.258 0-0.795-0.035-1.582-0.105-2.36l0.007 0.1c-1.271-1.935-3.432-3.195-5.888-3.195-0.155 0-0.308 0.005-0.46 0.015l0.021-0.001c-1.646 0.366-4.389 1.061-5.815 11.776 0.029 0.789 0.045 1.715 0.045 2.645 0 7.898-1.179 15.52-3.371 22.701l0.144-0.55c-1.243 3.218-2.158 6.327-5.193 0.841-1.624-2.115-2.602-4.798-2.602-7.711 0-1.605 0.297-3.14 0.839-4.555l-0.029 0.087c1.55-3.886 2.448-8.389 2.448-13.102 0-2.063-0.172-4.086-0.503-6.055l0.030 0.213c-1.158-1.952-2.366-3.637-3.702-5.21l0.044 0.054c-1.103-1.235-2.701-2.009-4.479-2.009-1.202 0-2.322 0.354-3.261 0.963l0.023-0.014c-2.501 1.223-4.269 3.609-4.604 6.434l-0.004 0.039c0.194 2.209 0.304 4.778 0.304 7.374 0 4.794-0.376 9.5-1.101 14.090l0.066-0.508c-0.465 1.523-1.858 2.611-3.504 2.611-1.134 0-2.147-0.516-2.818-1.325l-0.005-0.006c-5.758-6.394-9.827-14.418-11.44-23.297l-0.044-0.291c-1.755-5.705-3.657-4.096-4.974-1.792-3.255 3.035-3.438 26.697-7.314 22.857z" />
<glyph unicode="&#xe91b;" d="M465.701 531.822v0 0c-0.439-0.293-0.951-1.024-2.011-1.792-1.829-2.085-2.121-3.657-2.011-7.717 0-0.439 3.438-9.801 6.327-16.421 1.721-4.893 2.715-10.535 2.715-16.409 0-1.949-0.109-3.873-0.323-5.766l0.021 0.232c-5.043-9.935-12.7-17.92-22.072-23.227l-0.273-0.142c-1.373-0.619-2.976-0.979-4.663-0.979s-3.29 0.36-4.736 1.008l0.073-0.029c-1.524 1.071-2.508 2.822-2.508 4.802 0 0.176 0.008 0.351 0.023 0.523l-0.002-0.022c9.756 5.285 17.478 13.254 22.317 22.919l0.138 0.304c1.169 2.711 1.848 5.867 1.848 9.182 0 2.694-0.449 5.284-1.276 7.698l0.050-0.167c-0.535 2.987-1.829 5.607-3.674 7.737l0.017-0.020c1.243 0.585 4.498-1.792 5.010-0.293-1.055 4.657-3.317 8.68-6.44 11.852l0.003-0.003c-1 1.203-2.497 1.964-4.172 1.964-1.446 0-2.759-0.567-3.73-1.491l0.002 0.002c-2.706-1.499-3.291-6.912-1.975-11.703 1.426-3.657 5.376-4.169 8.155-11.374v0c0-0.439 0.951-5.376-0.475-7.314-4.914-5.986-10.443-11.19-16.567-15.622l-0.256-0.176h-0.183c0 0.256 0 1.024 0 2.231 0 2.158 0.805 7.058 0.695 7.899v0c-4.864-3.109-6.437-12.727-7.314-15.543-12.979-7.305-24.164-15.039-34.573-23.674l0.379 0.305c-4.169-6.51 28.782 7.497 32.585 9.216v0c0.731-0.805 0.768-3.657 2.962-6.107 3.216-3.86 8.025-6.299 13.403-6.299 1.553 0 3.059 0.203 4.492 0.585l-0.122-0.028c10.664 4.53 19.39 11.89 25.468 21.144l0.132 0.214c0.987 1.463 2.56 2.597 4.023 1.463 7.197-11.59 19.856-19.192 34.29-19.192 0.803 0 1.6 0.024 2.391 0.070l-0.109-0.005c4.133 5.010 2.158 7.314 0.512 8.558-0.512 0.329-8.85 3.657-10.167 6.839s1.134 5.705 5.12 7.68c12.503 1.211 23.933 3.496 34.92 6.803l-1.274-0.329c0.439 4.292 1.742 8.2 3.733 11.662l-0.075-0.142c0.469 0.837 1.11 1.525 1.88 2.035l0.022 0.013c0.006 0.044 0.010 0.095 0.010 0.146s-0.004 0.102-0.011 0.152l0.001-0.006-1.865 1.097h-36.571c-0.377 0.136-0.703 0.309-1 0.52l0.013-0.008c0.317 0.308 0.712 0.536 1.152 0.654l0.018 0.004c8.741 1.207 24.247 3.657 25.307 18.651 0.036 0.362 0.056 0.782 0.056 1.207 0 7.166-5.773 12.984-12.922 13.055h-0.007c-6.413-0.838-11.315-6.268-11.315-12.843 0-0.63 0.045-1.249 0.132-1.855l-0.008 0.069c-0.329-2.011 0.695-5.925-1.39-6.4-13.422-1.243-28.123-9.655-28.599-15.689h-0.622c-1.118 0.64-1.859 1.826-1.859 3.185 0 0.167 0.011 0.331 0.033 0.491l-0.002-0.019c-0.68 11.589-4.015 22.268-9.4 31.615l0.184-0.347c-1.902 1.902-2.706 2.67-3.255 2.743h-0.256zM519.717 517.851c0.054 0.002 0.118 0.003 0.182 0.003 0.99 0 1.914-0.287 2.691-0.783l-0.020 0.012c1.227-0.523 2.1-1.663 2.23-3.021l0.001-0.015v-0.402l-0.183-0.219c-0.453-0.216-0.984-0.342-1.545-0.342-0.792 0-1.525 0.252-2.123 0.679l0.011-0.008c-1.21 0.556-2.076 1.676-2.265 3.015l-0.002 0.021c-0.008 0.049-0.013 0.106-0.013 0.165s0.005 0.115 0.014 0.171l-0.001-0.006c0.251 0.196 0.567 0.318 0.912 0.329h0.003zM485.595 486.583h0.402c4.435-0.854 9.691-1.469 15.044-1.71l0.243-0.009c4.242-0.293 6.363-3.657 2.377-5.010s-7.68-2.377-7.717-8.046c0.512-2.816 0.402-4.279 0-4.974v0h-0.366c-0.987 0-2.341 0.768-3.365 1.28-5.401 3.161-9.204 8.554-10.153 14.88l-0.014 0.114c-0.007 0.088-0.012 0.19-0.012 0.293 0 2.020 1.637 3.657 3.657 3.657 0.004 0 0.008 0 0.012 0h-0.001z" />
<glyph unicode="&#xe91c;" d="M367.616 568.539c4.206-2.011 12.142-1.17 11.813 5.669 0 0.585 0 2.633-0.219 3.182-0.841 2.011-3.182 1.499-3.657-0.549 0-0.695 0.293-1.755-0.293-2.121s-1.719 0-1.646 1.755c-0.082 0.619-0.331 1.168-0.699 1.615l0.004-0.005c-0.218 0.142-0.485 0.227-0.771 0.227-0.050 0-0.1-0.003-0.149-0.008l0.006 0.001c-0.585 0-0.585-0.183-0.878-0.658-0.181-0.464-0.299-1-0.329-1.56l-0.001-0.013c0-0.658-0.329-0.914-0.841-1.024s-0.402 0-0.878 0.219-0.585 0.402-0.585 0.914c0 0.017 0 0.037 0 0.058 0 0.568-0.094 1.114-0.267 1.624l0.010-0.036c-0.258 0.299-0.612 0.51-1.013 0.584l-0.011 0.002c-2.304 0-2.45-2.67-2.341-3.657 0-0.183-0.256-4.901 2.853-6.217z" />
<glyph unicode="&#xe91d;" d="M491.081 516.206c4.206-1.975 14.226-0.841 11.813 5.669 0 0.585 0 2.633-0.219 3.182-0.841 1.975-3.182 1.536-3.657-0.549 0-0.695 0.293-1.792-0.293-2.121s-1.719 0-1.646 1.719c-0.079 0.631-0.328 1.193-0.7 1.652l0.005-0.006c-0.218 0.142-0.485 0.227-0.771 0.227-0.050 0-0.1-0.003-0.149-0.008l0.006 0.001c-0.585 0-0.585-0.183-0.878-0.695-0.182-0.464-0.3-1-0.329-1.56l-0.001-0.013c0-0.658-0.329-0.914-0.841-0.987s-0.402 0-0.878 0.219-0.585 0.402-0.585 0.914c0 0.026 0.001 0.057 0.001 0.087 0 0.57-0.094 1.119-0.267 1.631l0.011-0.036c-0.257 0.293-0.613 0.493-1.015 0.548l-0.009 0.001c-2.304 0-2.45-2.633-2.341-3.657 0-0.183-0.256-4.864 2.853-6.217z" />
<glyph unicode="&#xe91e;" d="M563.127 537.893c4.206-2.011 12.105-1.134 11.776 5.632 0 0.622 0 2.633-0.183 3.182-0.878 2.011-3.218 1.499-3.657-0.549 0-0.695 0.293-1.792-0.329-2.121s-1.682 0-1.609 1.719c-0.091 0.622-0.352 1.171-0.735 1.613l0.003-0.004c-0.2 0.144-0.45 0.23-0.72 0.23-0.056 0-0.111-0.004-0.164-0.011l0.006 0.001c-0.585 0-0.585 0-0.914-0.658-0.164-0.46-0.281-0.995-0.328-1.549l-0.002-0.024c0-0.658-0.329-0.914-0.805-1.024s-0.439 0-0.878 0.219-0.585 0.402-0.585 0.878c-0.006 0.602-0.099 1.18-0.267 1.725l0.011-0.043c-0.274 0.268-0.622 0.461-1.010 0.546l-0.014 0.003c-2.304 0-2.487-2.633-2.341-3.657-0.183-0.219-0.256-4.901 2.853-6.217z" />
<glyph unicode="&#xe91f;" d="M600.393 483.547c-2.864-4.076-4.576-9.142-4.576-14.607 0-3.726 0.796-7.267 2.228-10.46l-0.065 0.162c1.726-4.474 4.914-8.064 8.967-10.262l0.103-0.051c1.124-1.038 2.632-1.675 4.288-1.675 2.136 0 4.025 1.058 5.17 2.679l0.013 0.020c4.315 4.462 4.389 15.872 6.4 18.286 0.199 1.849 1.752 3.276 3.637 3.276 1.295 0 2.433-0.673 3.083-1.689l0.009-0.015c1.588-2.233 3.651-4.027 6.050-5.259l0.094-0.044c1.868-1.877 4.454-3.039 7.31-3.039 2.348 0 4.513 0.785 6.246 2.106l-0.025-0.018c3.437 1.906 6.032 4.977 7.282 8.667l0.032 0.11c0.82 8.722 1.288 18.86 1.288 29.108 0 7.954-0.282 15.842-0.836 23.654l0.060-1.050c0 1.207-4.169 21.211-4.169 21.431s-0.512 10.203-0.951 12.581c0 0.951-0.293 1.243 0.695 1.097 0.517-0.525 1.137-0.946 1.829-1.23l0.037-0.013c1.097-0.219 2.048 1.646 1.39 3.328l-10.021 18.542c-0.805 0.805-1.865 1.646-3.145-0.219-1.526-1.345-2.484-3.303-2.487-5.485v-0.001c0.293-4.389 1.061-8.85 1.39-13.275q2.011-11.264 4.023-22.528c1.243-16.091 1.573-30.793 2.853-46.848 0-6.802-2.304-15.835-4.279-16.677 0 0-2.999-1.755-5.010 0.183-2.67 2.894-5.087 6.101-7.165 9.535l-0.149 0.266c-0.817 1.158-2.15 1.906-3.657 1.906s-2.84-0.747-3.648-1.892l-0.009-0.014c-4.981-6.846-9.226-14.697-12.358-23.091l-0.223-0.68c-1.061-1.609-3.986-3.035-7.314 0-3.101 4.983-4.94 11.031-4.94 17.509 0 1.993 0.174 3.945 0.508 5.842l-0.029-0.201z" />
<glyph unicode="&#xe920;" d="M565.102 577.317c3.453-2.566 5.667-6.633 5.667-11.216 0-0.61-0.039-1.211-0.115-1.8l0.007 0.070c-0.768-4.608-2.779-9.618-4.206-8.96s1.061 4.571-0.439 8.777c-0.841 2.743-5.961 7.753-5.449 9.216-1.061 3.072 2.194 4.425 4.535 3.877z" />
<glyph unicode="&#xe921;" d="M612.535 479.049c0.082 1.636 0.129 3.552 0.129 5.48 0 5.185-0.339 10.291-0.997 15.296l0.063-0.589c-0.256 5.376-6.107 49.152-7.314 53.211-1.463 7.717 5.705 1.024 4.901 5.522-2.45 5.669-8.594 13.897-10.533 18.798-1.17 2.085-0.658 3.986-3.291 0.549-1.626-4.309-2.568-9.289-2.568-14.49 0-1.659 0.096-3.296 0.282-4.906l-0.018 0.196c6.929-27.633 11.106-59.454 11.517-92.182l0.003-0.271c2.926 0 6.327 6.729 7.753 13.385z" />
<glyph unicode="&#xe922;" d="M677.010 566.345c3.438-1.719 5.449-11.264 5.083-14.007-0.695-5.010-2.523-10.423-3.657-9.691s0.293 7.314-0.402 9.509c-0.768 2.962-5.449 8.375-4.974 9.984-0.126 0.333-0.199 0.719-0.199 1.122 0 1.798 1.457 3.255 3.255 3.255 0.372 0 0.73-0.063 1.063-0.178l-0.023 0.007z" />
<glyph unicode="&#xe923;" d="M421.376 496.384c3.291-1.28 5.23-8.302 4.864-10.313-0.658-3.657-2.414-7.643-3.657-7.314s0.256 5.449-0.402 7.022c-0.256 3.657-4.864 5.705-4.754 7.314-0.878 2.999 1.902 3.657 3.913 3.109z" />
<glyph unicode="&#xe924;" d="M333.422 579.621c4.864-1.463 5.12-8.594 4.791-10.715-0.658-3.657-2.341-7.936-3.657-7.314s0 5.669-0.695 7.314c-0.731 2.267-4.827 6.4-4.352 7.607-0.914 2.56 1.902 3.657 3.877 3.218z" />
<glyph unicode="&#xe925;" d="M429.275 545.938c-2.399-1.568-3.961-4.241-3.961-7.279 0-1.558 0.411-3.021 1.131-4.284l-0.022 0.043c1.033-1.328 2.632-2.174 4.427-2.174 0.573 0 1.126 0.086 1.646 0.246l-0.040-0.010c3.657-0.439 5.815 6.839 5.815 6.839s0 2.048-4.242-1.829c-1.829-0.366-2.048 0.329-2.487 1.353-0.148 0.612-0.233 1.314-0.233 2.036 0 1.329 0.288 2.59 0.805 3.725l-0.023-0.056c0.658 1.829-0.768 2.597-2.853 1.353z" />
<glyph unicode="&#xe926;" d="M457.253 582.363c-3.117-2.188-5.248-5.598-5.699-9.519l-0.006-0.062c0-2.523-0.585-2.523 1.061-4.096s2.377-1.573 4.791-0.329c1.187 0.757 2.031 1.961 2.299 3.369l0.005 0.032c0.585 2.853-2.999-1.353-3.474 1.829s1.499 4.133 3.657 6.985c0 1.938 0 3.328-2.633 1.755z" />
<glyph unicode="&#xe927;" d="M479.707 578.341c-0.824-3.216-1.399-6.971-1.603-10.825l-0.006-0.146c-0.658-2.779 2.926-3.95 4.535-0.402 1.51 3.57 2.439 7.713 2.559 12.058l0.001 0.047c-0.731 4.242-3.657 4.096-5.486-0.585z" />
<glyph unicode="&#xe928;" d="M621.641 506.149c0.512 0.475 20.005 14.373 20.005 14.373 1.975 0.695 1.536-7.314 0.622-7.095-5.887-5.729-12.707-10.538-20.203-14.172l-0.46-0.201c-0.951-0.695-1.938 5.376 0 7.095z" />
<glyph unicode="&#xe929;" d="M639.451 506.258c3.438-1.719 4.791-11.776 4.425-14.629 0-5.303-3.328-9.582-4.645-8.887s0 6.583-0.549 8.741c-0.768 2.962-3.657 8.521-3.182 10.13-0.159 0.377-0.251 0.816-0.251 1.276 0 1.858 1.506 3.365 3.365 3.365 0.297 0 0.585-0.039 0.86-0.111l-0.023 0.005z" />
<glyph unicode="&#xe92a;" d="M523.41 462.921c1.618 1.863 3.472 3.461 5.53 4.767l0.102 0.060c0.378 0.144 0.814 0.228 1.271 0.228 0.914 0 1.75-0.335 2.391-0.89l-0.005 0.004c0.329-1.938-1.207-3.657-0.731-6.327 0.402-1.024 0.731-2.194 2.633-1.755 2.31 1.724 5.22 2.76 8.373 2.76 0.245 0 0.489-0.006 0.731-0.019l-0.034 0.001c2.377 0 2.45-4.169 0.951-4.206-4.756-1.188-8.872-2.666-12.791-4.496l0.43 0.18c-0.442-0.302-0.987-0.481-1.575-0.481-0.824 0-1.565 0.354-2.080 0.918l-0.002 0.002c-0.434 0.594-0.694 1.338-0.694 2.143 0 0.549 0.121 1.069 0.337 1.537l-0.009-0.023c0 2.048-0.658 3.182-2.377 2.962s-2.414-1.17-3.072 0.329-0.329 1.646 0.512 2.231z" />
<glyph unicode="&#xe92b;" d="M660.005 457.472c0.493-0.456 0.801-1.106 0.801-1.829s-0.308-1.373-0.8-1.827l-0.002-0.002c-1.353-1.28-2.341-1.938-3.657-3.182-0.622-1.097-1.024-2.779 0.951-3.328 3.657-1.024 12.069 4.462 12.069 4.571 0.594 0.487 0.971 1.22 0.971 2.042 0 0.331-0.061 0.647-0.172 0.938l0.006-0.018c-0.805 0.914-2.597 0.366-3.657 0.512-0.585 0-2.45 0.293-1.536 1.938 0.616 0.852 1.136 1.832 1.51 2.88l0.026 0.082c0.549 1.243 0 2.085-1.975 2.779-0.792 0.133-1.703 0.208-2.633 0.208s-1.842-0.076-2.73-0.221l0.097 0.013c-1.243-0.256-1.646-0.841-1.902-2.341 0-2.341 1.499-2.158 2.926-3.109z" />
<glyph unicode="&#xe92c;" glyph-name="book" d="M909.722 800.597c-46.275 14.522-99.486 22.889-154.652 22.889-1.598 0-3.195-0.007-4.79-0.021l0.244 0.002c-5.665 0.273-12.305 0.428-18.981 0.428-86.029 0-166.034-25.796-232.701-70.074l1.553 0.97c-65.114 43.31-145.121 69.107-231.152 69.107-6.698 0-13.36-0.156-19.982-0.466l0.937 0.035c-5.685 0.274-12.347 0.431-19.045 0.431-86.031 0-166.037-25.797-232.705-70.077l1.553 0.97v-670.515c0.814-12.242 10.505-21.981 22.653-22.865l0.080-0.005c4.574 0 6.827 2.321 11.401 2.321 63.317 29.837 137.292 48.155 215.309 50.296l0.755 0.016c5.626 0.269 12.221 0.422 18.851 0.422 86.113 0 166.19-25.846 232.896-70.204l-1.549 0.969c72.12 40.902 157.95 66.044 249.423 68.659l0.775 0.018c3.419 0.091 7.443 0.143 11.479 0.143 74.535 0 144.935-17.704 207.225-49.137l-2.639 1.207c2.785-1.511 6.098-2.399 9.618-2.399 0.628 0 1.249 0.028 1.862 0.083l-0.079-0.006c12.228 0.888 21.919 10.627 22.729 22.795l0.004 0.074v668.126c-26.060 19.254-56.299 34.853-88.876 45.206l-2.192 0.601zM909.722 182.716c-45.91 14.529-98.709 22.901-153.464 22.901-2.016 0-4.029-0.011-6.040-0.034l0.306 0.003c-92.224-2.645-178.029-27.785-252.846-70.089l2.717 1.413v526.336c72.12 40.902 157.95 66.044 249.423 68.659l0.775 0.018c1.705 0.020 3.718 0.031 5.734 0.031 54.755 0 107.554-8.372 157.188-23.905l-3.724 1.005zM749.022 548.83c0.671 0.003 1.465 0.005 2.26 0.005 39.728 0 78.445-4.329 115.705-12.54l-3.549 0.657v69.564c-34.348 6.885-73.88 10.88-114.325 10.991h-0.089c-2.806 0.054-6.116 0.084-9.432 0.084-70.811 0-138.359-13.975-200.035-39.316l3.507 1.276v-75.981c55.696 28.692 121.545 45.513 191.324 45.513 5.147 0 10.273-0.092 15.376-0.273l-0.739 0.021zM543.061 457.83v-75.981c55.728 28.732 121.622 45.577 191.45 45.577 5.103 0 10.184-0.090 15.243-0.268l-0.733 0.021c0.671 0.003 1.465 0.005 2.26 0.005 39.728 0 78.445-4.329 115.705-12.54l-3.549 0.657v69.495c-34.348 6.885-73.88 10.88-114.325 10.991h-0.089c-2.344 0.037-5.11 0.058-7.88 0.058-71.342 0-139.423-13.962-201.659-39.303l3.579 1.289zM749.022 373.521c-2.806 0.054-6.116 0.084-9.432 0.084-70.811 0-138.359-13.975-200.035-39.316l3.507 1.276v-76.049c55.728 28.732 121.622 45.577 191.45 45.577 5.103 0 10.184-0.090 15.243-0.268l-0.733 0.021c0.671 0.003 1.465 0.005 2.26 0.005 39.728 0 78.445-4.329 115.705-12.54l-3.549 0.657v69.564c-33.825 6.992-72.698 10.994-112.506 10.994-0.671 0-1.342-0.001-2.013-0.003h0.104z" />
<glyph unicode="&#xe92d;" d="M682.325 584.533h-77.858c-5.199-0.932-9.421-4.398-11.397-9.048l-0.038-0.1-32.051-201.387c-0.034-0.242-0.053-0.521-0.053-0.804 0-3.356 2.72-6.076 6.076-6.076 0.284 0 0.563 0.019 0.836 0.057l-0.032-0.004h41.199c0.242-0.034 0.521-0.053 0.804-0.053 3.356 0 6.076 2.72 6.076 6.076 0 0.284-0.019 0.563-0.057 0.836l0.004-0.032 9.148 57.242c0.66 5.21 5.064 9.199 10.4 9.199 0.364 0 0.724-0.019 1.079-0.055l-0.045 0.004h25.19c2.874-0.367 6.199-0.576 9.573-0.576 42.788 0 77.712 33.675 79.713 75.968l0.007 0.18c1.292 4.648 2.035 9.985 2.035 15.495 0 13.089-4.191 25.2-11.304 35.063l0.122-0.177c-15.232 11.503-34.485 18.424-55.354 18.424-1.468 0-2.929-0.034-4.38-0.102l0.205 0.008zM691.371 509.099c-4.574-27.307-25.19-27.307-45.807-27.307h-13.653l9.148 52.668c0 2.287 2.287 4.574 6.827 4.574h4.574c13.653 0 27.307 0 34.338-9.148 4.574-2.287 4.574-9.148 4.574-20.48z" />
<glyph unicode="&#xe92e;" d="M121.344 584.533h-77.858c-5.199-0.932-9.421-4.398-11.397-9.048l-0.038-0.1-32.051-201.387c-0.034-0.242-0.053-0.521-0.053-0.804 0-3.356 2.72-6.076 6.076-6.076 0.284 0 0.563 0.019 0.836 0.057l-0.032-0.004h36.625c5.199 0.932 9.421 4.398 11.397 9.048l0.038 0.1 9.148 54.955c0.66 5.21 5.064 9.199 10.4 9.199 0.364 0 0.724-0.019 1.079-0.055l-0.045 0.004h25.19c2.884-0.37 6.22-0.58 9.605-0.58 42.783 0 77.7 33.681 79.681 75.974l0.007 0.178c1.292 4.648 2.035 9.985 2.035 15.495 0 13.089-4.191 25.2-11.304 35.063l0.122-0.177c-14.743 11.54-33.55 18.504-53.983 18.504-1.951 0-3.887-0.063-5.806-0.189l0.261 0.014zM130.423 509.133c-4.574-27.307-25.19-27.307-45.807-27.307h-11.435l9.148 52.668c0 2.287 2.287 4.574 6.827 4.574h4.574c13.653 0 27.307 0 34.338-9.148 2.231-3.622 3.552-8.011 3.552-12.708 0-2.781-0.463-5.453-1.316-7.945l0.051 0.172z" />
<glyph unicode="&#xe92f;" d="M357.171 511.283h-36.625c-2.287 0-6.827-2.287-6.827-4.574l-2.287-11.435-2.287 4.574c-9.793 10.042-23.457 16.27-38.574 16.27-1.741 0-3.463-0.083-5.162-0.244l0.217 0.017c-43.213-1.216-78.553-33.406-84.662-75.094l-0.057-0.477c-0.967-4.307-1.521-9.253-1.521-14.329 0-16.316 5.724-31.295 15.273-43.038l-0.099 0.125c10.575-11.457 25.669-18.608 42.433-18.608 1.994 0 3.963 0.101 5.905 0.299l-0.244-0.020c0.556-0.015 1.211-0.024 1.868-0.024 19.742 0 37.657 7.817 50.821 20.524l-0.022-0.021-2.287-11.435c-0.034-0.242-0.053-0.521-0.053-0.804 0-3.356 2.72-6.076 6.076-6.076 0.284 0 0.563 0.019 0.836 0.057l-0.032-0.004h34.338c5.199 0.932 9.421 4.398 11.397 9.048l0.038 0.1 20.48 128.205c-2.287 2.287-6.827 6.827-9.148 6.827zM304.299 437.862c-3.805-20.893-21.823-36.538-43.511-36.625h-0.009c-0.286-0.008-0.623-0.013-0.961-0.013-9.309 0-17.807 3.473-24.268 9.194l0.039-0.034c-4.323 7.142-6.881 15.771-6.881 24.998 0 0.812 0.020 1.62 0.059 2.422l-0.004-0.113c2.389 20.557 19.699 36.363 40.701 36.363 9.763 0 18.727-3.415 25.765-9.116l-0.077 0.060c5.718-6.864 9.189-15.776 9.189-25.497 0-0.636-0.015-1.269-0.044-1.898l0.003 0.089z" />
<glyph unicode="&#xe930;" d="M915.866 511.249h-36.625c-2.287 0-6.827-2.287-6.827-4.574l-2.287-11.435-2.287 4.574c-9.793 10.042-23.457 16.27-38.574 16.27-1.741 0-3.463-0.083-5.162-0.244l0.217 0.017c-43.213-1.216-78.553-33.406-84.662-75.094l-0.057-0.477c-0.967-4.307-1.521-9.253-1.521-14.329 0-16.316 5.724-31.295 15.273-43.038l-0.099 0.125c10.575-11.457 25.669-18.608 42.433-18.608 1.994 0 3.963 0.101 5.905 0.299l-0.244-0.020c0.556-0.015 1.211-0.024 1.868-0.024 19.742 0 37.657 7.817 50.821 20.524l-0.022-0.021-2.287-11.435c-0.034-0.242-0.053-0.521-0.053-0.804 0-3.356 2.72-6.076 6.076-6.076 0.284 0 0.563 0.019 0.836 0.057l-0.032-0.004h34.338c5.199 0.932 9.421 4.398 11.397 9.048l0.038 0.1 20.48 128.205c-2.287 2.287-4.574 6.827-9.148 6.827zM862.993 437.828c-3.805-20.893-21.823-36.538-43.511-36.625h-0.009c-0.286-0.008-0.623-0.013-0.961-0.013-9.309 0-17.807 3.473-24.268 9.194l0.039-0.034c-4.323 7.142-6.881 15.771-6.881 24.998 0 0.812 0.020 1.62 0.059 2.422l-0.004-0.113c2.389 20.557 19.699 36.363 40.701 36.363 9.763 0 18.727-3.415 25.765-9.116l-0.077 0.060c6.119-4.856 10.008-12.293 10.008-20.638 0-2.371-0.314-4.668-0.902-6.853l0.042 0.184z" />
<glyph unicode="&#xe931;" d="M556.407 511.249h-38.912c-3.711-0.076-6.995-1.838-9.128-4.548l-0.019-0.025-50.381-77.858-22.903 73.284c-1.53 4.081-5.398 6.934-9.933 6.934-0.53 0-1.051-0.039-1.56-0.114l0.058 0.007h-36.693c-4.574 0-6.827-4.574-6.827-9.148l41.199-121.344-38.912-54.955c-2.287-4.574 0-11.435 4.574-11.435h36.625c3.711 0.076 6.995 1.838 9.128 4.548l0.019 0.025 125.918 180.907c6.827 6.827 2.287 13.653-2.287 13.653z" />
<glyph unicode="&#xe932;" d="M959.386 577.638l-32.051-206.063c-0.034-0.242-0.053-0.521-0.053-0.804 0-3.356 2.72-6.076 6.076-6.076 0.284 0 0.563 0.019 0.836 0.057l-0.032-0.004h32.051c5.199 0.932 9.421 4.398 11.397 9.048l0.038 0.1 32.051 201.387c0.034 0.242 0.053 0.521 0.053 0.804 0 3.356-2.72 6.076-6.076 6.076-0.284 0-0.563-0.019-0.836-0.057l0.032 0.004h-36.625c-2.287 2.287-4.574 0-6.827-4.574z" />
<glyph unicode="&#xe933;" d="M0 422.217h452.791v-150.821h-452.791v150.821z" />
<glyph unicode="&#xe934;" d="M0 612.571h452.791v-150.967h-452.791v150.967z" />
<glyph unicode="&#xe935;" d="M859.173 302.043l-2.011-0.402c-4.367-1.109-9.399-1.785-14.576-1.865l-0.052-0.001c-11.813 0-25.819 6.034-25.819 34.56 0 14.629 2.414 34.158 24.466 34.158v0c5.895-0.399 11.389-1.507 16.595-3.244l-0.467 0.135 1.755-0.549zM862.83 444.123l-3.657-0.658v-52.699l-3.218 0.951-0.951 0.256c-5.928 2.024-12.776 3.338-19.884 3.652l-0.157 0.006c-44.105 0-53.358-33.353-53.358-61.294-0.228-1.87-0.358-4.036-0.358-6.232 0-30.014 24.331-54.345 54.345-54.345 1.774 0 3.529 0.085 5.26 0.251l-0.22-0.017c0.986-0.029 2.146-0.046 3.31-0.046 12.885 0 25.294 2.037 36.924 5.805l-0.847-0.237c8.394 1.342 14.731 8.532 14.731 17.201 0 0.666-0.037 1.322-0.11 1.969l0.007-0.079v151.040c-10.496-1.865-21.358-3.657-32-5.522z" />
<glyph unicode="&#xe936;" d="M990.245 301.056l-1.902-0.549-6.729-1.755c-4.818-1.41-10.39-2.33-16.141-2.556l-0.133-0.004c-10.35 0-16.53 5.12-16.53 13.861 0 5.632 2.56 15.177 19.493 15.177h21.943zM974.775 396.142c-16.159-0.299-31.558-3.127-45.955-8.104l1.045 0.314-11.301-3.365 3.657-25.6 10.971 3.657c10.87 3.621 23.403 5.858 36.412 6.177l0.16 0.003c4.827 0 19.639 0 19.639-15.982v-6.985h-20.261c-37.522 0-54.857-11.959-54.857-37.632 0-21.943 15.982-35.072 42.898-35.072 10.722 0.278 20.972 1.729 30.802 4.23l-0.959-0.207h1.097l3.365-0.549c10.496-1.865 21.358-3.657 32-5.778v83.895c0 27.173-16.384 40.997-48.677 40.997z" />
<glyph unicode="&#xe937;" d="M741.669 301.056l-1.865-0.549-6.729-1.755c-4.822-1.42-10.395-2.341-16.148-2.556l-0.126-0.004c-10.35 0-16.53 5.12-16.53 13.861 0 5.632 2.56 15.177 19.346 15.177h21.943v-24.21zM726.345 396.142c-16.156-0.287-31.557-3.117-45.95-8.103l1.040 0.314-11.301-3.365 3.657-25.6 10.971 3.657c10.87 3.621 23.403 5.858 36.412 6.177l0.16 0.003c4.827 0 19.639 0 19.639-15.982v-6.985h-20.407c-37.522 0-54.857-11.959-54.857-37.632 0-21.943 15.982-35.072 43.008-35.072 10.723 0.278 20.972 1.729 30.802 4.23l-0.959-0.207h1.097l3.218-0.549c10.606-1.865 21.358-3.657 32-5.925v83.895c0 27.429-16.274 41.143-48.53 41.143z" />
<glyph unicode="&#xe938;" d="M607.634 395.995c-13.28-0.132-25.834-3.096-37.134-8.315l0.562 0.233-1.353-0.658-1.207 0.951c-8.182 5.071-18.106 8.076-28.732 8.076-1.381 0-2.751-0.051-4.107-0.151l0.181 0.011c-13.774-0.030-27.045-2.14-39.529-6.033l0.947 0.254c-11.41-3.657-15.872-8.997-15.872-19.346v-95.854h35.767v88.576l1.755 0.549c4.674 1.779 10.079 2.811 15.724 2.816h0.002c0.48 0.058 1.036 0.091 1.6 0.091 7.817 0 14.153-6.337 14.153-14.153 0-0.781-0.063-1.547-0.185-2.294l0.011 0.082v-75.813h35.218v77.093c0.002 0.127 0.004 0.277 0.004 0.427 0 2.624-0.389 5.158-1.112 7.547l0.048-0.184-1.207 2.267 2.414 1.061c5.066 2.311 10.989 3.658 17.225 3.658 0.090 0 0.18 0 0.27-0.001h-0.014c0.454 0.051 0.98 0.081 1.513 0.081 7.857 0 14.226-6.369 14.226-14.226 0-0.751-0.058-1.489-0.17-2.209l0.010 0.080v-75.813h35.072v79.323c0 28.087-15.067 41.691-46.226 41.691z" />
<glyph unicode="&#xe939;" d="M963.913 514.158c-7.384 0.026-14.592 0.703-21.592 1.978l0.746-0.113-2.011 0.402v51.749c0.002 0.126 0.004 0.275 0.004 0.425 0 2.453-0.349 4.825-0.999 7.069l0.044-0.179-1.061 2.158 2.304 0.951c0.549 0.256 1.061 0.402 1.755 0.658l0.402 0.256 2.414 0.805c0.277 0.123 0.598 0.213 0.934 0.254l0.017 0.002c5.478 1.328 11.779 2.112 18.255 2.158h0.031c21.943 0 24.466-19.493 24.466-34.158 0-28.489-14.263-34.56-25.929-34.56zM963.694 612.425h-0.951c-1.812 0.184-3.916 0.289-6.044 0.289-16.688 0-31.868-6.453-43.182-17l0.038 0.035c-4.023-5.473-6.438-12.345-6.438-19.781 0-0.092 0-0.183 0.001-0.274v0.014-53.358c0.019-0.291 0.030-0.632 0.030-0.974 0-2.071-0.401-4.049-1.128-5.861l0.038 0.106-1.207-2.304h-64.914v37.12c0.168 1.616 0.263 3.492 0.263 5.391 0 30.539-24.757 55.296-55.296 55.296-0.839 0-1.673-0.019-2.503-0.056l0.118 0.004h-32.658c-1.353-9.545-2.414-16.274-3.657-25.819h32.549c17.079 0 26.075-14.629 26.075-36.827v-37.376l-2.267 1.207c-2.145 0.676-4.611 1.065-7.168 1.065-0.167 0-0.334-0.002-0.501-0.005h-56.185c-1.061-7.131-2.414-16.384-3.913-25.6h172.763c5.925 1.207 12.763 2.267 18.688 3.218 10.437-4.17 22.535-6.588 35.196-6.588 0.342 0 0.684 0.002 1.025 0.005h-0.052c33.911 1.882 60.697 29.84 60.697 64.053 0 33.647-25.905 61.243-58.859 63.931l-0.229 0.015z" />
<glyph unicode="&#xe93a;" d="M678.181 472.137h1.609c37.522 0 54.857 12.361 54.857 42.898 0.001 0.082 0.001 0.18 0.001 0.277 0 21.692-17.585 39.278-39.278 39.278-1.275 0-2.536-0.061-3.78-0.18l0.159 0.012h-34.56c-0.506-0.061-1.091-0.096-1.685-0.096-8.221 0-14.885 6.664-14.885 14.885 0 0.381 0.014 0.759 0.042 1.133l-0.003-0.050c0 6.729 2.56 15.067 19.493 15.067h75.557c1.609 9.801 2.414 15.982 3.913 25.819h-78.519c-36.571 0-54.857-15.323-54.857-40.85s15.982-38.437 42.898-38.437h34.56c0.068 0.001 0.148 0.002 0.228 0.002 9.008 0 16.311-7.303 16.311-16.311 0-0.181-0.003-0.361-0.009-0.54l0.001 0.026c0.007-0.185 0.011-0.401 0.011-0.619 0-9.331-7.565-16.896-16.896-16.896-0.869 0-1.722 0.066-2.555 0.192l0.094-0.012h-136.594c-17.079 0-29.038 9.691-29.038 32.146v15.47c0 23.406 9.289 37.925 29.038 37.925h32.914c1.463 9.947 2.414 16.274 3.657 25.6h-44.763c-0.473 0.014-1.029 0.022-1.588 0.022-30.983 0-56.101-25.117-56.101-56.101 0-1.94 0.098-3.857 0.291-5.746l-0.020 0.237v-17.481c-0.148-1.485-0.232-3.209-0.232-4.953 0-29.307 23.758-53.065 53.065-53.065 1.614 0 3.21 0.072 4.787 0.213l-0.204-0.015h142.080z" />
<glyph unicode="&#xe93b;" d="M708.075 150.262h16.384l15.155 1.024 15.155 2.007 15.155 3.031 14.172 3.031 14.172 4.096 28.344 10.076 13.148 6.062 26.296 14.172 24.576 16.384 11.141 9.093 11.141 10.117 20.234 20.234 10.117 11.141 8.192 11.141 9.093 12.288 8.192 12.288 6.226 12.657 18.186 39.444 5.038 14.172 4.096 15.155 3.031 14.172 3.031 15.155 1.024 15.155 2.007 15.155v31.375l-2.007 15.155-1.024 15.155-3.031 15.155-3.031 14.172-4.096 14.172-5.038 14.172-6.062 14.172-6.062 13.148-6.062 13.189-7.086 12.288-8.192 12.288-9.093 12.288-8.192 11.141-20.234 22.282-9.748 9.708-22.282 18.186-24.576 16.384-26.296 14.172-13.148 6.062-28.344 10.076-14.172 4.096-14.172 3.031-15.155 3.031-15.155 2.007-15.155 1.024h-31.375l-15.155-1.024-15.155-2.007-30.31-6.062-14.172-4.096-14.172-5.038-13.148-5.038-13.148-6.062-26.296-14.172-24.576-16.384-11.141-9.093-10.568-9.093-10.117-10.117-10.117-11.141-18.186-22.282-9.093-12.288-14.172-24.576-7.086-13.148-6.062-13.148-10.076-28.344-4.096-14.172-3.031-14.172-3.031-15.155-2.007-15.155-2.048-30.31 1.024-16.384 1.024-15.155 2.007-15.155 3.031-15.155 3.031-14.172 4.096-15.155 5.038-14.172 5.038-13.148 6.062-13.148 14.172-26.296 7.086-12.288 9.093-12.288 18.186-22.282 20.234-20.234 11.141-10.117 11.141-9.093 24.576-16.384 26.296-14.172 13.148-6.062 13.148-5.038 14.172-5.038 14.172-4.096 30.31-6.062 15.155-2.007 15.155-1.024z" />
<glyph unicode="&#xe93c;" d="M303.473 150.262h15.155l15.155 1.024 15.155 2.007 30.31 6.062 14.172 4.096 14.172 5.038 13.148 5.038 13.148 6.062 26.296 14.172 24.576 16.384 11.141 9.093 11.141 10.117 20.234 20.234 18.186 22.282 9.093 12.288 7.086 12.288 14.172 26.296 6.062 13.148 5.038 13.148 5.038 14.172 4.096 15.155 3.031 14.172 3.031 15.155 2.007 15.155 1.024 15.155 1.024 16.384-2.048 30.31-2.007 15.155-3.031 15.155-3.031 14.172-4.096 14.172-10.076 28.344-6.062 13.148-7.086 13.148-14.172 24.576-9.093 12.288-18.186 22.282-10.117 11.141-10.363 9.093-22.282 18.186-24.576 16.384-26.296 14.172-13.148 6.062-13.148 5.038-14.172 5.038-14.172 4.096-30.31 6.062-15.155 2.007-15.155 1.024h-31.375l-15.155-1.024-15.155-2.007-15.155-3.031-14.172-3.031-14.172-4.096-28.344-10.076-13.148-6.062-26.296-14.172-24.576-16.384-11.141-9.093-10.568-9.093-10.117-10.117-20.234-22.282-8.192-11.141-9.093-12.288-8.192-12.288-7.086-12.288-12.124-26.296-6.062-14.172-5.038-14.172-4.096-14.172-3.031-14.172-3.031-15.155-1.024-15.155-2.007-15.155v-31.375l2.007-15.155 1.024-15.155 3.031-15.155 3.031-14.172 4.096-15.155 5.038-14.172 18.186-39.444 7.086-13.148 8.192-12.288 9.093-12.288 8.192-11.141 10.117-11.141 20.234-20.234 11.141-10.117 11.141-9.093 24.576-16.384 26.296-14.172 13.148-6.062 28.344-10.076 14.172-4.096 14.172-3.031 15.155-3.031 15.155-2.007 15.155-1.024z" />
<glyph unicode="&#xe93d;" d="M470.385 638.874h160.85v17.203h-146.678l-14.172-17.203z" />
<glyph unicode="&#xe93e;" d="M446.095 602.46h185.098v17.203h-174.981l-10.117-17.203z" />
<glyph unicode="&#xe93f;" d="M427.868 566.047h203.325v17.203h-196.239l-7.086-17.203z" />
<glyph unicode="&#xe940;" d="M415.744 529.428h215.45v16.384h-210.412l-5.038-16.384z" />
<glyph unicode="&#xe941;" d="M422.789 353.423h208.364v16.384h-213.402l5.038-16.384z" />
<glyph unicode="&#xe942;" d="M438.026 316.191h193.208v17.203h-200.294l7.086-17.203z" />
<glyph unicode="&#xe943;" d="M460.268 279.736h170.967v17.203h-181.084l10.117-17.203z" />
<glyph unicode="&#xe944;" d="M489.595 243.323h141.476v17.203h-155.648l14.172-17.203z" />
<glyph unicode="&#xe945;" d="M408.658 493.015h222.536v16.384h-219.505l-3.031-16.384z" />
<glyph unicode="&#xe946;" d="M544.195 389.837h84.951v16.384h-81.92l-3.031-16.384z" />
<glyph unicode="&#xe947;" d="M551.281 426.25h77.824v16.384h-74.793l-3.031-16.384z" />
<glyph unicode="&#xe948;" d="M402.596 442.634h22.241v-16.384h-21.258l-0.983 16.384z" />
<glyph unicode="&#xe949;" d="M362.168 462.868h-6.062l-1.024 1.024h-7.086l-2.212 0.983h-6.062l-3.031-1.024h-7.086l-1.024-1.024-2.007-1.024h-0.86l-2.007-1.024-2.048-2.048v-1.024l-1.024-1.024v-4.096l1.024-1.024 1.024-2.007 3.031-3.031 2.007-1.024 3.031-2.007 6.062-2.048 4.096-1.024 6.062-2.048 6.062-4.014 2.007-3.031 3.031-3.031 2.048-8.192 1.024-6.062-1.024-6.062v-5.038l-2.007-4.096-1.024-4.096-2.007-3.031-3.031-3.031-2.007-3.031-6.062-4.014-3.031-1.024-4.096-2.007-3.031-1.024h-4.096l-3.031-1.024h-3.031l-4.096-1.024h-15.155l-3.031 1.024h-11.141l-2.007 1.024h-4.096l-1.024 1.024h-2.007l-2.007 1.024h-1.024l-2.007 1.024 4.096 22.241h3.031l1.024-1.024h3.031l2.007-1.024h3.277l2.007-1.024h3.031l2.007-1.024h20.234l3.031 1.024 2.007 1.024 1.024 2.007 1.024 1.024 1.024 2.007v1.024l1.024 2.007v3.031l-1.024 2.007-4.014 4.014-3.031 2.007-8.192 2.048-12.288 6.021-6.062 6.062-3.031 4.096-2.007 4.096-1.024 6.062 1.024 6.062v4.096l1.024 4.096 2.048 6.062 2.007 3.031 1.024 3.031 5.038 5.038 3.031 2.007 3.031 1.024 4.096 2.007 8.192 2.048 5.038 1.024h27.32l3.031-1.024h5.038l2.007-1.024h5.038l1.024-1.024-5.038-22.241z" />
<glyph unicode="&#xe94a;" d="M362.168 462.868h-6.062l-1.024 1.024h-7.086l-2.212 0.983h-6.062l-3.031-1.024h-7.086l-1.024-1.024-2.007-1.024h-0.86l-2.007-1.024-2.048-2.048v-1.024l-1.024-1.024v-4.096l1.024-1.024 1.024-2.007 3.031-3.031 2.007-1.024 3.031-2.007 6.062-2.048 4.096-1.024 6.062-2.048 6.062-4.014 2.007-3.031 3.031-3.031 2.048-8.192 1.024-6.062-1.024-6.062v-5.038l-2.007-4.096-1.024-4.096-2.007-3.031-3.031-3.031-2.007-3.031-6.062-4.014-3.031-1.024-4.096-2.007-3.031-1.024h-4.096l-3.031-1.024h-3.031l-4.096-1.024h-15.155l-3.031 1.024h-11.141l-2.007 1.024h-4.096l-1.024 1.024h-2.007l-2.007 1.024h-1.024l-2.007 1.024 4.096 22.241h3.031l1.024-1.024h3.031l2.007-1.024h3.277l2.007-1.024h3.031l2.007-1.024h20.234l3.031 1.024 2.007 1.024 1.024 2.007 1.024 1.024 1.024 2.007v1.024l1.024 2.007v3.031l-1.024 2.007-4.014 4.014-3.031 2.007-8.192 2.048-12.288 6.021-6.062 6.062-3.031 4.096-2.007 4.096-1.024 6.062 1.024 6.062v4.096l1.024 4.096 2.048 6.062 2.007 3.031 1.024 3.031 5.038 5.038 3.031 2.007 3.031 1.024 4.096 2.007 8.192 2.048 5.038 1.024h27.32l3.031-1.024h5.038l2.007-1.024h5.038l1.024-1.024-5.038-22.241" />
<glyph unicode="&#xe94b;" d="M386.417 510.382h28.303l-4.096-24.289h16.384l-3.031-23.265-18.227 1.024-10.117-57.672v-2.007l1.024-1.024 1.024-2.007 1.024-1.024 2.007-1.024h2.007l2.007-1.024h5.038l2.007 1.024h3.031l1.024 1.024h2.007l-3.031-19.21h-2.007v-1.024h-1.024l-1.024-1.024h-3.031l-1.024-1.024h-3.031l-1.024-1.024h-17.203l-3.031 1.024h-4.096l-2.007 1.024-3.031 1.024-2.007 1.024-1.024 1.024-2.007 1.024-1.024 2.007v1.024l-1.024 2.007v11.141l20.234 111.288z" />
<glyph unicode="&#xe94c;" d="M386.417 510.382h28.303l-4.096-24.289h16.384l-3.031-23.265-18.227 1.024-10.117-57.672v-2.007l1.024-1.024 1.024-2.007 1.024-1.024 2.007-1.024h2.007l2.007-1.024h5.038l2.007 1.024h3.031l1.024 1.024h2.007l-3.031-19.21h-2.007v-1.024h-1.024l-1.024-1.024h-3.031l-1.024-1.024h-3.031l-1.024-1.024h-17.203l-3.031 1.024h-4.096l-2.007 1.024-3.031 1.024-2.007 1.024-1.024 1.024-2.007 1.024-1.024 2.007v1.024l-1.024 2.007v11.141l20.234 111.288" />
<glyph unicode="&#xe94d;" d="M450.15 424.407v0l-1.024-2.007v-3.031l2.048-4.014v-2.007l2.007-2.007 1.024-2.007 6.062-6.062 4.014-2.048h2.007l2.007-1.024h5.038l3.031-1.024h13.066l3.031 1.024h3.031l2.007 1.024 9.093 3.072 3.318 1.925 3.031 1.024-4.096-25.272h-2.007l-2.007-1.024-1.024-1.024h-2.089l-1.024-1.024h-2.007l-2.007-1.024h-3.154l-2.007-1.024h-26.296l-10.076 2.048-15.114 6.021-4.096 3.031-4.096 4.096-6.062 8.192-3.031 6.062-1.024 6.062-2.048 14.172 1.024 8.192v4.096l1.024 3.031 2.048 8.192 1.024 5.079 2.007 4.096 2.007 5.038 6.062 8.192 4.096 4.096 10.076 6.062 6.062 3.031 6.062 1.024 7.086 2.007h17.203l8.192-2.048 4.096-2.007 4.096-1.024 4.096-3.031 6.062-6.062 2.007-4.096 4.014-10.076 1.024-6.062v-7.086l-2.048-16.384-1.024-6.062h-73.728l4.096 19.21h44.524l1.024 3.031-1.024 2.007v4.751l-1.434 2.048-1.024 1.024-1.024 2.007-3.072 3.072-2.007 1.024-1.024 1.024-2.007 1.024h-3.031l-2.007 1.024h-2.007l-2.007-1.024h-0.86l-4.014-2.048h-1.024l-7.086-7.086-2.048-4.014v-2.007l-1.024-2.007v-2.007l-4.096-21.258" />
<glyph unicode="&#xe94e;" d="M692.92 480.072l-1.024 1.024h-1.024l-2.007 1.024-1.024 1.024h-2.007l-1.024 1.024h-1.884l-4.014 2.048h-4.096l-2.007 1.024h-17.203l-12.124-4.096-3.031-2.007-5.038-5.038-2.007-3.031-3.031-4.096-2.007-4.096-2.007-5.038-2.007-6.062-2.007-7.086v-3.031l-1.024-4.096v-10.117l3.072-9.093 4.014-6.062 4.014-4.014 3.031-2.007 3.031-1.024 3.031-2.007 4.096-1.024h3.031l2.007-1.024h11.141l3.031 1.024h3.031l2.007 1.024 3.031 1.024 2.007 1.024 3.031 1.024 2.007 2.007 2.007 1.024-5.038-27.32-1.024-1.024h-1.147l-2.048-2.048h-1.024l-4.014-2.048h-2.007l-3.195-1.024h-3.031l-3.031-1.024h-19.21l-10.076 2.048-4.096 1.024-5.079 2.007-5.038 3.031-8.192 6.062-4.096 4.096-6.062 10.076-4.014 12.124-1.024 7.086-0.778 7.086 2.048 16.384 1.024 4.096v4.096l2.007 4.096 1.024 4.096 1.024 3.031 1.024 4.096 1.024 3.031 2.007 3.031 1.024 3.031 2.007 3.031 1.024 3.031 2.007 3.031 2.007 2.007 2.007 3.031 4.014 4.014 3.031 2.007 4.014 4.014 3.031 1.024 3.072 1.597 2.007 1.024 3.031 1.024 3.031 2.007 3.031 1.024h3.031l3.031 1.024 4.096 1.024h3.031l4.096 1.024h14.172l3.031-1.024h6.103l2.007-1.024 3.031-1.024h2.007l3.031-1.024h2.007l2.007-1.024 1.024-1.024h2.007l1.024-1.024h2.007l-6.062-28.344z" />
<glyph unicode="&#xe94f;" d="M692.92 480.072v0l-1.024 1.024h-1.024l-2.007 1.024-1.024 1.024h-2.007l-1.024 1.024h-1.884l-4.014 2.048h-4.096l-2.007 1.024h-17.203l-12.124-4.096-3.031-2.007-5.038-5.038-2.007-3.031-3.031-4.096-2.007-4.096-2.007-5.038-2.007-6.062-2.007-7.086v-3.031l-1.024-4.096v-10.117l3.072-9.093 4.014-6.062 4.014-4.014 3.031-2.007 3.031-1.024 3.031-2.007 4.096-1.024h3.031l2.007-1.024h11.141l3.031 1.024h3.031l2.007 1.024 3.031 1.024 2.007 1.024 3.031 1.024 2.007 2.007 2.007 1.024-5.038-27.32-1.024-1.024h-1.147l-2.048-2.048h-1.024l-4.014-2.048h-2.007l-3.195-1.024h-3.031l-3.031-1.024h-19.21l-10.076 2.048-4.096 1.024-5.079 2.007-5.038 3.031-8.192 6.062-4.096 4.096-6.062 10.076-4.014 12.124-1.024 7.086-0.778 7.086 2.048 16.384 1.024 4.096v4.096l2.007 4.096 1.024 4.096 1.024 3.031 1.024 4.096 1.024 3.031 2.007 3.031 1.024 3.031 2.007 3.031 1.024 3.031 2.007 3.031 2.007 2.007 2.007 3.031 4.014 4.014 3.031 2.007 4.014 4.014 3.031 1.024 3.072 1.597 2.007 1.024 3.031 1.024 3.031 2.007 3.031 1.024h3.031l3.031 1.024 4.096 1.024h3.031l4.096 1.024h14.172l3.031-1.024h6.103l2.007-1.024 3.031-1.024h2.007l3.031-1.024h2.007l2.007-1.024 1.024-1.024h2.007l1.024-1.024h2.007l-6.062-28.344" />
<glyph unicode="&#xe950;" d="M944.783 376.852h-28.303l2.007 11.141v1.024l-2.007-2.007-1.024-2.007-2.007-1.024-2.007-2.007-2.007-1.024-1.024-1.024-6.021-3.072h-2.007l-2.007-1.024h-4.096l-2.007-1.024h-4.096l-10.076 2.048-4.096 2.007-5.038 2.007-6.062 6.062-6.062 8.192-2.007 5.038-1.024 4.096-1.024 5.038-1.024 6.062v15.155l1.024 5.038 2.007 6.062 1.024 6.062 2.007 5.038 3.031 5.038 9.093 12.288 3.031 3.031 4.096 3.031 3.031 3.031 8.192 4.014 12.288 3.072h10.117l3.031-1.024 2.007-1.024h2.007l2.007-1.024 2.007-2.007 4.014-2.048 1.024-1.024 2.007-1.024 1.024-2.007 2.048-2.048 1.024-2.007v-1.024l7.086 40.468h28.303l-23.265-133.53z" />
<glyph unicode="&#xe951;" d="M944.783 376.852h-28.303l2.007 11.141v1.024l-2.007-2.007-1.024-2.007-2.007-1.024-2.007-2.007-2.007-1.024-1.024-1.024-6.021-3.072h-2.007l-2.007-1.024h-4.096l-2.007-1.024h-4.096l-10.076 2.048-4.096 2.007-5.038 2.007-6.062 6.062-6.062 8.192-2.007 5.038-1.024 4.096-1.024 5.038-1.024 6.062v15.155l1.024 5.038 2.007 6.062 1.024 6.062 2.007 5.038 3.031 5.038 9.093 12.288 3.031 3.031 4.096 3.031 3.031 3.031 8.192 4.014 12.288 3.072h10.117l3.031-1.024 2.007-1.024h2.007l2.007-1.024 2.007-2.007 4.014-2.048 1.024-1.024 2.007-1.024 1.024-2.007 2.048-2.048 1.024-2.007v-1.024l7.086 40.468h28.303l-23.265-133.53" />
<glyph unicode="&#xe952;" d="M898.253 401.142h3.031l3.031 1.024 4.014 2.048 3.031 1.024 2.007 2.007 2.007 1.024 1.024 2.007 2.007 2.007 1.024 2.007 1.024 3.031 2.007 2.007 1.024 3.031v2.007l2.048 6.062v16.384l-1.024 3.031-3.072 6.021-3.031 3.031-2.007 1.024-1.024 1.024h-2.007l-3.031 1.024-2.007-1.024h-3.031l-6.021-3.072-2.007-2.007-2.007-1.024-2.007-2.007-0.983-3.277-2.007-2.007-1.024-2.007-2.048-6.062-1.024-2.007-1.024-3.031v-3.031l-1.024-5.038v-5.038l1.024-4.096 1.024-5.038 2.007-4.096 3.031-4.096 3.031-2.007 4.096-1.024z" />
<glyph unicode="&#xe953;" d="M271.114 399.094l-4.096-22.241h-25.272l1.024 4.096v7.045l1.024 0.819-5.038-5.038-2.007-1.024-3.031-2.007-2.007-1.024-6.062-2.048-2.007-1.024-3.031-1.024h-3.031l-3.031-1.024h-9.093l-12.124 4.096-3.031 2.007-2.007 1.024-4.014 4.014-4.096 8.028-1.024 3.031v4.096l-1.024 3.031v2.007l1.024 4.096v3.359l1.024 4.096 2.007 3.031 1.024 4.096 2.007 3.031 7.045 7.045 9.093 6.021 6.062 2.048 4.096 1.024 3.031 1.024h4.096l2.007 1.024h8.192l2.007 1.024h18.227l1.024-1.024v1.024l1.024 2.007v2.007l1.024 2.007-3.072 6.021-2.007 2.007-4.014 2.048h-2.007l-3.031 1.024h-15.155l-3.031-1.024h-7.373l-3.031-1.024h-3.031l-2.007-1.024h-3.031l-4.014-2.048h-1.024l-1.024-1.024 7.086 24.289 4.014 2.048 3.031 1.024h2.007l2.007 1.024h3.031l3.031 1.024h31.375l3.031-1.024h3.031l6.062-2.048 12.124-8.028 2.007-2.007 2.089-3.4 1.024-3.031 2.007-3.031v-11.141l-11.141-54.641z" />
<glyph unicode="&#xe954;" d="M271.114 399.094l-4.096-22.241h-25.272l1.024 4.096v7.045l1.024 0.819-5.038-5.038-2.007-1.024-3.031-2.007-2.007-1.024-6.062-2.048-2.007-1.024-3.031-1.024h-3.031l-3.031-1.024h-9.093l-12.124 4.096-3.031 2.007-2.007 1.024-4.014 4.014-4.096 8.028-1.024 3.031v4.096l-1.024 3.031v2.007l1.024 4.096v3.359l1.024 4.096 2.007 3.031 1.024 4.096 2.007 3.031 7.045 7.045 9.093 6.021 6.062 2.048 4.096 1.024 3.031 1.024h4.096l2.007 1.024h8.192l2.007 1.024h18.227l1.024-1.024v1.024l1.024 2.007v2.007l1.024 2.007-3.072 6.021-2.007 2.007-4.014 2.048h-2.007l-3.031 1.024h-15.155l-3.031-1.024h-7.373l-3.031-1.024h-3.031l-2.007-1.024h-3.031l-4.014-2.048h-1.024l-1.024-1.024 7.086 24.289 4.014 2.048 3.031 1.024h2.007l2.007 1.024h3.031l3.031 1.024h31.375l3.031-1.024h3.031l6.062-2.048 12.124-8.028 2.007-2.007 2.089-3.4 1.024-3.031 2.007-3.031v-11.141l-11.141-54.641" />
<glyph unicode="&#xe955;" d="M246.825 426.414v0l-1.024 1.024h-13.148l-2.007-1.024h-3.031l-1.024-1.024h-2.007l-1.024-1.024h-0.86l-2.007-1.024-1.024-1.024-1.065-0.942-2.007-1.024-2.048-2.048-2.007-1.024-1.024-1.024v-2.007l-1.024-1.024v-8.192l1.024-2.007 3.031-3.031h2.007l1.024-1.024h5.12l3.031 1.024h2.007l3.031 1.024h2.007l2.007 1.024 1.024 1.024 2.007 1.024 1.024 1.024 1.024 2.007 4.096 4.096v2.007l1.024 3.031 1.024 4.096v2.99l1.024 3.031z" />
<glyph unicode="&#xe956;" d="M56.607 376.852h-28.303l23.265 133.53h48.538l5.038-78.889 33.382 78.889h50.586l-24.289-133.53h-27.32l17.203 100.147h-1.024l-41.411-100.147h-31.375v4.096l-1.024 11.141-1.024 16.384-2.048 36.454-1.024 15.155-1.024 12.288v5.038h-1.024l-17.203-100.147z" />
<glyph unicode="&#xe957;" d="M56.607 376.852h-28.303l23.265 133.53h48.538l5.038-78.889 33.382 78.889h50.586l-24.289-133.53h-27.32l17.203 100.147h-1.024l-41.411-100.147h-31.375v4.096l-1.024 11.141-1.024 16.384-2.048 36.454-1.024 15.155-1.024 12.288v5.038h-1.024l-17.203-100.147" />
<glyph unicode="&#xe958;" d="M777.871 399.094l-4.096-22.241h-25.272v11.96l-1.024-2.007-3.031-3.031-2.007-1.024-2.007-2.007-3.031-1.024-2.007-1.024-6.062-2.048-2.007-1.024h-3.031l-3.031-1.024h-9.093l-2.007 1.024-4.096 1.024-6.062 2.048-3.031 2.007-2.007 1.024-2.007 2.007-1.024 2.007-2.007 2.253-3.072 6.021v2.99l-1.024 2.007v11.141l1.024 3.031 1.024 4.096 1.024 3.031 1.024 4.096 2.007 3.031 2.089 2.007 5.038 5.038 9.093 6.021 3.031 1.024 4.096 1.024 6.062 2.048h4.096l2.007 1.024h8.192l2.007 1.024h17.818l1.024-1.024 1.024 1.024v8.192l-2.048 4.014-3.031 3.031-3.031 1.024h-2.007l-2.007 1.024h-16.384l-3.031-1.024h-5.734l-3.031-1.024h-3.031l-3.031-1.024h-2.007l-3.031-1.024-1.024-1.024h-2.048l-1.024-1.024 7.086 24.289 2.007 1.024 3.031 1.024 2.007 1.024h2.007l3.031 1.024h3.031l2.007 1.024h31.375l3.031-1.024h3.031l6.062-2.048 12.124-8.028 2.007-2.007 4.014-6.062 1.024-3.031v-11.141l-11.141-54.641z" />
<glyph unicode="&#xe959;" d="M773.816 375.869l1.024 1.024 4.096 22.241h-1.024l-4.096-22.241v-1.024h1.024v1.024l-1.024-1.024z" />
<glyph unicode="&#xe95a;" d="M747.52 376.852l1.024-1.024h25.272v2.048h-25.272v-1.024h-1.024v-1.024h1.024l-1.024 1.024z" />
<glyph unicode="&#xe95b;" d="M749.527 387.994l-1.024 1.024v-2.007l-0.983-2.089v-8.192h1.024l1.024 4.096v7.086z" />
<glyph unicode="&#xe95c;" d="M710.123 374.845h14.172l3.031 1.024 2.007 1.024h3.031l3.031 1.024 2.007 2.007 3.031 1.024 2.007 1.024 2.007 2.007 2.007 1.024 3.031 3.031-1.024 1.024-1.024-2.007-4.014-2.048-2.007-2.007-4.014-2.048-3.031-1.024-2.007-1.024-3.031-1.024-2.826-1.147-2.007-1.024h-14.377v-1.024z" />
<glyph unicode="&#xe95d;" d="M684.81 406.221v0-5.038l1.024-2.007v-2.007l1.024-3.031v-2.007l1.024-2.007 2.007-2.007 1.024-2.007 6.021-6.021 3.031-2.007 6.062-2.048 4.096-1.024v1.024l-4.096 1.024-3.031 1.024-3.031 2.007-2.007 1.024-2.007 2.007-2.007 1.024-2.007 2.007-1.024 2.007-1.065 1.679-1.024 2.007-1.024 3.031-1.024 2.007v4.096l-1.024 3.031 1.024 2.007h-1.966z" />
<glyph unicode="&#xe95e;" d="M721.224 445.665v0l-3.031-1.024-4.096-1.024-6.062-2.048-9.093-6.021-5.038-5.038-6.021-9.093-1.024-4.096-1.024-3.031-1.024-4.096v-4.096h2.007v7.209l1.024 4.096 2.007 3.031 1.024 3.031 4.014 6.062 2.212 2.99 6.062 4.014 2.007 2.007 4.096 1.024 3.031 2.007 6.062 2.048h3.031v2.048z" />
<glyph unicode="&#xe95f;" d="M742.482 447.672h-1.024l-1.024-1.024h-10.117l-2.007-1.024h-7.086v-2.048h1.024l1.024 1.024h7.086l1.024 1.024h11.141v2.048z" />
<glyph unicode="&#xe960;" d="M756.654 446.648h-9.093l-2.007 1.024h-3.072v-2.007h15.155l-1.024 1.024z" />
<glyph unicode="&#xe961;" d="M757.678 452.751v0-2.007l-1.024-2.089v-2.007l1.024-1.024v1.024l1.024 2.007v4.096h-1.024z" />
<glyph unicode="&#xe962;" d="M745.513 462.828h2.007l4.014-2.048 2.171-1.024 3.031-3.031v-2.007l1.024-2.007h1.024v2.007l-0.983 3.072-2.007 1.024-1.024 2.007-2.007 2.007h-2.007l-3.031 1.024h-2.212v-1.024z" />
<glyph unicode="&#xe963;" d="M702.013 457.789h2.007l1.024 1.024h2.007l2.007 1.024h2.007l3.236 0.942 3.031 1.024h6.062l3.031 1.024h19.21v1.024h-3.031l-3.031 1.024h-3.154l-3.031-1.024h-10.117l-3.031-1.024h-3.072l-3.031-1.024h-3.031l-2.007-1.024h-2.99l-2.007-1.024-1.024-1.024h-1.065l1.024-1.024z" />
<glyph unicode="&#xe964;" d="M709.099 483.103v0l-7.086-25.272h1.024l7.086 24.289h-1.024v0.983z" />
<glyph unicode="&#xe965;" d="M754.606 488.141h-22.241l-3.031-1.024h-6.062l-2.007-1.024h-3.031l-2.007-1.024h-2.007l-3.031-1.024-2.007-1.024v-1.024l3.031 1.024 2.007 1.024h2.007l3.031 1.024h2.13l3.031 1.024h8.192l3.031 1.024h12.288l3.031-1.024h4.096v2.048z" />
<glyph unicode="&#xe966;" d="M789.995 452.751v0 8.192l-1.024 4.096-2.048 6.062-2.007 3.031-5.038 5.038-6.062 4.014-4.096 1.024-9.093 3.072h-3.031l-2.99 0.86v-2.007h6.062l9.093-3.072 3.031-2.007 3.031-1.024 3.031-2.007 7.045-7.045 2.048-6.062 1.024-4.096v-3.031l-1.024-4.096 2.007-1.024z" />
<glyph unicode="&#xe967;" d="M778.895 399.094v0l11.141 53.617-2.007 1.024-10.158-54.641h1.024z" />
<glyph unicode="&#xe968;" d="M753.582 426.455v0l-1.024 1.024h-3.031l-1.024 1.024h-1.024l-2.007-1.024h-6.062l-2.007-1.024h-3.031l-1.024-1.024h-2.007l-1.024-1.024h-0.86l-2.007-1.024h-1.024l-1.024-1.024-2.007-1.024-1.024-1.024-1.106-0.942-1.024-2.007-1.024-1.024-1.024-2.007v-1.024l-1.024-2.007v-3.031l1.024-3.031 2.048-4.014 1.024-1.024h2.007l2.007-1.024h4.096l3.031 1.024h3.031l10.035 5.12 2.048 2.048 2.007 1.024v2.007l2.048 2.048v2.007l1.024 3.031v2.785l1.024 3.031v3.031z" />
<glyph unicode="&#xe969;" d="M963.994 391.025v2.007l1.024 3.031 1.024 2.007 4.014 4.014 3.031 1.024 2.007 1.024h6.062l2.007-1.024 3.031-1.024 4.014-4.014 1.024-2.007 1.024-3.031v-2.007h-3.031v0.86l-1.024 3.031-1.024 2.007-4.055 4.055-3.031 1.024h-4.096l-3.031-1.024-4.055-4.055-1.024-2.007-1.024-3.031v-1.024z" />
<glyph unicode="&#xe96a;" d="M973.128 391.025v6.062h7.086l1.024-1.024h1.024l1.024-1.024v-1.024l1.024-1.024-1.024-1.024v-1.024h-1.966v1.024h1.024v1.024l-1.024 1.024h-1.024v1.024h-5.038v-4.096z" />
<glyph unicode="&#xe96b;" d="M963.994 391.025v-4.096l1.024-3.031 1.024-2.007 4.014-4.014 3.031-1.024 2.007-1.024h6.062l2.007 1.024 3.031 1.024 4.014 4.014 1.024 2.007 1.024 3.031v4.096h-3.031v-3.031l-1.024-3.031-1.024-2.007-4.055-4.055h-2.744l-2.007-1.024-2.089 0.86h-3.031l-4.055 4.055-1.024 2.007-1.024 3.031v3.195z" />
<glyph unicode="&#xe96c;" d="M973.128 391.025v-7.086h2.007v6.062h3.031l3.031-6.062h2.007l-3.031 6.062h3.031v1.024h-10.076z" />
<glyph unicode="&#xe96d;" d="M963.994 390.001v0 3.031l1.024 3.031 1.024 2.007 4.014 4.014 2.007 1.024 3.031 1.024h6.062l3.031-1.024 2.007-1.024 4.014-4.014 1.024-2.007 1.024-3.031v-6.062l-1.024-3.031-1.024-2.007-4.014-4.014-2.007-1.024-3.031-1.024h-6.062l-3.031 1.024-2.007 1.024-4.014 4.014-1.024 2.007-1.024 3.031v3.031M975.135 383.939h-2.949v12.042h10.117l1.024-1.024v-7.168h-4.096l3.031-5.038h-1.024l-3.031 5.038h-3.031v-4.096M978.207 390.779h4.096v2.13h-6.021v-4.096h2.007M978.289 377.672h2.007l6.021 3.072 3.072 6.021v4.26l-3.072 6.021-5.939 3.031h-4.096l-6.021-3.072-3.072-6.021v-4.014l3.072-6.021 6.021-3.072h2.007" />
<glyph unicode="&#xe96e;" d="M785.981 376.852h28.303l11.141 57.672v2.007l1.024 3.031v2.007l3.072 6.021 2.007 3.031 5.038 5.038 2.007 1.024 9.093 3.072 4.096 1.024h6.062l5.038 26.296h-6.062l-2.007-1.024-3.031-1.024h-2.007l-2.007-1.024-2.007-2.007-4.014-2.048-5.038-5.038-1.024-2.007-2.007-1.024-1.024-2.007-2.007-2.007 3.031 18.227h-28.303l-19.374-109.24z" />
<glyph unicode="&#xe96f;" d="M785.981 376.852h28.303l11.141 57.672v2.007l1.024 3.031v2.007l3.072 6.021 2.007 3.031 5.038 5.038 2.007 1.024 9.093 3.072 4.096 1.024h6.062l5.038 26.296h-6.062l-2.007-1.024-3.031-1.024h-2.007l-2.007-1.024-2.007-2.007-4.014-2.048-5.038-5.038-1.024-2.007-2.007-1.024-1.024-2.007-2.007-2.007 3.031 18.227h-28.303l-19.374-109.24" />
<glyph unicode="&#xe970;" d="M515.891 376.852h29.327l9.093 57.672 1.024 2.007v3.031l1.024 2.007v2.007l3.072 6.021 2.007 1.024 1.024 2.007 4.014 2.048 3.031 2.007h3.031l6.062 2.048h6.922l1.024 1.024v2.007l1.024 2.007v3.031l2.048 6.062 5.12 10.035 1.024 1.024v2.007h1.024v1.188h-11.264l-2.007-1.024-3.031-1.024h-2.007l-4.014-2.048-2.007-2.007-2.007-1.024-3.031-3.031-1.024-2.007-2.007-1.024-1.024-2.007-2.007-2.007-1.024-2.007 3.031 18.227h-29.327l-18.145-109.281z" />
<glyph unicode="&#xe971;" d="M515.891 376.852h29.327l9.093 57.672 1.024 2.007v3.031l1.024 2.007v2.007l3.072 6.021 2.007 1.024 1.024 2.007 4.014 2.048 3.031 2.007h3.031l6.062 2.048h6.922l1.024 1.024v2.007l1.024 2.007v3.031l2.048 6.062 5.12 10.035 1.024 1.024v2.007h1.024v1.188h-11.264l-2.007-1.024-3.031-1.024h-2.007l-4.014-2.048-2.007-2.007-2.007-1.024-3.031-3.031-1.024-2.007-2.007-1.024-1.024-2.007-2.007-2.007-1.024-2.007 3.031 18.227h-29.327l-18.145-109.281" />
<glyph unicode="&#xe972;" d="M963.994 269.619v0l1.024 3.031 1.024 2.007 4.014 4.014 3.031 1.024 2.007 1.024h6.062l2.007-1.024 3.031-1.024 4.014-4.014 1.024-2.007 1.024-3.031h-3.031l-2.048 4.014-4.055 4.055-3.031 1.024h-4.096l-3.031-1.024-4.055-4.055-2.048-4.014z" />
<glyph unicode="&#xe973;" d="M973.128 269.66v3.031h9.093v-1.024h1.024v-1.024l1.024-1.024h-2.007l-2.048 2.048h-5.038v-2.007z" />
<glyph unicode="&#xe974;" d="M963.994 266.629v3.031h3.031v-3.031z" />
<glyph unicode="&#xe975;" d="M973.128 266.629v3.031h2.007v-2.007h6.062v1.024h1.024v0.983h2.007l-1.024-1.024v-2.048z" />
<glyph unicode="&#xe976;" d="M989.307 266.629v3.031h3.031v-3.031z" />
<glyph unicode="&#xe977;" d="M963.994 266.629v0-3.031l1.024-3.031 1.024-2.007 4.014-4.014 3.031-1.024 2.007-1.024h6.062l2.007 1.024 3.031 1.024 4.014 4.014 1.024 2.007 1.024 3.031v3.031h-3.031v-2.007l-1.024-3.031-1.024-1.024-1.024-2.007-3.031-3.031h-2.744l-2.007-1.024-2.007 1.024h-3.031l-3.031 3.031-1.024 2.007-1.024 1.024-1.024 3.031v2.007h-3.236z" />
<glyph unicode="&#xe978;" d="M973.128 266.629v-5.038h2.007v5.038h3.031l3.031-5.038h2.007l-3.031 5.038h-7.045z" />
<glyph unicode="&#xe979;" d="M518.922 453.734l-1.024 6.062-4.014 10.076-3.031 4.096-3.031 3.031-2.007 3.031-4.096 3.031-8.192 4.014-4.096 1.024h-20.234l-7.086-1.024-7.086-2.007-6.062-3.031-5.038-3.031-4.096-3.031-5.038-4.096-6.062-8.192-2.007-4.096-2.007-5.038-2.007-4.096-3.072-12.288v-3.031l-1.024-8.192v-7.086l1.024-7.086 2.007-6.062 2.007-5.038 3.031-5.038 3.031-4.096 8.192-6.062 5.038-3.031 10.076-4.014 15.114-3.072h29.327l2.007 1.024h2.007l8.028 4.096 4.096 25.272-6.062-4.014-2.744-0.614h-4.096l-3.031-1.024-2.007-1.024-3.031-1.024h-29.327l-2.007 1.024 1.024 2.007-4.014 2.048-2.007 2.007-6.144 12.042v7.086h65.741l1.024 6.062 2.007 8.192 1.024 8.192zM490.619 443.617h-37.437v3.031l6.144 12.042 2.048 2.048 8.028 4.096h12.288l6.021-3.072 3.072-3.072 3.072-6.021v-6.062z" />
<glyph unicode="&#xe97a;" d="M445.257 286.281h-88.539l55.735 320.841h89.637z" />
<glyph unicode="&#xe97b;" d="M309.321 607.122l-85.248-220.709-9.838 46.994-29.513 144.091s-3.291 28.599-42.642 28.599h-139.886l-2.194-5.12c35.149-8.316 66.135-20.973 94.471-37.651l-1.58 0.86 77.605-277.943h92.818l142.080 319.817h-96.183z" />
<glyph unicode="&#xe97c;" d="M942.007 286.281h81.957l-71.022 319.744h-72.119c-1.132 0.108-2.447 0.17-3.776 0.17-16.516 0-30.804-9.537-37.659-23.404l-0.11-0.245-132.242-296.265h92.891l18.578 48.018h113.664zM843.63 399.653l46.994 119.515 26.222-119.515z" />
<glyph unicode="&#xe97d;" d="M738.414 529.627l13.129 68.608c-23.695 8.407-51.039 13.598-79.493 14.329l-0.343 0.007c-44.8 0-149.723-18.286-149.723-106.496 0-82.944 123.502-84.114 123.502-126.976 0-43.886-110.373-35.84-147.566-8.192l-13.129-71.68c28.237-11.602 61.014-18.338 95.364-18.338 1.818 0 3.632 0.019 5.441 0.056l-0.27-0.004c61.221 0 153.015 29.696 153.015 109.714 0 82.944-124.599 91.136-124.599 128 0.073 35.401 86.382 30.427 124.672 10.971z" />
<glyph unicode="&#xe97e;" d="M214.235 421.303l-29.513 154.112c-3.373 17.753-18.768 30.995-37.256 30.995-1.9 0-3.768-0.14-5.593-0.41l0.207 0.025h-139.886l-2.194-5.449c50.877-13.305 95.181-36.333 132.858-67.158l-0.615 0.488c36.622-28.974 64.84-67.045 81.408-110.839l0.586-1.764z" />
<glyph unicode="&#xe97f;" glyph-name="cart" d="M921.6 729.6h-153.6v102.4c0 0.107 0.001 0.233 0.001 0.359 0 56.356-45.686 102.042-102.042 102.042-0.126 0-0.252 0-0.379-0.001h-307.18c-0.107 0-0.233 0.001-0.359 0.001-56.356 0-102.042-45.686-102.042-102.042 0-0.126 0-0.252 0.001-0.379v0.020-102.4h-153.6c-0.107 0-0.233 0.001-0.359 0.001-56.356 0-102.042-45.686-102.042-102.042 0-0.126 0-0.252 0.001-0.379v0.020-563.2c0-0.107-0.001-0.233-0.001-0.359 0-56.356 45.686-102.042 102.042-102.042 0.126 0 0.252 0 0.379 0.001h819.18c0.107 0 0.233-0.001 0.359-0.001 56.356 0 102.042 45.686 102.042 102.042 0 0.126 0 0.252-0.001 0.379v-0.020 563.2c0 0.107 0.001 0.233 0.001 0.359 0 56.356-45.686 102.042-102.042 102.042-0.126 0-0.252 0-0.379-0.001h0.020zM358.4 832h307.2v-102.4h-307.2zM921.6 64h-819.2v102.4h819.2zM921.6 320h-819.2v307.2h153.6v-102.4h102.4v102.4h307.2v-102.4h102.4v102.4h153.6z" />
<glyph unicode="&#xe980;" glyph-name="check" d="M339.149 215.757l-254.362 254.259-84.787-84.787 339.149-339.149 727.040 727.040-85.197 84.48z" />
<glyph unicode="&#xe981;" glyph-name="check-r" d="M512 960c-282.77 0-512-229.23-512-512s229.23-512 512-512c282.77 0 512 229.23 512 512v0c0 282.77-229.23 512-512 512v0zM409.6 192l-256 256 72.192 72.192 183.808-183.296 388.608 388.608 72.192-72.704z" />
<glyph unicode="&#xe982;" glyph-name="crose" d="M512 960c-282.77 0-512-229.23-512-512s229.23-512 512-512c282.77 0 512 229.23 512 512v0c0 0.137 0 0.299 0 0.461 0 282.515-229.024 511.539-511.539 511.539-0.162 0-0.325 0-0.487 0h0.026zM768 264.192l-72.192-72.192-183.808 183.808-183.808-183.808-72.192 72.192 183.808 183.808-183.808 183.808 72.192 72.192 183.808-183.808 183.808 183.808 72.192-72.192-183.808-183.808z" />
<glyph unicode="&#xe983;" glyph-name="date" d="M884.364 866.909h-46.545v93.091h-93.091v-93.091h-465.455v93.091h-93.091v-93.091h-46.545c-51.349-0.158-92.933-41.742-93.091-93.076v-744.742c0.158-51.349 41.742-92.933 93.076-93.091h744.742c51.349 0.158 92.933 41.742 93.091 93.076v744.742c-0.158 51.349-41.742 92.933-93.076 93.091h-0.015zM884.364 29.091h-744.727v605.091h744.727z" />
<glyph unicode="&#xe984;" glyph-name="delete" d="M256 149.333c0.145-47.070 38.264-85.188 85.319-85.333h341.347c47.070 0.145 85.188 38.264 85.333 85.319v512.014h-512zM341.333 576h341.333v-426.667h-341.333zM661.333 789.333l-42.667 42.667h-213.333l-42.667-42.667h-149.333v-85.333h597.333v85.333z" />
<glyph unicode="&#xe985;" glyph-name="dolar" d="M512 874.667c-235.641 0-426.667-191.025-426.667-426.667s191.025-426.667 426.667-426.667c235.641 0 426.667 191.025 426.667 426.667v0c0 235.641-191.025 426.667-426.667 426.667v0zM572.16 188.16v-81.493h-113.92v82.347c-74.958 9.168-133.326 69.438-139.482 144.497l-0.038 0.569h83.627c4.267-44.8 34.987-79.787 113.067-79.787 83.627 0 102.4 41.813 102.4 67.84 0 35.413-18.773 68.693-113.92 91.307-105.813 25.6-178.347 69.12-178.347 156.587 0 73.387 59.307 121.173 132.693 136.96v82.347h113.92v-83.2c68.71-13.912 119.967-73.060 121.597-144.467l0.003-0.173h-83.627c-2.133 47.36-27.307 79.787-94.72 79.787-64 0-102.4-29.013-102.4-69.973 0-35.84 27.733-59.307 113.92-81.493s178.347-59.307 178.347-166.827c-0.427-78.080-58.88-120.747-133.12-134.827z" />
<glyph unicode="&#xe986;" glyph-name="down1" d="M120.32 746.667l391.68-390.827 391.68 390.827 120.32-120.32-512-512-512 512z" />
<glyph unicode="&#xe988;" d="M18.286 777.143h987.429c10.099 0 18.286-8.187 18.286-18.286v-621.714c0-10.099-8.187-18.286-18.286-18.286h-987.429c-10.099 0-18.286 8.187-18.286 18.286v621.714c0 10.099 8.187 18.286 18.286 18.286z" />
<glyph unicode="&#xe989;" d="M73.143 704h877.714v-512h-877.714v512z" />
<glyph unicode="&#xe98a;" d="M660.882 518.875l290.011 162.341v22.784h-20.005l-330.679-185.125z" />
<glyph unicode="&#xe98b;" d="M647.131 366.811l303.543-169.911v33.975l-243.017 135.936z" />
<glyph unicode="&#xe98c;" d="M73.143 664.978l259.657-146.286h60.709l-320.512 180.151z" />
<glyph unicode="&#xe98d;" d="M379.941 366.811l-306.761-171.886v-2.962h55.369l312.064 174.811z" />
<glyph unicode="&#xe98e;" d="M890.807 704h-307.2v-172.142z" />
<glyph unicode="&#xe98f;" d="M447.781 704h-306.066l306.066-172.142z" />
<glyph unicode="&#xe990;" d="M950.894 518.912v117.467l-208.457-117.467z" />
<glyph unicode="&#xe991;" d="M950.894 250.661v116.151h-208.457z" />
<glyph unicode="&#xe992;" d="M159.086 192h288.695v161.829z" />
<glyph unicode="&#xe993;" d="M583.497 192h289.609l-289.609 161.829z" />
<glyph unicode="&#xe994;" d="M73.143 366.811v-121.381l215.771 121.381z" />
<glyph unicode="&#xe995;" d="M73.143 518.875h215.771l-215.771 121.637z" />
<glyph unicode="&#xe996;" d="M474.917 704v-215.552h-401.774v-91.246h401.774v-205.239h81.445v205.239h394.496v91.246h-394.496v215.552z" />
<glyph unicode="&#xe997;" glyph-name="favorite" d="M512 49.067l-61.867 56.32c-219.733 199.253-364.8 330.667-364.8 491.947-0.007 0.676-0.011 1.474-0.011 2.272 0 128.354 104.051 232.405 232.405 232.405 0.799 0 1.597-0.004 2.394-0.012l-0.122 0.001c76.707-0.604 145.281-34.919 191.719-88.84l0.281-0.334c46.719 54.255 115.293 88.57 191.895 89.173l0.105 0.001c0.676 0.007 1.474 0.011 2.272 0.011 128.354 0 232.405-104.051 232.405-232.405 0-0.799-0.004-1.597-0.012-2.394l0.001 0.122c0-161.28-145.067-292.693-364.8-492.373z" />
<glyph unicode="&#xe998;" d="M226.966 341.146l-35.662-133.038-130.254-2.784c-38.425 70.193-61.025 153.782-61.025 242.65 0 86.017 21.173 167.090 58.593 238.289l-1.346-2.811 116.002-21.278 50.776-115.273c-10.392-29.444-16.397-63.397-16.397-98.753 0-38.336 7.059-75.024 19.949-108.833l-0.702 2.097z" />
<glyph unicode="&#xe999;" d="M1015.051 543.652c5.736-28.76 9.019-61.825 9.019-95.656 0-161.013-74.353-304.66-190.597-398.48l-0.976-0.762-145.831 7.424-20.682 129.061c59.965 35.564 105.88 89.405 130.609 153.753l0.705 2.087h-273.765v202.573h491.782z" />
<glyph unicode="&#xe99a;" d="M832.563 48.688v0c-86.927-70.209-198.776-112.705-320.55-112.705-193.918 0-362.666 107.764-449.625 266.672l-1.338 2.669 165.717 135.822c44.566-116.398 155.363-197.545 285.113-197.545 56.649 0 109.685 15.468 155.114 42.411l-1.408-0.773z" />
<glyph unicode="&#xe99b;" d="M838.861 842.142l-165.717-135.822c-45.711 28.894-101.344 46.042-160.983 46.042-132.696 0-245.564-84.892-287.258-203.329l-0.654-2.132-166.778 136.551c87.124 165.515 257.945 276.441 454.675 276.441 124.574 0 238.759-44.478 327.542-118.42l-0.827 0.67z" />
<glyph unicode="&#xe99c;" glyph-name="help" d="M512 960c-282.77 0-512-229.23-512-512s229.23-512 512-512c282.77 0 512 229.23 512 512v0c0 282.77-229.23 512-512 512v0zM563.2 89.6h-102.4v102.4h102.4zM669.184 486.4l-46.080-47.104c-37.078-32.105-60.395-79.245-60.395-131.832 0-4.598 0.178-9.154 0.528-13.662l-0.037 0.597h-102.4v25.6c0.104 56.547 22.967 107.734 59.914 144.906l-0.010-0.010 63.488 64.512c18.646 18.197 30.209 43.578 30.209 71.659 0 0.187-0.001 0.374-0.002 0.561v-0.029c0 56.554-45.846 102.4-102.4 102.4s-102.4-45.846-102.4-102.4v0h-102.4c0 113.108 91.692 204.8 204.8 204.8s204.8-91.692 204.8-204.8v0c0-0.030 0-0.066 0-0.101 0-44.938-18.194-85.627-47.618-115.101l0.002 0.002z" />
<glyph unicode="&#xe99d;" glyph-name="icon1" d="M938.667 682.667v170.667c0 47.128-38.205 85.333-85.333 85.333v0h-682.667c-46.898-0.024-84.908-38.048-84.908-84.949 0-0.135 0-0.27 0.001-0.405v0.021-170.667c47.037-0.121 85.12-38.28 85.12-85.333 0-47.128-38.205-85.334-85.334-85.334-0.075 0-0.15 0-0.225 0h0.012v-170.667c0.145-47.070 38.264-85.188 85.319-85.333h682.681c47.070 0.145 85.188 38.264 85.333 85.319v170.681c-47.128 0-85.333 38.205-85.333 85.333s38.205 85.333 85.333 85.333v0zM554.667 362.667h-85.333v85.333h85.333zM554.667 554.667h-85.333v85.333h85.333zM554.667 746.667h-85.333v85.333h85.333z" />
<glyph unicode="&#xe99e;" glyph-name="icon3" d="M993.792 469.504l-460.8 460.8c-18.404 18.35-43.8 29.697-71.847 29.697-0.121 0-0.243 0-0.364-0.001h-358.381c-56.484-0.174-102.226-45.916-102.4-102.383v-358.417c0-0.053 0-0.115 0-0.177 0-28.354 11.55-54.010 30.202-72.521l460.806-460.806c18.404-18.35 43.8-29.697 71.847-29.697 0.121 0 0.243 0 0.364 0.001h-0.019c0.155-0.001 0.338-0.001 0.522-0.001 28.085 0 53.469 11.564 71.651 30.189l0.019 0.020 358.4 358.4c18.646 18.201 30.209 43.585 30.209 71.67 0 0.183 0 0.367-0.001 0.55v-0.028c-0.097 28.393-11.621 54.076-30.21 72.706l0.002-0.002zM179.2 704c-42.415 0-76.8 34.385-76.8 76.8s34.385 76.8 76.8 76.8c42.415 0 76.8-34.385 76.8-76.8v0c0-42.415-34.385-76.8-76.8-76.8v0z" />
<glyph unicode="&#xe99f;" glyph-name="icon-4-mobile" d="M738.234 959.535l-460.032 0.465c-50.912-0.422-92.021-41.791-92.021-92.762 0-0.067 0-0.133 0-0.2v0.010-836.585c0-0.056 0-0.123 0-0.189 0-50.971 41.109-92.34 91.981-92.762h460.072c50.912 0.422 92.021 41.791 92.021 92.762 0 0.067 0 0.133 0 0.2v-0.010 836.585c0 0.042 0 0.091 0 0.14 0 50.887-41.159 92.16-92.003 92.346h-0.018zM738.234 123.415h-460.032v650.682h460.032z" />
<glyph unicode="&#xe9a0;" d="M0 453.955h258.991v-517.955h-258.991v517.955z" />
<glyph unicode="&#xe9a1;" d="M129.482 960h0.027c71.511 0 129.482-57.971 129.482-129.482v-0.027c0-71.511-57.971-129.482-129.482-129.482h-0.027c-71.511 0-129.482 57.971-129.482 129.482v0.027c0 71.511 57.971 129.482 129.482 129.482z" />
<glyph unicode="&#xe9a2;" d="M765.009 194.991h258.991v-258.991h-258.991v258.991z" />
<glyph unicode="&#xe9a3;" d="M1024 960v-517.955l-517.955 517.955z" />
<glyph unicode="&#xe9a4;" d="M765.036 701.036h-258.991v258.991z" />
<glyph unicode="&#xe9a5;" d="M1024.027 442.045h-258.991v258.991z" />
<glyph unicode="&#xe9a6;" d="M0 453.955h258.991v-517.955h-258.991v517.955z" />
<glyph unicode="&#xe9a7;" d="M129.482 960h0.027c71.511 0 129.482-57.971 129.482-129.482v-0.027c0-71.511-57.971-129.482-129.482-129.482h-0.027c-71.511 0-129.482 57.971-129.482 129.482v0.027c0 71.511 57.971 129.482 129.482 129.482z" />
<glyph unicode="&#xe9a8;" d="M765.009 194.991h258.991v-258.991h-258.991v258.991z" />
<glyph unicode="&#xe9a9;" d="M1024 960v-517.955l-517.955 517.955z" />
<glyph unicode="&#xe9aa;" d="M765.036 701.036h-258.991v258.991z" />
<glyph unicode="&#xe9ab;" d="M1024.027 442.045h-258.991v258.991z" />
<glyph unicode="&#xe9ad;" glyph-name="offer1" d="M921.6 729.6h-111.616c5.651 15.335 8.92 33.045 8.92 51.519 0 84.633-68.609 153.242-153.242 153.242-53.307 0-100.257-27.219-127.71-68.517l-0.353-0.564-25.6-34.304-25.6 34.816c-27.793 42.024-74.841 69.364-128.275 69.364-84.661 0-153.293-68.632-153.293-153.293 0-18.751 3.367-36.717 9.529-53.324l-0.345 1.061h-111.616c-0.077 0-0.168 0-0.259 0-56.13 0-101.632-45.502-101.632-101.632 0-0.27 0.001-0.54 0.003-0.81v0.041l-0.512-563.2c0-0.107-0.001-0.233-0.001-0.359 0-56.356 45.686-102.042 102.042-102.042 0.126 0 0.252 0 0.379 0.001h819.18c0.107 0 0.233-0.001 0.359-0.001 56.356 0 102.042 45.686 102.042 102.042 0 0.126 0 0.252-0.001 0.379v-0.020 563.2c0 0.107 0.001 0.233 0.001 0.359 0 56.356-45.686 102.042-102.042 102.042-0.126 0-0.252 0-0.379-0.001h0.020zM665.6 832c28.277 0 51.2-22.923 51.2-51.2s-22.923-51.2-51.2-51.2c-28.277 0-51.2 22.923-51.2 51.2v0c0 28.277 22.923 51.2 51.2 51.2v0zM358.4 832c28.277 0 51.2-22.923 51.2-51.2s-22.923-51.2-51.2-51.2c-28.277 0-51.2 22.923-51.2 51.2v0c0 28.277 22.923 51.2 51.2 51.2v0zM921.6 64h-819.2v102.4h819.2zM921.6 320h-819.2v307.2h260.096l-106.496-144.896 82.944-59.904 173.056 235.52 173.056-235.52 82.944 59.904-106.496 144.896h260.096z" />
<glyph unicode="&#xe9ae;" glyph-name="go-left" d="M184.32 445.092l520.438 514.908 134.922-133.489-385.516-381.42 385.516-381.46-134.922-133.489z" />
<glyph unicode="&#xe9af;" glyph-name="phone1" d="M205.938 516.836c84.054-162.004 212.892-290.843 370.119-372.635l4.779-2.262 125.156 125.156c10.237 10.254 24.387 16.597 40.020 16.597 6.443 0 12.635-1.078 18.405-3.063l-0.398 0.119c60.475-20.56 130.136-32.427 202.569-32.427 0.184 0 0.369 0 0.553 0h-0.029c31.419 0 56.889-25.47 56.889-56.889v0-198.542c0-31.419-25.47-56.889-56.889-56.889v0c-534.121 0-967.111 432.99-967.111 967.111v0c0 31.419 25.47 56.889 56.889 56.889v0h199.111c31.419 0 56.889-25.47 56.889-56.889v0c0-0.282-0.001-0.617-0.001-0.951 0-72.285 11.868-141.798 33.761-206.698l-1.334 4.556c1.747-5.224 2.755-11.238 2.755-17.488 0-15.865-6.494-30.214-16.97-40.532l-0.007-0.007z" />
<glyph unicode="&#xe9b0;" glyph-name="play1" d="M511.987 960c-282.777 0-512.013-229.236-512.013-512.013s229.236-512.013 512.013-512.013c282.777 0 512.013 229.236 512.013 512.013 0 0.009 0 0.018 0 0.027v-0.002c-0.116 282.725-229.286 511.885-512.003 511.987h-0.010zM409.61 217.62v460.786l307.259-230.393z" />
<glyph unicode="&#xe9b1;" glyph-name="email1" d="M938.667 704c-0.145 47.070-38.264 85.188-85.319 85.333h-682.681c-47.070-0.145-85.188-38.264-85.333-85.319v-512.014c0.145-47.070 38.264-85.188 85.319-85.333h682.681c47.070 0.145 85.188 38.264 85.333 85.319v0.014zM853.333 704l-341.333-213.333-341.333 213.333zM853.333 192h-682.667v426.667l341.333-213.333 341.333 213.333z" />
<glyph unicode="&#xe9b2;" glyph-name="print" d="M870.4 652.8h-716.8c-84.831 0-153.6-68.769-153.6-153.6v0-307.2h204.8v-204.8h614.4v204.8h204.8v307.2c0 84.831-68.769 153.6-153.6 153.6v0zM716.8 89.6h-409.6v256h409.6zM870.4 448c-28.277 0-51.2 22.923-51.2 51.2s22.923 51.2 51.2 51.2c28.277 0 51.2-22.923 51.2-51.2v0c0-28.277-22.923-51.2-51.2-51.2v0zM819.2 908.8h-614.4v-204.8h614.4z" />
<glyph unicode="&#xe9b3;" glyph-name="search" d="M731.847 315.975h-46.253l-16.393 15.808c57.13 66.262 91.923 153.187 91.923 248.239 0 210.501-170.645 381.146-381.146 381.146s-381.146-170.645-381.146-381.146c0-210.501 170.645-381.146 381.146-381.146 95.051 0 181.976 34.794 248.733 92.34l-0.494-0.417 15.808-16.393v-46.253l292.739-292.153 87.236 87.236zM380.56 315.975c-145.508 0-263.465 117.957-263.465 263.465s117.957 263.465 263.465 263.465c145.508 0 263.465-117.957 263.465-263.465v0c0-0.105 0-0.228 0-0.352 0-145.314-117.8-263.114-263.114-263.114-0.124 0-0.247 0-0.371 0h0.019z" />
<glyph unicode="&#xe9b4;" glyph-name="social-facebook" d="M582.387 615.828v125.144c0 0.032 0 0.070 0 0.108 0 34.568 28.008 62.595 62.569 62.626h62.575v156.295h-125.144c-103.672 0-187.715-84.043-187.715-187.715v0-156.295h-125.197v-156.295h125.144v-500.628h187.715v500.305h125.144l62.572 156.295z" />
<glyph unicode="&#xe9b5;" glyph-name="pay-now1" d="M760.525 620.954h-41.523v96.87c0 133.683-93.030 242.176-207.616 242.176s-207.616-108.493-207.616-242.176v-96.87h-41.523c-46.817-4.135-83.256-43.162-83.256-90.701 0-2.171 0.076-4.324 0.225-6.457l-0.016 0.287v-484.352c-0.133-1.846-0.209-3.999-0.209-6.17 0-47.538 36.439-86.566 82.909-90.676l0.346-0.025h498.278c46.817 4.135 83.256 43.162 83.256 90.701 0 2.171-0.076 4.324-0.225 6.457l0.016-0.287v484.352c0.133 1.846 0.209 3.999 0.209 6.17 0 47.538-36.439 86.566-82.909 90.676l-0.346 0.025zM511.386 185.037c-46.817 4.135-83.256 43.162-83.256 90.701 0 2.171 0.076 4.324 0.225 6.457l-0.016-0.287c-0.133 1.846-0.209 3.999-0.209 6.17 0 47.538 36.439 86.566 82.909 90.676l0.346 0.025c46.817-4.135 83.256-43.162 83.256-90.701 0-2.171-0.076-4.324-0.225-6.457l0.016 0.287c0.133-1.846 0.209-3.999 0.209-6.17 0-47.538-36.439-86.566-82.909-90.676l-0.346-0.025zM640 620.954h-257.331v96.87c-0.213 2.904-0.335 6.291-0.335 9.707 0 73.626 56.512 134.053 128.526 140.272l0.526 0.037c72.493-6.306 128.95-66.71 128.95-140.3 0-3.419-0.122-6.809-0.361-10.167l0.026 0.451z" />
<glyph unicode="&#xe9b6;" glyph-name="apple" d="M112.777 572.314c-89.156-154.692-32.495-389.53 66.082-531.866 49.22-71.202 99.055-135.031 167.253-135.031h3.755c28.558 1.834 54.994 9.195 78.822 21.020l-1.203-0.54c26.828 13.477 58.422 21.486 91.859 21.776l0.096 0.001c31.954-0.312 62.024-8.070 88.654-21.619l-1.136 0.524c24.278-12.482 52.976-19.799 83.383-19.799 0.302 0 0.603 0.001 0.904 0.002h-0.047c76.868 1.434 124.041 70.383 165.683 131.209 29.463 42.762 54.11 92.010 71.461 144.576l1.175 4.109v0.956c0.278 0.812 0.438 1.748 0.438 2.721 0 3.461-2.027 6.448-4.959 7.838l-0.053 0.022h-0.614c-78.966 34.484-133.218 111.766-133.529 201.756v0.040c1.106 79.789 43.249 149.498 106.236 189.092l0.943 0.553 0.819 0.546c2.396 1.569 3.957 4.241 3.957 7.277 0 1.82-0.561 3.509-1.519 4.904l0.019-0.029c-44.102 62.75-115.16 103.979-195.983 106.758l-0.421 0.011c-5.598 0.546-11.332 0.819-17.135 0.819-45.075-2.723-86.936-13.763-124.974-31.602l2.094 0.882c-17.13-8.404-37.013-14.585-57.944-17.495l-1.039-0.118c-22.669 2.762-43.286 9.045-62.165 18.322l1.135-0.504c-31.421 15.058-68.046 24.871-106.679 27.265l-0.841 0.042h-2.731c-95.014-3.016-177.040-55.844-221.117-133.12l-0.681-1.297zM705.604 960c-63.746-6.153-119.458-36.327-158.754-81.231l-0.239-0.279c-35.833-39.731-57.754-92.615-57.754-150.619 0-5.854 0.223-11.655 0.662-17.397l-0.047 0.763c0.549-4.046 3.822-7.179 7.888-7.507l0.031-0.002c3.686 0 7.441-0.41 11.196-0.41 60.919 2.912 114.467 32.161 149.871 76.526l0.316 0.41c35.188 41.211 56.599 95.111 56.599 154.012 0 6.366-0.25 12.673-0.741 18.913l0.052-0.825c-0.524 4.333-4.179 7.659-8.611 7.659-0.165 0-0.329-0.005-0.491-0.014l0.023 0.001z" />
<glyph unicode="&#xe9b7;" glyph-name="clip" d="M448-64c-1.677-0.054-3.649-0.085-5.628-0.085-100.74 0-182.823 79.881-186.363 179.758l-0.009 0.323v603.989c8.772 134.523 120.032 240.313 256 240.313s247.228-105.79 255.96-239.55l0.040-0.763v-603.989h-64v603.989c-6.693 100.799-90.094 180.026-192 180.026s-185.307-79.226-191.969-179.445l-0.031-0.581v-603.989c4.61-67.079 60.155-119.746 128-119.746s123.39 52.667 127.978 119.348l0.022 0.399v484.011c-2.074 33.728-29.934 60.296-64 60.296s-61.926-26.568-63.991-60.114l-0.009-0.181v-484.011h-64v484.011c4.61 67.079 60.155 119.746 128 119.746s123.39-52.667 127.978-119.348l0.022-0.399v-484.011c-3.549-100.2-85.632-180.081-186.372-180.081-1.979 0-3.951 0.031-5.915 0.092l0.287-0.007z" />
<glyph unicode="&#xe9b8;" glyph-name="about" d="M512 960c-282.77 0-512-229.23-512-512s229.23-512 512-512c282.77 0 512 229.23 512 512v0c0 282.77-229.23 512-512 512v0zM563.2 192h-102.4v307.2h102.4zM563.2 601.6h-102.4v102.4h102.4z" />
<glyph unicode="&#xe9b9;" glyph-name="apple1" horiz-adv-x="837" d="M43.219 583.557c-86.571-150.206-31.553-378.233 64.166-516.441 47.793-69.137 96.182-131.115 162.403-131.115h3.646c27.73 1.781 53.399 8.928 76.536 20.411l-1.168-0.524c26.050 13.086 56.728 20.863 89.195 21.145l0.093 0.001c31.027-0.303 60.225-7.836 86.083-20.992l-1.103 0.509c23.574-12.12 51.44-19.225 80.965-19.225 0.293 0 0.586 0.001 0.878 0.002h-0.045c74.639 1.392 120.443 68.342 160.878 127.403 28.609 41.522 52.54 89.342 69.389 140.383l1.141 3.99v0.928c0.27 0.789 0.425 1.697 0.425 2.642 0 3.36-1.969 6.261-4.815 7.611l-0.051 0.022h-0.597c-76.676 33.484-129.355 108.525-129.657 195.905v0.039c1.074 77.475 41.995 145.162 103.155 183.608l0.915 0.537 0.795 0.53c2.327 1.523 3.843 4.118 3.843 7.066 0 1.767-0.544 3.407-1.475 4.761l0.019-0.029c-42.823 60.93-111.821 100.963-190.299 103.662l-0.408 0.011c-5.436 0.53-11.004 0.795-16.638 0.795-43.768-2.644-84.415-13.364-121.35-30.686l2.034 0.857c-16.633-8.16-35.94-14.162-56.263-16.987l-1.009-0.115c-22.011 2.682-42.030 8.783-60.363 17.79l1.102-0.489c-30.51 14.621-66.072 24.15-103.585 26.474l-0.817 0.040h-2.651c-92.258-2.928-171.906-54.225-214.705-129.26l-0.661-1.259zM618.854 960c-61.897-5.975-115.994-35.274-154.15-78.875l-0.232-0.271c-34.793-38.579-56.079-89.929-56.079-146.251 0-5.684 0.217-11.317 0.643-16.892l-0.045 0.741c0.533-3.929 3.712-6.971 7.659-7.29l0.030-0.002c3.579 0 7.225-0.398 10.871-0.398 59.153 2.828 111.148 31.228 145.524 74.307l0.307 0.398c34.168 40.016 54.958 92.353 54.958 149.546 0 6.181-0.243 12.306-0.719 18.364l0.051-0.801c-0.508 4.208-4.058 7.436-8.361 7.436-0.16 0-0.319-0.004-0.477-0.013l0.022 0.001z" />
<glyph unicode="&#xe9ba;" horiz-adv-x="1593" d="M28.444 960h1536c15.709 0 28.444-12.735 28.444-28.444v-967.111c0-15.709-12.735-28.444-28.444-28.444h-1536c-15.709 0-28.444 12.735-28.444 28.444v967.111c0 15.709 12.735 28.444 28.444 28.444z" />
<glyph unicode="&#xe9bb;" horiz-adv-x="1593" d="M113.778 846.222h1365.333v-796.444h-1365.333v796.444z" />
<glyph unicode="&#xe9bc;" horiz-adv-x="1593" d="M500.167 620.43c-1.365-18.603-3.072-51.2 12.8-54.727 19.115-1.82 8.533 32.37 15.474 38.571 1.308 3.072 3.698 3.072 3.925-0.796v-29.013c-0.007-0.169-0.012-0.368-0.012-0.568 0-6.613 4.605-12.15 10.783-13.579l0.094-0.018c5.006 0.398 8.363 0 10.354-4.665q1.138-25.088 2.332-50.176s11.378-3.356 12.174 28.444c-0.852 8.493-1.338 18.355-1.338 28.33 0 3.261 0.052 6.51 0.155 9.746l-0.012-0.472c0 3.584 4.608 3.812 7.737 2.048 5.006-3.527 7.225-7.851 15.019-6.144 11.833 3.3 18.887 9.045 19.115 18.091-0.365 9.399-2.295 18.243-5.537 26.426l0.189-0.541c0.512 1.536-2.332 5.689-1.764 7.168 2.105-3.3 5.348-3.015 6.087 0-1.373 6.519-5.045 12.010-10.11 15.707l-0.074 0.051c-4.21 3.698-10.354 2.901-12.572-4.779-0.010-0.342-0.016-0.745-0.016-1.149 0-10.218 3.66-19.581 9.741-26.849l-0.054 0.066c1.612-3.376 2.554-7.337 2.554-11.518 0-0.852-0.039-1.695-0.116-2.527l0.008 0.107c-1.089-0.658-2.403-1.047-3.809-1.047-2.405 0-4.543 1.139-5.906 2.907l-0.013 0.017s-9.444 7.054-9.444 8.59c0.928 2.958 1.463 6.359 1.463 9.885 0 4.446-0.85 8.694-2.397 12.59l0.081-0.231c-1.188 4.718-3.337 8.825-6.239 12.278l0.038-0.047c-2.332 2.503-5.689 2.503-7.054 0-1.456-4.092-2.298-8.812-2.298-13.729 0-5.715 1.137-11.163 3.197-16.133l-0.103 0.279c2.162-6.372 5.689-10.411 3.925-10.411-1.308-3.584-3.982-2.788-5.689 1.365-2.136 7.809-3.363 16.775-3.363 26.028 0 0.41 0.002 0.819 0.007 1.227l-0.001-0.062c-0.796 7.168-1.764 22.471-6.485 26.283-2.844 3.925-7.111 2.048-8.647-1.536-0.125-2.141-0.196-4.646-0.196-7.167 0-4.789 0.257-9.519 0.759-14.175l-0.050 0.577c2.479-9.474 4.486-20.842 5.616-32.466l0.073-0.927c0.455-15.701-9.102-6.827-8.647 1.024 0.921 4.295 1.449 9.23 1.449 14.288 0 5.625-0.652 11.097-1.886 16.345l0.096-0.482c-1.536 4.039-3.356 5.006-7.168 4.38s-10.695-8.192-12.857-22.187c-0.973-3.63-1.888-8.217-2.542-12.888l-0.075-0.651c-1.081-7.225-5.689-12.288-9.159 1.024-2.901 9.671-4.665 33.451-9.444 27.876z" />
<glyph unicode="&#xe9bd;" horiz-adv-x="1593" d="M552.107 544.142c-17.067-8.249-33.166-15.929-49.778-23.893 6.533 16.765 21.263 29.019 39.132 31.932l0.292 0.039c10.24-0.284 7.68-3.982 10.354-8.021z" />
<glyph unicode="&#xe9be;" horiz-adv-x="1593" d="M615.708 649.5c-0.967 0-1.991-0.683-3.186-0.967-4.054-1.144-6.976-4.81-6.976-9.159 0-0.787 0.096-1.553 0.276-2.284l-0.014 0.065c4.779-29.241 7.964-51.2 12.743-80.668 0.74-3.47-2.105-7.964-5.689-7.509-6.315 4.267-7.851 12.857-18.546 12.516-8.903-1.246-15.949-7.927-17.726-16.533l-0.023-0.136c-0.731-2.87-1.15-6.165-1.15-9.557s0.419-6.687 1.209-9.835l-0.059 0.278c2.888-3.405 7.17-5.551 11.953-5.551 2.088 0 4.080 0.409 5.901 1.151l-0.105-0.038c4.722 1.934 8.59 6.656 10.24 5.689v0c1.024-1.82 0-17.067-22.244-28.786-13.596-6.087-24.405-7.509-30.208 3.584-3.641 6.94 0.284 33.28-8.59 27.193-26.283-67.641 61.44-77.028 71.225-2.731 0.626 2.048 2.617 4.153 3.982 3.641s1.138-1.081 1.308-2.56c-2.048-67.3-67.868-71.851-79.019-50.688-2.452 6.6-3.871 14.224-3.871 22.18 0 0.202 0.001 0.405 0.003 0.607v-0.031c-0.012 2.783-1.021 5.328-2.688 7.299l0.014-0.017c-2.674 1.991-6.258-3.243-6.997-12.288-0.577-3.635-0.907-7.827-0.907-12.096 0-1.488 0.040-2.967 0.119-4.436l-0.009 0.205c3.47-53.191 88.235-30.322 101.945 13.596 1.775 8.549 2.791 18.373 2.791 28.435 0 4.771-0.228 9.488-0.675 14.141l0.046-0.592h0.626c8.476-9.045 20.252-1.195 22.756 1.991 0.702 0.947 1.815 1.554 3.071 1.554 1.015 0 1.937-0.397 2.62-1.043l-0.002 0.002c2.199-1.594 4.951-2.55 7.927-2.55 5.573 0 10.363 3.353 12.462 8.151l0.034 0.087c1.424 7.308 2.442 15.953 2.831 24.762l0.013 0.383c-3.45-0.688-6.506-1.995-9.19-3.811l0.088 0.056c-0.309-0.319-0.53-0.726-0.623-1.179l-0.003-0.015c-0.341-2.389-0.74-4.836-1.081-7.225 0.022-0.085 0.034-0.183 0.034-0.284s-0.013-0.199-0.036-0.293l0.002 0.008c-0.2-0.328-0.468-0.597-0.786-0.791l-0.010-0.006c-1.479-0.796-4.096-0.341-4.267 1.877-1.991 9.216-10.411 10.468-15.474-3.868-3.413-2.788-9.671-3.3-10.297 0.853 0.853 9.614-3.072 10.923-10.809 6.372-2.503 19.058-4.949 37.205-7.452 56.206 3.243 0 6.201-2.276 9.159 1.422-3.038 12.192-7.772 22.912-14.020 32.559l0.253-0.417-0.569 0.569h-0.455c-0.162 0.041-0.349 0.065-0.54 0.065s-0.378-0.024-0.556-0.068l0.016 0.003zM592.896 544.54c0.183 0.028 0.394 0.044 0.608 0.044 1.884 0 3.483-1.221 4.048-2.915l0.009-0.030c0.206-0.533 0.325-1.15 0.325-1.795 0-1.246-0.445-2.388-1.185-3.276l0.007 0.008c-0.626-0.853-2.958-0.512-4.608-0.512-0.121-0.012-0.261-0.018-0.402-0.018-1.571 0-2.952 0.817-3.74 2.048l-0.011 0.018c-0.569 1.82 1.138 3.527 1.877 4.892v0l0.284 0.398c0.769 0.619 1.718 1.046 2.758 1.191l0.030 0.003z" />
<glyph unicode="&#xe9bf;" horiz-adv-x="1593" d="M674.759 651.036c-2.106-0.159-4.042-0.751-5.764-1.687l0.075 0.037c-2.394-2.097-3.897-5.159-3.897-8.573 0-2.385 0.734-4.599 1.988-6.428l-0.025 0.039c3.3-1.593 6.656-4.949 4.437-6.77-9.444-10.069-34.133-26.852-35.157-29.924v0h0.284c2.742-0.381 5.911-0.599 9.131-0.599s6.388 0.218 9.492 0.639l-0.361-0.040c11 9.418 20.9 19.39 29.947 30.106l0.318 0.386c-1.252 1.138-2.446 1.934-3.755 3.072-0.578 0.394-0.953 1.049-0.953 1.792s0.375 1.398 0.945 1.787l0.007 0.005c2.456 1.823 4.031 4.713 4.031 7.972 0 2.814-1.175 5.354-3.060 7.157l-0.004 0.004c-1.989 0.943-4.322 1.493-6.783 1.493-0.235 0-0.47-0.005-0.702-0.015l0.033 0.001zM673.792 642.617c1.991-0.135 3.649-1.43 4.312-3.208l0.011-0.034c0.967-2.105 0.455-4.153-1.081-4.494s-3.641 1.024-4.608 3.129-0.455 4.21 1.081 4.551v0z" />
<glyph unicode="&#xe9c0;" horiz-adv-x="1593" d="M504.036 496.185c-5.012-7.588-7.995-16.898-7.995-26.905 0-6.065 1.096-11.874 3.101-17.24l-0.111 0.34c2.004-2.322 4.951-3.782 8.24-3.782 0.83 0 1.638 0.093 2.414 0.269l-0.073-0.014c4.521 3.573 7.396 9.057 7.396 15.212 0 1.28-0.124 2.53-0.361 3.741l0.020-0.122c-1.934 3.072-3.47 3.584-5.689 0.967-4.153-8.42-5.689-2.674-6.201 2.048-0.128 1.975-0.201 4.283-0.201 6.608 0 6.002 0.487 11.891 1.423 17.628l-0.084-0.627c1.024 6.599 0 4.608-2.105 1.934z" />
<glyph unicode="&#xe9c1;" horiz-adv-x="1593" d="M903.964 519.851c-9.045 19.456-21.561 38.741-25.543 46.137s-34.133 51.2-38.514 55.979c-9.785 11.378 15.872-4.836-3.243 18.261-7.282 6.201-7.68 6.599-13.767 11.719-3.072 2.162-10.524 6.144-11.833-0.398-0.208-1.498-0.327-3.229-0.327-4.988 0-3.094 0.368-6.102 1.063-8.983l-0.053 0.26c2.116-4.487 4.703-8.348 7.775-11.762l-0.038 0.043c29.825-39.075 57.631-83.163 81.393-129.661l2.291-4.938c4.096 1.934 3.186 25.145 0.796 28.444z" />
<glyph unicode="&#xe9c2;" horiz-adv-x="1593" d="M864.199 455.054c-1.82-1.991 4.38-10.524 12.402-10.524 16.505 2.76 29.921 13.78 36.010 28.586l0.114 0.313c4.238 6.293 7.152 13.82 8.166 21.936l0.026 0.251c0.21 5.337 0.33 11.602 0.33 17.895 0 33.487-3.393 66.181-9.853 97.757l0.534-3.127c-0.169 0.943-0.266 2.028-0.266 3.136 0 1.676 0.222 3.3 0.637 4.845l-0.030-0.13c0.853 1.024 3.812 0 5.404 2.56s-6.087 21.732-10.866 29.184c-1.707 3.356-2.276 5.689-5.12-0.398-2.997-5.65-4.756-12.352-4.756-19.465 0-0.597 0.012-1.191 0.037-1.782l-0.003 0.085c6.428-44.316 8.363-83.058 12.572-127.374 0.135-0.817 0.211-1.759 0.211-2.718 0-3.873-1.253-7.454-3.375-10.359l0.035 0.050c-11.577-12.886-25.648-23.278-41.484-30.459l-0.784-0.318z" />
<glyph unicode="&#xe9c3;" horiz-adv-x="1593" d="M1045.447 455.168c-9.671-5.689-9.671-11.947-1.877-12.174 0.54-0.022 1.173-0.034 1.809-0.034 15.637 0 29.524 7.493 38.267 19.084l0.088 0.122c3.666 7.223 6.026 15.681 6.535 24.635l0.008 0.168c0.377 7.805 0.593 16.952 0.593 26.149 0 33.685-2.885 66.695-8.421 98.799l0.49-3.433c-0.757 3.387-1.229 7.304-1.308 11.319l-0.001 0.059c0.853 2.219 5.234 0 6.827 2.332s-11.378 19.854-16.1 27.307c-1.707 3.3-2.276 5.689-5.12-0.455-2.122-4.353-3.363-9.47-3.363-14.878 0-2.222 0.21-4.395 0.61-6.501l-0.034 0.216c6.646-39.635 11.475-86.94 13.41-134.99l0.073-2.283c-0.428-4.202-1.373-8.057-2.778-11.682l0.104 0.304c-3.952-5.774-8.298-10.806-13.143-15.309l-0.056-0.051c-4.38-3.243-13.71-6.372-16.725-8.761z" />
<glyph unicode="&#xe9c4;" horiz-adv-x="1593" d="M1052.388 498.347c0 11.378 0 20.935 0 29.355s-4.21 39.822-5.689 46.706-2.56 17.067-4.494 25.031c-0.897 4.198-1.49 9.090-1.647 14.092l-0.003 0.13c0.796 2.276 3.812 0 5.291 2.56-1.832 13.277-6.314 25.219-12.905 35.701l0.219-0.373c-1.82 3.3-5.063 2.162-9.102-3.186-3.755-3.47-2.389-11.378-0.91-19.115 9.703-43.869 15.262-94.258 15.262-145.944 0-1.672-0.006-3.342-0.017-5.011l0.001 0.257c-0.512-4.096 14.222 12.117 14.108 19.854z" />
</font>
</defs>
</svg>
