<svg id="Flat" xmlns="http://www.w3.org/2000/svg" width="14.659" height="11.398" viewBox="0 0 14.659 11.398">
  <g id="Group_126" data-name="Group 126">
    <path id="Path_186" data-name="Path 186" d="M14.326,4.835A7.821,7.821,0,0,0,11.994,4.5,6.169,6.169,0,0,0,8.33,5.506,6.169,6.169,0,0,0,4.665,4.5,6.169,6.169,0,0,0,1,5.506v9.822a.359.359,0,0,0,.333.335c.067,0,.1-.034.167-.034a8.091,8.091,0,0,1,3.165-.737A6.169,6.169,0,0,1,8.33,15.9a7.988,7.988,0,0,1,3.665-1.006,6.747,6.747,0,0,1,3.165.7.3.3,0,0,0,.167.034.359.359,0,0,0,.333-.335V5.506A4.534,4.534,0,0,0,14.326,4.835Zm0,9.051a7.7,7.7,0,0,0-2.332-.335A7.988,7.988,0,0,0,8.33,14.557V6.847a7.988,7.988,0,0,1,3.665-1.006,7.7,7.7,0,0,1,2.332.335Z" transform="translate(-1 -4.5)" fill="#3f497e"/>
    <g id="Group_125" data-name="Group 125" transform="translate(7.955 3.017)">
      <path id="Path_187" data-name="Path 187" d="M16.017,10.006a7.84,7.84,0,0,1,1.676.174V9.161A9.053,9.053,0,0,0,16.017,9,7.715,7.715,0,0,0,13,9.556v1.113A6.224,6.224,0,0,1,16.017,10.006Z" transform="translate(-13 -9)" fill="#3f497e"/>
      <path id="Path_188" data-name="Path 188" d="M13,12.216v1.113a6.224,6.224,0,0,1,3.017-.664,7.84,7.84,0,0,1,1.676.174V11.821a9.053,9.053,0,0,0-1.676-.161A7.838,7.838,0,0,0,13,12.216Z" transform="translate(-13 -9.877)" fill="#3f497e"/>
      <path id="Path_189" data-name="Path 189" d="M16.017,14.33A7.715,7.715,0,0,0,13,14.886V16a6.224,6.224,0,0,1,3.017-.664,7.84,7.84,0,0,1,1.676.174V14.491A8.513,8.513,0,0,0,16.017,14.33Z" transform="translate(-13 -10.756)" fill="#3f497e"/>
    </g>
  </g>
</svg>
