<svg xmlns="http://www.w3.org/2000/svg" width="28" height="9.337" viewBox="0 0 28 9.337">
  <g id="Mada-01" transform="translate(-104.1 -367.8)">
    <rect id="Rectangle_44" data-name="Rectangle 44" width="12.381" height="4.124" transform="translate(104.1 373.005)" fill="#84b740"/>
    <rect id="Rectangle_45" data-name="Rectangle 45" width="12.381" height="4.128" transform="translate(104.1 367.8)" fill="#259bd6"/>
    <path id="Path_142" data-name="Path 142" d="M722.121,504.536l-.055.011a1.806,1.806,0,0,1-.4.051c-.323,0-.706-.165-.706-.945,0-.4.066-.934.669-.934h0a1.809,1.809,0,0,1,.441.085l.048.015Zm.1-3.885-.1.018v1.441l-.088-.026-.026-.007a2.029,2.029,0,0,0-.548-.1c-1.206,0-1.459.912-1.459,1.676a1.486,1.486,0,0,0,1.614,1.65,3.272,3.272,0,0,0,1.077-.151.476.476,0,0,0,.4-.522V500.5c-.287.051-.584.1-.875.151" transform="translate(-594.528 -128.245)" fill="#27292d"/>
    <path id="Path_143" data-name="Path 143" d="M820.777,542.9l-.052.015-.184.048a1.914,1.914,0,0,1-.445.07c-.283,0-.452-.14-.452-.379,0-.154.07-.415.533-.415h.6Zm-.423-2.6a4.068,4.068,0,0,0-1.228.213l-.309.092.1.7.3-.1a3.543,3.543,0,0,1,1-.169c.132,0,.537,0,.537.437v.191H820.2c-1.026,0-1.5.327-1.5,1.029,0,.6.437.959,1.173.959a3.791,3.791,0,0,0,.816-.11l.015,0,.015,0,.092.015c.287.051.584.1.875.158v-2.294c0-.743-.448-1.121-1.331-1.121" transform="translate(-689.6 -166.582)" fill="#27292d"/>
    <path id="Path_144" data-name="Path 144" d="M626.477,542.9l-.051.015-.184.048a1.886,1.886,0,0,1-.445.07c-.283,0-.452-.14-.452-.379,0-.154.07-.415.529-.415h.6v.662Zm-.419-2.6a4.05,4.05,0,0,0-1.228.213l-.309.092.1.7.3-.1a3.543,3.543,0,0,1,1-.169c.132,0,.537,0,.537.437v.191H625.9c-1.026,0-1.5.327-1.5,1.029,0,.6.437.959,1.176.959a3.792,3.792,0,0,0,.816-.11l.015,0,.015,0,.088.015c.29.051.584.1.875.162v-2.294c0-.75-.445-1.125-1.327-1.125" transform="translate(-502.097 -166.582)" fill="#27292d"/>
    <path id="Path_145" data-name="Path 145" d="M485.248,540.4a2.481,2.481,0,0,0-1,.221l-.037.018-.033-.026a1.508,1.508,0,0,0-.893-.217,3.653,3.653,0,0,0-1.055.158c-.312.1-.434.246-.434.529v2.621h.978v-2.422l.048-.015a1.245,1.245,0,0,1,.43-.077.387.387,0,0,1,.426.445v2.073h.963V541.6a.711.711,0,0,0-.029-.213l-.033-.062.066-.029a1.159,1.159,0,0,1,.478-.1.389.389,0,0,1,.426.445v2.073h.959v-2.169c0-.768-.412-1.14-1.264-1.14" transform="translate(-364.533 -166.678)" fill="#27292d"/>
    <path id="Path_146" data-name="Path 146" d="M691.271,370.491a3.337,3.337,0,0,1-.57-.051l-.055-.011v-1.415a.693.693,0,0,0-.026-.2l-.029-.059.063-.026c.015-.007.029-.011.048-.018l.011-.007.066-.022a.094.094,0,0,1,.026-.007,2.281,2.281,0,0,1,.5-.059h0c.6,0,.669.533.669.934,0,.779-.39.945-.709.945m0-2.691h-.026a1.732,1.732,0,0,0-1.345.456.919.919,0,0,0-.176.548h0v1.459a.43.43,0,0,1-.029.184l-.033.063h-1.775v-1.015h0a1.512,1.512,0,0,0-1.57-1.658h-.893c-.037.261-.066.445-.1.706h.89c.467,0,.713.4.713,1.007v1.022l-.062-.033a.674.674,0,0,0-.209-.029h-1.537c-.029.195-.066.448-.107.7h4.724c.162-.033.349-.062.511-.088a2.661,2.661,0,0,0,.989.18,1.754,1.754,0,0,0,.044-3.5" transform="translate(-560.814)" fill="#27292d"/>
    <path id="Path_147" data-name="Path 147" d="M487.255,372.7h.044c1.026,0,1.5-.338,1.5-1.173a1.074,1.074,0,0,0-1.173-1.077h-.945a.407.407,0,0,1-.452-.434c0-.184.07-.412.533-.412h2.066c.044-.268.066-.437.107-.706h-2.147c-1,0-1.5.419-1.5,1.117s.437,1.051,1.173,1.051h.945a.446.446,0,0,1,.452.46.462.462,0,0,1-.529.474h-.158L484.145,372h-.551c-.467,0-.794-.265-.794-.879v-.423c0-.64.254-1.037.794-1.037h.9c.04-.272.066-.445.1-.7H483.37a1.534,1.534,0,0,0-1.57,1.684h0v.478a1.451,1.451,0,0,0,1.57,1.581h.893l1.639,0h1.353Z" transform="translate(-364.611 -1.06)" fill="#27292d"/>
  </g>
</svg>
