<svg id="Group_52" data-name="Group 52" xmlns="http://www.w3.org/2000/svg" width="28" height="9.072" viewBox="0 0 28 9.072">
  <g id="Group_51" data-name="Group 51">
    <path id="Path_66" data-name="Path 66" d="M49.621,55.073H47.2L48.724,46.3h2.451Z" transform="translate(-37.446 -46.151)" fill="#0066b2"/>
    <path id="Path_67" data-name="Path 67" d="M20.458,46.3l-2.331,6.035-.269-1.285h0l-.807-3.94s-.09-.782-1.166-.782H12.06l-.06.14a9.227,9.227,0,0,1,2.54,1.006l2.122,7.6H19.2l3.885-8.745h-2.63Z" transform="translate(-12 -46.151)" fill="#0066b2"/>
    <path id="Path_68" data-name="Path 68" d="M89.425,55.143h2.241L89.724,46.4H87.752a1.148,1.148,0,0,0-1.136.642L83,55.143h2.54l.508-1.313h3.108Zm-2.69-3.1,1.285-3.268.717,3.268Z" transform="translate(-63.667 -46.221)" fill="#0066b2"/>
    <path id="Path_69" data-name="Path 69" d="M67.334,48.068l.359-1.876A7.287,7.287,0,0,0,65.51,45.8c-1.225,0-4.094.5-4.094,2.912,0,2.268,3.377,2.3,3.377,3.472,0,1.2-3.018.98-4.035.224l-.359,1.96a7.031,7.031,0,0,0,2.749.5c1.674,0,4.184-.812,4.184-3,0-2.268-3.407-2.492-3.407-3.5C63.927,47.4,66.287,47.536,67.334,48.068Z" transform="translate(-47.143 -45.8)" fill="#0066b2"/>
  </g>
  <path id="Path_70" data-name="Path 70" d="M17.858,51.451l-.807-4.214a1.036,1.036,0,0,0-1.166-.837H12.06l-.06.149a9.452,9.452,0,0,1,3.616,1.823A7.01,7.01,0,0,1,17.858,51.451Z" transform="translate(-12 -46.221)" fill="#f9a533"/>
</svg>
