<svg id="Gicon" xmlns="http://www.w3.org/2000/svg" width="15.448" height="15.448" viewBox="0 0 15.448 15.448">
  <path id="Path_125" data-name="Path 125" d="M3.424,143.432l-.538,2.007-1.965.042a7.738,7.738,0,0,1-.057-7.213h0l1.75.321.766,1.739a4.61,4.61,0,0,0,.043,3.1Z" transform="translate(0 -134.096)" fill="#fbbb00"/>
  <path id="Path_126" data-name="Path 126" d="M269.047,208.176a7.721,7.721,0,0,1-2.754,7.466h0l-2.2-.112-.312-1.947a4.6,4.6,0,0,0,1.981-2.351h-4.13v-3.056h7.419Z" transform="translate(-253.734 -201.895)" fill="#518ef8"/>
  <path id="Path_127" data-name="Path 127" d="M42.148,313.821h0a7.727,7.727,0,0,1-11.639-2.363l2.5-2.049a4.594,4.594,0,0,0,6.62,2.352Z" transform="translate(-29.588 -300.073)" fill="#28b446"/>
  <path id="Path_128" data-name="Path 128" d="M40.415,1.778l-2.5,2.049a4.593,4.593,0,0,0-6.772,2.405l-2.516-2.06h0A7.726,7.726,0,0,1,40.415,1.778Z" transform="translate(-27.76)" fill="#f14336"/>
</svg>
