<svg id="_2._Icon_3._Brand_twitter_2._Light" data-name="2. Icon / 3. Brand / twitter / 2. Light" xmlns="http://www.w3.org/2000/svg" xmlns:xlink="http://www.w3.org/1999/xlink" width="16" height="16" viewBox="0 0 16 16">
  <defs>
    <clipPath id="clip-path">
      <path id="twitter" d="M16,1.6a6.351,6.351,0,0,1-1.885.536A3.4,3.4,0,0,0,15.559.25a6.418,6.418,0,0,1-2.086.826A3.22,3.22,0,0,0,11.077,0,3.347,3.347,0,0,0,7.8,3.408a3.519,3.519,0,0,0,.085.776A9.207,9.207,0,0,1,1.114.622,3.5,3.5,0,0,0,.67,2.337,3.443,3.443,0,0,0,2.13,5.174,3.193,3.193,0,0,1,.642,4.749v.042A3.379,3.379,0,0,0,3.277,8.132a3.094,3.094,0,0,1-.865.12,3.15,3.15,0,0,1-.618-.06A3.3,3.3,0,0,0,4.86,10.557a6.432,6.432,0,0,1-4.077,1.46A6.489,6.489,0,0,1,0,11.97,9.059,9.059,0,0,0,5.032,13.5c6.039,0,9.34-5.192,9.34-9.7,0-.148,0-.3-.008-.442A6.788,6.788,0,0,0,16,1.6" fill="#b8b8b8"/>
    </clipPath>
  </defs>
  <rect id="_2._Icon_3._Brand_twitter_2._Light_background" data-name="2. Icon / 3. Brand / twitter / 2. Light background" width="16" height="16" fill="rgba(0,0,0,0)"/>
  <path id="twitter-2" data-name="twitter" d="M16,1.6a6.351,6.351,0,0,1-1.885.536A3.4,3.4,0,0,0,15.559.25a6.418,6.418,0,0,1-2.086.826A3.22,3.22,0,0,0,11.077,0,3.347,3.347,0,0,0,7.8,3.408a3.519,3.519,0,0,0,.085.776A9.207,9.207,0,0,1,1.114.622,3.5,3.5,0,0,0,.67,2.337,3.443,3.443,0,0,0,2.13,5.174,3.193,3.193,0,0,1,.642,4.749v.042A3.379,3.379,0,0,0,3.277,8.132a3.094,3.094,0,0,1-.865.12,3.15,3.15,0,0,1-.618-.06A3.3,3.3,0,0,0,4.86,10.557a6.432,6.432,0,0,1-4.077,1.46A6.489,6.489,0,0,1,0,11.97,9.059,9.059,0,0,0,5.032,13.5c6.039,0,9.34-5.192,9.34-9.7,0-.148,0-.3-.008-.442A6.788,6.788,0,0,0,16,1.6" transform="translate(0 1.5)" fill="none"/>
  <g id="Group_20" data-name="Group 20" transform="translate(0 1.5)" clip-path="url(#clip-path)">
    <g id="icon_color" data-name="icon color" transform="translate(0 -1.5)">
      <rect id="icon_color_background" data-name="icon color background" width="16" height="16" fill="#b8b8b8"/>
      <rect id="Gray_20" data-name="Gray 20" width="16" height="16" fill="#fff"/>
    </g>
  </g>
</svg>
