<svg id="Group_65" data-name="Group 65" xmlns="http://www.w3.org/2000/svg" xmlns:xlink="http://www.w3.org/1999/xlink" width="24" height="14" viewBox="0 0 24 14">
  <defs>
    <clipPath id="clip-path">
      <rect id="Rectangle_33" data-name="Rectangle 33" width="24" height="14" fill="none"/>
    </clipPath>
  </defs>
  <g id="Group_64" data-name="Group 64" transform="translate(0 0)">
    <g id="Group_63" data-name="Group 63" clip-path="url(#clip-path)">
      <rect id="Rectangle_32" data-name="Rectangle 32" width="24" height="14" fill="#fff"/>
      <path id="Path_104" data-name="Path 104" d="M-140.99,1370.044l7.93-4.439v-.623h-.547l-9.042,5.062Z" transform="translate(157.061 -1364.982)" fill="#bd0034"/>
      <path id="Path_105" data-name="Path 105" d="M-138.666,1393.58l8.3,4.646v-.929l-6.645-3.717Z" transform="translate(154.361 -1384.36)" fill="#bd0034"/>
      <path id="Path_106" data-name="Path 106" d="M-187.346,1366.334l7.1,4h1.66l-8.764-4.926Z" transform="translate(187.346 -1365.267)" fill="#bd0034"/>
      <path id="Path_107" data-name="Path 107" d="M-178.957,1393.58l-8.388,4.7v.081h1.514l8.533-4.78Z" transform="translate(187.346 -1384.36)" fill="#bd0034"/>
      <path id="Path_108" data-name="Path 108" d="M-135.66,1364.982h-8.4v4.707Z" transform="translate(158.018 -1364.982)" fill="#1a237b"/>
      <path id="Path_109" data-name="Path 109" d="M-173.162,1364.982h-8.369l8.369,4.707Z" transform="translate(183.406 -1364.982)" fill="#1a237b"/>
      <path id="Path_110" data-name="Path 110" d="M-124.886,1373.932v-3.212l-5.7,3.212Z" transform="translate(148.887 -1368.871)" fill="#1a237b"/>
      <path id="Path_111" data-name="Path 111" d="M-124.886,1396.756v-3.176h-5.7Z" transform="translate(148.887 -1384.36)" fill="#1a237b"/>
      <path id="Path_112" data-name="Path 112" d="M-180.058,1399.105h7.894v-4.425Z" transform="translate(182.408 -1385.105)" fill="#1a237b"/>
      <path id="Path_113" data-name="Path 113" d="M-144.063,1399.105h7.919l-7.919-4.425Z" transform="translate(158.018 -1385.105)" fill="#1a237b"/>
      <path id="Path_114" data-name="Path 114" d="M-187.346,1393.58v3.319l5.9-3.319Z" transform="translate(187.346 -1384.36)" fill="#1a237b"/>
      <path id="Path_115" data-name="Path 115" d="M-187.346,1373.693h5.9l-5.9-3.326Z" transform="translate(187.346 -1368.631)" fill="#1a237b"/>
      <path id="Path_116" data-name="Path 116" d="M-176.36,1364.982v5.894h-10.986v2.495h10.986v5.612h2.227v-5.612h10.787v-2.495h-10.787v-5.894Z" transform="translate(187.346 -1364.982)" fill="#bd0034"/>
    </g>
  </g>
</svg>
