<svg id="lock-24px" xmlns="http://www.w3.org/2000/svg" width="21" height="21" viewBox="0 0 21 21">
  <path id="Path_168" data-name="Path 168" d="M0,0H21V21H0Z" fill="none"/>
  <path id="Path_169" data-name="Path 169" d="M15.375,7h-.812V5.286A4.18,4.18,0,0,0,10.5,1,4.18,4.18,0,0,0,6.438,5.286V7H5.625A1.676,1.676,0,0,0,4,8.714v8.571A1.676,1.676,0,0,0,5.625,19h9.75A1.676,1.676,0,0,0,17,17.286V8.714A1.676,1.676,0,0,0,15.375,7ZM10.5,14.714A1.717,1.717,0,1,1,12.125,13,1.676,1.676,0,0,1,10.5,14.714ZM13.019,7H7.981V5.286A2.593,2.593,0,0,1,10.5,2.629a2.593,2.593,0,0,1,2.519,2.657Z" fill="#3f497e"/>
</svg>
