<svg xmlns="http://www.w3.org/2000/svg" width="168" height="24" viewBox="0 0 168 24">
  <g id="Group_161" data-name="Group 161" transform="translate(-1449 -7841)">
    <g id="Group_53" data-name="Group 53" transform="translate(2018 -724)">
      <rect id="Rectangle_24" data-name="Rectangle 24" width="36" height="24" rx="2" transform="translate(-569 8565)" fill="#fff"/>
      <g id="card" transform="translate(-563 8570)">
        <g id="Group_50" data-name="Group 50" transform="translate(0 0)">
          <path id="Path_3" data-name="Path 3" d="M59.484,46.869h.4l.37-.025.37-.049.37-.074.346-.074.346-.1.346-.123.346-.123.321-.148.321-.173.321-.173.3-.2.3-.2.272-.222.272-.247.247-.247.247-.247.247-.272.2-.272.222-.3.2-.3L66,42.991l.148-.321.148-.321.148-.321.123-.346.1-.37.074-.346.074-.37.025-.37.049-.37v-.766l-.049-.37-.025-.37-.074-.37-.074-.346-.1-.346-.123-.346-.148-.346-.148-.321L66,35.953l-.173-.3-.2-.3-.222-.3-.2-.272-.247-.272-.247-.272L64.473,34l-.272-.222-.272-.222-.3-.2-.3-.2-.321-.173-.321-.173-.321-.148-.346-.123-.346-.123-.346-.1-.346-.074-.37-.074-.37-.049-.37-.025h-.766l-.37.025-.37.049-.37.074-.37.074-.346.1-.346.123-.321.123-.321.148-.321.173-.321.173-.3.2-.3.2-.272.222L54.52,34l-.247.247-.247.272-.222.272-.222.272-.222.3-.173.3-.173.3-.173.321-.148.321-.123.346-.123.346-.1.346-.074.346-.074.37-.049.37-.025.37-.025.37.025.4.025.37.049.37.074.37.074.346.1.37.123.346.123.321.148.321.173.321.173.321.173.3.222.3.222.272.222.272.247.247.247.247.272.247.272.222.3.2.3.2.321.173.321.173.321.148.321.123.346.123.346.1.37.074.37.074.37.049.37.025Z" transform="translate(-42.197 -32.1)" fill="#fbb231" fill-rule="evenodd"/>
          <path id="Path_4" data-name="Path 4" d="M19.409,46.869h.37l.37-.025.37-.049.37-.074.37-.074.346-.1.346-.123.321-.123.321-.148.321-.173.321-.173.3-.2.3-.2.272-.222.272-.247.247-.247.247-.247.222-.272.222-.272.222-.3.173-.3.173-.321.173-.321.148-.321.123-.321.123-.346.1-.37.074-.346.074-.37.049-.37.025-.37.025-.4-.025-.37-.025-.37-.049-.37-.074-.37-.074-.346-.1-.346-.123-.346-.123-.346-.148-.321-.173-.321-.173-.3-.173-.3-.222-.3-.222-.272-.222-.272-.247-.272L24.373,34l-.272-.222-.272-.222-.3-.2-.3-.2-.321-.173-.321-.173-.321-.148-.321-.123-.346-.123-.346-.1-.37-.074-.37-.074-.37-.049-.37-.025h-.766l-.37.025-.37.049-.37.074-.346.074-.346.1-.346.123-.346.123-.321.148-.321.173-.321.173-.3.2-.3.2-.272.222L14.42,34l-.247.247-.247.272-.247.272-.2.272-.222.3-.2.3-.173.3-.148.321-.148.321-.148.346-.123.346-.1.346-.074.346-.074.37-.025.37-.049.37v.766l.049.37.025.37.074.37.074.346.1.37.123.346.148.321.148.321.148.321.173.321.2.3.222.3.2.272.247.272.247.247.247.247.272.247.272.222.3.2.3.2.321.173.321.173.321.148.346.123.346.123.346.1.346.074.37.074.37.049.37.025Z" transform="translate(-12 -32.1)" fill="#ec1c2e" fill-rule="evenodd"/>
          <path id="Path_5" data-name="Path 5" d="M58.5,42.32h3.927V41.9H58.846l-.346.42Z" transform="translate(-47.016 -39.48)" fill="#fbb231" fill-rule="evenodd"/>
          <path id="Path_6" data-name="Path 6" d="M56.1,45.92h4.519V45.5H56.347l-.247.42Z" transform="translate(-45.209 -42.191)" fill="#fbb231" fill-rule="evenodd"/>
          <path id="Path_7" data-name="Path 7" d="M54.3,49.52h4.964V49.1H54.473l-.173.42Z" transform="translate(-43.854 -44.902)" fill="#fbb231" fill-rule="evenodd"/>
          <path id="Path_8" data-name="Path 8" d="M53.1,53.2h5.26v-.4H53.223l-.123.4Z" transform="translate(-42.95 -47.688)" fill="#fbb231" fill-rule="evenodd"/>
          <path id="Path_9" data-name="Path 9" d="M53.423,70.6h5.087v-.4H53.3l.123.4Z" transform="translate(-43.101 -60.791)" fill="#fbb231" fill-rule="evenodd"/>
          <path id="Path_10" data-name="Path 10" d="M54.773,74.22H59.49V73.8H54.6l.173.42Z" transform="translate(-44.079 -63.502)" fill="#fbb231" fill-rule="evenodd"/>
          <path id="Path_11" data-name="Path 11" d="M56.747,77.82h4.174V77.4H56.5l.247.42Z" transform="translate(-45.51 -66.212)" fill="#fbb231" fill-rule="evenodd"/>
          <path id="Path_12" data-name="Path 12" d="M59.346,81.42H62.8V81H59l.346.42Z" transform="translate(-47.393 -68.923)" fill="#fbb231" fill-rule="evenodd"/>
          <path id="Path_13" data-name="Path 13" d="M52.4,56.8h5.433v-.4H52.474l-.074.4Z" transform="translate(-42.423 -50.399)" fill="#fbb231" fill-rule="evenodd"/>
          <path id="Path_14" data-name="Path 14" d="M65.8,67h2.074v-.4h-2L65.8,67Z" transform="translate(-52.514 -58.08)" fill="#fbb231" fill-rule="evenodd"/>
          <path id="Path_15" data-name="Path 15" d="M66.5,63.4h1.9V63H66.574l-.074.4Z" transform="translate(-53.041 -55.369)" fill="#fbb231" fill-rule="evenodd"/>
          <path id="Path_16" data-name="Path 16" d="M51.8,63h.543v.4h-.519L51.8,63Z" transform="translate(-41.971 -55.369)" fill="#fbb231" fill-rule="evenodd"/>
          <path id="Path_17" data-name="Path 17" d="M41.4,59.117h-.148l-.025-.025h-.173L41,59.068h-.148l-.074.025h-.173l-.025.025-.049.025H40.51l-.049.025-.025.025-.025.025v.025l-.025.025v.1l.025.025.025.049.025.025.049.049.049.025.074.049.074.025.074.025.1.025.074.025.074.025.074.049.074.049.049.074.074.074.025.1.025.1.025.148-.025.148v.123l-.049.1-.025.1-.049.074-.074.074-.049.074-.074.049-.074.049-.074.025-.1.049-.074.025h-.1l-.074.025h-.074l-.1.025h-.37l-.074-.025h-.272l-.049-.025h-.1l-.025-.025h-.049l-.049-.025h-.025l-.049-.025.1-.543h.074l.025.025h.074l.049.025H39.7l.049.025h.074l.049.025h.494l.074-.025.049-.025.025-.049.025-.025.025-.049v-.025l.025-.049v-.074l-.025-.049-.049-.049-.049-.049-.074-.049-.1-.025-.1-.025-.1-.049-.1-.049-.1-.049-.074-.074-.074-.074-.074-.1-.049-.1-.025-.148.025-.148v-.1l.025-.1.025-.074.025-.074.049-.074.025-.074.074-.074.049-.049.074-.049.074-.025.1-.049.1-.025.1-.025.123-.025h.667l.074.025h.123l.049.025H41.5l.025.025-.123.543Z" transform="translate(-32.558 -51.98)" fill="#fff" fill-rule="evenodd"/>
          <path id="Path_18" data-name="Path 18" d="M41.4,59.117h-.148l-.025-.025h-.173L41,59.068h-.148l-.074.025h-.173l-.025.025-.049.025H40.51l-.049.025-.025.025-.025.025v.025l-.025.025v.1l.025.025.025.049.025.025h0l.049.049.049.025.074.049.074.025.074.025.1.025.074.025.074.025.074.049.074.049.049.074.074.074.025.1.025.1.025.148-.025.148h0v.123l-.049.1-.025.1-.049.074-.074.074-.049.074-.074.049-.074.049-.074.025-.1.049-.074.025h-.1l-.074.025h-.074l-.1.025h-.37l-.074-.025h-.272l-.049-.025h-.1l-.025-.025h-.049l-.049-.025h-.025l-.049-.025.1-.543h.074l.025.025h.074l.049.025H39.7l.049.025h.074l.049.025h.494l.074-.025.049-.025.025-.049.025-.025.025-.049v-.025l.025-.049h0v-.074l-.025-.049-.049-.049-.049-.049-.074-.049-.1-.025-.1-.025-.1-.049-.1-.049-.1-.049-.074-.074-.074-.074-.074-.1-.049-.1-.025-.148.025-.148h0v-.1l.025-.1.025-.074.025-.074.049-.074.025-.074.074-.074.049-.049.074-.049.074-.025.1-.049.1-.025.1-.025.123-.025h.667l.074.025h.123l.049.025H41.5l.025.025-.123.543" transform="translate(-32.558 -51.98)" fill="none" stroke="#fff" stroke-miterlimit="2.613" stroke-width="0.216"/>
          <path id="Path_19" data-name="Path 19" d="M48.694,56.3h.691l-.1.593h.4l-.074.568-.445-.025-.247,1.408v.049l.025.025.025.049.025.025.049.025h.049l.049.025h.123l.049-.025h.074l.025-.025h.049l-.074.469h-.049v.025h-.025l-.025.025h-.074l-.025.025h-.074l-.025.025h-.42l-.074-.025h-.1l-.049-.025-.074-.025-.049-.025-.025-.025-.049-.025-.025-.049v-.025l-.025-.049v-.272l.494-2.717Z" transform="translate(-39.26 -50.323)" fill="#fff" fill-rule="evenodd"/>
          <path id="Path_20" data-name="Path 20" d="M48.694,56.3h.691l-.1.593h.4l-.074.568-.445-.025-.247,1.408h0v.049l.025.025.025.049.025.025.049.025h.049l.049.025h.123l.049-.025h.074l.025-.025h.049l-.074.469h-.049v.025h-.025l-.025.025h-.074l-.025.025h-.074l-.025.025h-.42l-.074-.025h-.1l-.049-.025-.074-.025-.049-.025-.025-.025-.049-.025-.025-.049v-.025l-.025-.049v-.272l.494-2.717" transform="translate(-39.26 -50.323)" fill="none" stroke="#fff" stroke-miterlimit="2.613" stroke-width="0.216"/>
          <path id="Path_21" data-name="Path 21" d="M54.241,60.056h0l-.025.049v.074l.025.049.025.049v.049l.049.049.025.049.025.025.049.049.025.025.049.049.049.025.049.025h.049l.049.025h.123l.074.025H55.2l.074-.025h.074l.049-.025.074-.025.074-.025.074-.025L55.7,60.5l.074-.025-.1.617h-.049l-.049.025-.025.025H55.5l-.025.025h-.049l-.049.025H55.3l-.049.025h-.642l-.123-.025-.123-.025-.123-.049-.123-.049-.123-.049-.1-.074-.1-.1-.074-.1-.074-.1-.074-.148-.025-.148-.025-.173-.025-.173.025-.2h0v-.1l.025-.074.025-.1.025-.1.025-.124.049-.1.049-.123.074-.1.074-.1.1-.1.123-.074.123-.074.148-.074.148-.025.173-.049h.42l.1.025.1.025.1.049.1.025.1.074.074.074.074.074.049.1.049.123.049.123.025.148v.173l-.025.2-.025.2-.025.148h-1.8l.1-.469h1.087l.025-.074-.025-.049V59.34L55.2,59.29l-.025-.025-.025-.049-.025-.025-.025-.025-.025-.025-.049-.025-.025-.025-.049-.025h-.074l-.049-.025h-.049l-.049.025H54.71l-.049.025-.049.025h-.025l-.049.049-.025.025-.025.025-.049.049-.025.025-.025.049-.025.049v.049l-.025.049v.049l-.1.519" transform="translate(-43.251 -51.98)" fill="none" stroke="#fff" stroke-miterlimit="2.613" stroke-width="0.216"/>
          <path id="Path_22" data-name="Path 22" d="M72.744,56.664l-.025-.025h-.025l-.049-.025-.025-.025h-.049l-.025-.025H72.5l-.049-.025-.049-.025h-.1l-.049-.025h-.42l-.074.025-.074.025-.074.025-.074.025-.074.049-.049.049-.074.074-.049.074-.074.1-.049.1-.049.123-.049.148-.049.173v.074l-.025.1V57.9l.025.074.025.074.025.074.049.074.049.074.049.049.049.049.074.049.074.025.074.049.1.025h.074l.049.025h.272l.074-.025h.074l.049-.025.074-.025.049-.025.074-.025.049-.049.049-.025-.123.667h0l-.025.025H72.3l-.025.025-.025.025h-.025l-.049.025-.049.025h-.049L72,59.159h-.074l-.074.025h-.469l-.123-.025-.123-.025-.1-.025-.124-.049-.123-.074-.1-.074-.1-.074-.1-.1-.074-.123-.074-.123-.049-.148-.049-.148-.025-.173L70.2,57.85l.025-.2.025-.2.025-.1v-.1l.049-.1.025-.1.025-.074.025-.1.025-.074.049-.074.025-.074.049-.074.025-.074.049-.074.049-.049.049-.074.049-.049.049-.049.074-.049.049-.049.049-.049.074-.025L71.138,56l.049-.025.074-.025.074-.049.074-.025h.074l.074-.025.1-.025h.074l.1-.025h.346l.074.025H72.4l.049.025.074.025h.049l.074.025h.049l.049.025.025.025h.049l.025.025h.049l-.148.692Z" transform="translate(-55.827 -49.947)" fill="#fff" fill-rule="evenodd"/>
          <path id="Path_23" data-name="Path 23" d="M72.744,56.664h0l-.025-.025h-.025l-.049-.025-.025-.025h-.049l-.025-.025H72.5l-.049-.025-.049-.025h-.1l-.049-.025h-.42l-.074.025-.074.025-.074.025-.074.025-.074.049-.049.049-.074.074-.049.074-.074.1-.049.1-.049.123-.049.148-.049.173h0v.074l-.025.1V57.9l.025.074.025.074.025.074.049.074.049.074.049.049.049.049.074.049.074.025.074.049.1.025h.074l.049.025h.272l.074-.025h.074l.049-.025.074-.025.049-.025.074-.025.049-.049.049-.025-.123.667h0l-.025.025H72.3l-.025.025-.025.025h-.025l-.049.025-.049.025h-.049L72,59.159h-.074l-.074.025h-.469l-.123-.025-.123-.025-.1-.025-.124-.049-.123-.074-.1-.074-.1-.074-.1-.1-.074-.123-.074-.123-.049-.148-.049-.148-.025-.173L70.2,57.85l.025-.2.025-.2h0l.025-.1v-.1l.049-.1.025-.1.025-.074.025-.1.025-.074.049-.074.025-.074.049-.074.025-.074.049-.074.049-.049.049-.074.049-.049.049-.049.074-.049.049-.049.049-.049.074-.025L71.138,56l.049-.025.074-.025.074-.049.074-.025h.074l.074-.025.1-.025h.074l.1-.025h.346l.074.025H72.4l.049.025.074.025h.049l.074.025h.049l.049.025.025.025h.049l.025.025h.049l-.148.692" transform="translate(-55.827 -49.947)" fill="none" stroke="#fff" stroke-miterlimit="2.613" stroke-width="0.216"/>
          <path id="Path_24" data-name="Path 24" d="M98.472,59.56h-.691l.049-.272v-.025l-.049.049-.025.049-.049.025-.049.049-.049.025-.025.025-.049.025-.049.025-.049.025h-.049l-.049.025h-.1l-.049.025h-.1l-.123-.025-.123-.025-.1-.049-.123-.049-.074-.074-.074-.074-.074-.1-.074-.1-.049-.123-.025-.1-.025-.123-.025-.148v-.37l.025-.123.049-.148.025-.148.049-.123.074-.123.074-.1.074-.1.074-.1.074-.074.1-.074.074-.074.1-.049.1-.049.1-.025.1-.025.1-.025h.247l.074.025.049.025h.049l.049.025.049.049.049.025.049.025.025.025.049.025.025.049.025.025.025.025.025.049v.025h0l.173-.988h.691l-.568,3.26Z" transform="translate(-75.406 -50.323)" fill="#fff" fill-rule="evenodd"/>
          <path id="Path_25" data-name="Path 25" d="M98.472,59.56h-.691l.049-.272v-.025h0l-.049.049-.025.049-.049.025-.049.049-.049.025-.025.025-.049.025-.049.025-.049.025h-.049l-.049.025h-.1l-.049.025h-.1l-.123-.025-.123-.025-.1-.049-.123-.049-.074-.074-.074-.074-.074-.1-.074-.1-.049-.123-.025-.1-.025-.123-.025-.148v-.37l.025-.123h0l.049-.148.025-.148.049-.123.074-.123.074-.1.074-.1.074-.1.074-.074.1-.074.074-.074.1-.049.1-.049.1-.025.1-.025.1-.025h.247l.074.025.049.025h.049l.049.025.049.049.049.025.049.025.025.025.049.025.025.049.025.025.025.025.025.049v.025h0l.173-.988h.691l-.568,3.26" transform="translate(-75.406 -50.323)" fill="none" stroke="#fff" stroke-miterlimit="2.613" stroke-width="0.216"/>
          <path id="Path_26" data-name="Path 26" d="M99.746,62.582h.074l.074-.025.049-.025.049-.025.074-.025.049-.049.049-.025.025-.049.049-.049.025-.049.025-.074.049-.049.025-.074v-.049l.025-.074.025-.074v-.4l-.025-.074-.025-.049-.025-.049-.025-.049-.025-.025-.049-.049-.049-.025-.025-.025h-.049l-.074-.025-.049.025h-.074l-.049.025-.049.025-.049.025-.049.049-.049.025-.049.049L99.6,61.4l-.049.049-.025.049-.025.074-.025.074-.025.049-.025.074v.074l-.025.123v.123l.025.1.025.123.049.1.074.1.074.049.1.025Z" transform="translate(-77.816 -53.938)" fill="#fbb231" fill-rule="evenodd"/>
          <path id="Path_27" data-name="Path 27" d="M31.872,60.749l-.1.543h-.617l.025-.1V61.02L31.205,61l-.049.049-.025.025-.049.049-.049.025-.074.049-.049.025-.074.025-.074.025-.049.025-.074.025h-.074l-.074.025h-.222l-.074-.025-.074-.025-.074-.025-.074-.025-.074-.049-.049-.025-.049-.049-.049-.049-.025-.049-.025-.049-.025-.049-.025-.049-.025-.074v-.1l-.025-.074v-.049l.025-.1V60.4l.025-.1.049-.074.025-.1.049-.074.049-.049.074-.074.049-.049.074-.049.074-.049.074-.049.074-.025.074-.025.1-.025.074-.025h.1l.049-.025h.2l.049-.025h.445l.025.025h0v-.025l.025-.049v-.049l.025-.049-.025-.049-.025-.049-.025-.049-.049-.049-.049-.025-.049-.025h-.049l-.074-.025h-.37l-.074.025H30.44l-.074.025h-.074l-.049.025h-.074l-.049.025-.049.025h-.025l-.025.025.173-.593.049-.025.049-.025.074-.025h.049l.049-.025h.074l.074-.025h.766l.074.025h.074l.074.025.074.025.074.049.074.049.074.049.074.049.049.049L32.07,59l.025.074.049.074v.272l-.272,1.334Z" transform="translate(-25.253 -52.055)" fill="#fff" fill-rule="evenodd"/>
          <path id="Path_28" data-name="Path 28" d="M31.872,60.749l-.1.543h-.617l.025-.1V61.02L31.205,61h0l-.049.049-.025.025-.049.049-.049.025-.074.049-.049.025-.074.025-.074.025-.049.025-.074.025h-.074l-.074.025h-.222l-.074-.025h0l-.074-.025-.074-.025-.074-.025-.074-.049-.049-.025-.049-.049-.049-.049-.025-.049-.025-.049-.025-.049-.025-.049-.025-.074v-.1l-.025-.074v-.049h0l.025-.1V60.4l.025-.1.049-.074.025-.1.049-.074.049-.049.074-.074.049-.049.074-.049.074-.049.074-.049.074-.025.074-.025.1-.025.074-.025h.1l.049-.025h.2l.049-.025h.445l.025.025h0v-.025l.025-.049v-.049l.025-.049h0l-.025-.049-.025-.049-.025-.049-.049-.049-.049-.025-.049-.025h-.049l-.074-.025h-.37l-.074.025H30.44l-.074.025h-.074l-.049.025h-.074l-.049.025-.049.025h-.025l-.025.025.173-.593h0l.049-.025.049-.025.074-.025h.049l.049-.025h.074l.074-.025h.766l.074.025h.074l.074.025.074.025.074.049.074.049.074.049.074.049.049.049L32.07,59l.025.074.049.074v.272l-.272,1.334" transform="translate(-25.253 -52.055)" fill="none" stroke="#fff" stroke-miterlimit="2.613" stroke-width="0.216"/>
          <path id="Path_29" data-name="Path 29" d="M33.689,64.525h0l-.025-.025h-.321l-.049.025H33.22l-.025.025h-.049l-.025.025H33.1l-.049.025-.025.025L33,64.648l-.049.025-.025.025-.025.025-.049.025-.025.025v.049l-.025.025v.2l.025.049.049.049.025.025h.049l.025.025H33.1l.074-.025h.049l.074-.025h.049l.049-.025.025-.025.049-.025.025-.025.025-.049.025-.025.025-.025.025-.025.025-.025v-.049l.025-.074.025-.1V64.6l.025-.074Z" transform="translate(-27.663 -56.498)" fill="#ec1c2e" fill-rule="evenodd"/>
          <path id="Path_30" data-name="Path 30" d="M15.491,59.56H14.8l.568-3.26h1.185l.123,1.926.815-1.926h1.235l-.593,3.26h-.667l.42-2.445h-.025L16.85,59.56h-.766v-.1l-.025-.272-.025-.4-.025-.445-.025-.445-.025-.37-.025-.3v-.123h-.025l-.42,2.445Z" transform="translate(-14.109 -50.323)" fill="#fff" fill-rule="evenodd"/>
          <path id="Path_31" data-name="Path 31" d="M15.491,59.56H14.8l.568-3.26h1.185l.123,1.926.815-1.926h1.235l-.593,3.26h-.667l.42-2.445h-.025L16.85,59.56h-.766v-.1l-.025-.272-.025-.4-.025-.445-.025-.445-.025-.37-.025-.3v-.123h-.025l-.42,2.445" transform="translate(-14.109 -50.323)" fill="none" stroke="#fff" stroke-miterlimit="2.613" stroke-width="0.216"/>
          <path id="Path_32" data-name="Path 32" d="M82.047,60.749l-.1.543h-.617V61l-.025.049-.025.025-.049.049-.049.025-.049.049-.074.025-.049.025-.074.025-.074.025-.049.025h-.074l-.074.025h-.222l-.049-.025-.1-.025-.074-.025-.074-.025-.074-.049-.049-.025-.049-.049-.025-.049L79.9,61.02l-.025-.049-.025-.049-.025-.049V60.8l-.025-.049v-.272l.025-.074.025-.1.025-.074.025-.1.049-.074L80,60.008l.074-.074.049-.049.074-.049.074-.049.074-.049.074-.025.1-.025.074-.025.074-.025h.1l.049-.025h.2l.049-.025H81.5l.025.025h0l.025-.025v-.2l-.025-.049-.025-.049-.049-.049-.025-.025-.074-.025h-.049l-.049-.025h-.4l-.074.025H80.64l-.074.025h-.074l-.074.025h-.049l-.074.025-.025.025H80.22l-.025.025.173-.593.049-.025.074-.025.049-.025h.049l.074-.025h.074l.049-.025h.766l.074.025H81.7l.074.025.074.025.074.049.074.049.074.049.074.049.049.049.049.074.049.074.025.074v.272l-.272,1.334Z" transform="translate(-63.056 -52.055)" fill="#fff" fill-rule="evenodd"/>
          <path id="Path_33" data-name="Path 33" d="M88.5,67.868l.025-.025.1-.543H88.6l-.1.543v.025h.025v-.025l-.025.025Z" transform="translate(-69.608 -58.607)" fill="#fff" fill-rule="evenodd"/>
          <path id="Path_34" data-name="Path 34" d="M85.9,69.425l.025.025h.617V69.4h-.617v.025H85.9v.025h.025l-.025-.025Z" transform="translate(-67.65 -60.188)" fill="#fff" fill-rule="evenodd"/>
          <path id="Path_35" data-name="Path 35" d="M85.949,68.325l-.025-.025v.049L85.9,68.4v.2h.025l.025-.1v-.173l-.025-.025.025.025Z" transform="translate(-67.65 -59.36)" fill="#fff" fill-rule="evenodd"/>
          <path id="Path_36" data-name="Path 36" d="M82.2,68.646h.346l.074-.025.049-.025h.074l.074-.025.049-.049.074-.025.049-.025.049-.049.049-.025.049-.049.025-.025-.025-.025-.025.049-.049.025-.049.025-.049.049-.049.025-.049.025-.074.025-.049.025-.074.025L82.6,68.6l-.049.025H82.2v.025Z" transform="translate(-64.863 -59.36)" fill="#fff" fill-rule="evenodd"/>
          <path id="Path_37" data-name="Path 37" d="M79.7,66.6h0v.123l.025.049v.049l.025.074v.049l.025.049.049.049.025.049.049.049.049.049.049.049.074.049.074.025.074.025.1.025v-.025l-.1-.025-.074-.025-.074-.049-.049-.025-.049-.049-.049-.025-.049-.049-.025-.049L79.823,67l-.025-.049-.025-.074-.025-.049v-.1l-.025-.074.025-.049H79.7Z" transform="translate(-62.981 -58.08)" fill="#fff" fill-rule="evenodd"/>
          <path id="Path_38" data-name="Path 38" d="M80.589,62.7h0l-.074.025-.1.025-.074.025-.074.025-.074.049-.074.049-.074.049-.074.074-.049.049-.049.074-.049.074-.049.074-.025.1-.025.074-.025.1v.1h.049V63.49l.025-.1.049-.074.025-.074.049-.074.049-.074L80,63.021l.074-.049.074-.049.049-.049.1-.025.074-.049.074-.025.074-.025h.074V62.7Z" transform="translate(-62.981 -55.143)" fill="#fff" fill-rule="evenodd"/>
          <path id="Path_39" data-name="Path 39" d="M83.819,62.5h-.025l-.025.025h-.247l-.049.025H83.3V62.6h.025l.025-.025h.173l.025-.025h.272V62.5Z" transform="translate(-65.692 -54.992)" fill="#fff" fill-rule="evenodd"/>
          <path id="Path_40" data-name="Path 40" d="M85.746,62.525h-.222l-.049-.025H85.4v.049h.37l-.025-.025Z" transform="translate(-67.273 -54.992)" fill="#fff" fill-rule="evenodd"/>
          <path id="Path_41" data-name="Path 41" d="M86.825,62h0v.049L86.8,62.1v.049h0l.025.025v-.025l.025-.049V62h-.025Z" transform="translate(-68.327 -54.616)" fill="#fff" fill-rule="evenodd"/>
          <path id="Path_42" data-name="Path 42" d="M85.7,60.925h.049l.049.025.049.025L85.9,61l.025.025.049.049v.049l.025.049h.025v-.049L86,61.048l-.049-.025-.025-.049-.049-.049h-.049l-.074-.025H85.7v.025Z" transform="translate(-67.499 -53.787)" fill="#fff" fill-rule="evenodd"/>
          <path id="Path_43" data-name="Path 43" d="M81.4,60.973h.049l.025-.025h.049l.049-.025h.049L81.7,60.9l.074-.025h.148l.074-.025h.469v-.025h-.074l-.074-.025H82.24l-.074.025h-.247l-.074.025H81.77l-.074.025h-.074l-.049.025H81.5l-.049.025-.025.025H81.4l.025.025Z" transform="translate(-64.261 -53.712)" fill="#fff" fill-rule="evenodd"/>
          <path id="Path_44" data-name="Path 44" d="M81.573,59h0l-.173.617h.025l.173-.593h-.025V59Z" transform="translate(-64.261 -52.357)" fill="#fff" fill-rule="evenodd"/>
          <path id="Path_45" data-name="Path 45" d="M83.211,58.5h-.543l-.074.025h-.148l-.049.025h-.074l-.049.025h-.049l-.074.025-.049.025v.025l.074-.025.049-.025h.049l.074-.025H82.4l.074-.025h.2l.074-.025h.3l.074.025h.1V58.5Z" transform="translate(-64.788 -51.98)" fill="#fff" fill-rule="evenodd"/>
          <path id="Path_46" data-name="Path 46" d="M87.464,59.364h0v-.2l-.025-.1-.025-.074-.025-.074-.049-.074-.074-.074-.049-.049-.074-.049-.074-.049-.1-.025-.074-.025-.074-.025-.074-.025h-.074L86.6,58.5v.049h.148l.074.025.074.025.074.025.074.049.074.025.074.049.049.049.074.074.049.049.025.074.025.074.025.1v.074l-.025.1h0l.049.025Z" transform="translate(-68.177 -51.98)" fill="#fff" fill-rule="evenodd"/>
          <path id="Path_47" data-name="Path 47" d="M88.925,63.234h0l.272-1.309-.049-.025L88.9,63.234h.025Z" transform="translate(-69.909 -54.54)" fill="#fff" fill-rule="evenodd"/>
          <path id="Path_48" data-name="Path 48" d="M83.789,64.449h0l-.025-.025H83.69l-.025-.025h-.025l-.049.025h-.148l-.049.025H83.32l-.025.025h-.049l-.025.025H83.2l-.049.025h-.025l-.025.025-.049.025-.025.025L83,64.622l-.025.049-.025.025-.025.049v.025l-.025.049v.074l.025.074.025.049.025.049.025.025h.049l.049.025h.1l.074-.025h.074l.049-.025.049-.025.049-.025.049-.025.049-.025.025-.025.025-.025.049-.025v-.049l.025-.025.025-.025v-.049l.025-.074V64.6l.025-.074v-.074Z" transform="translate(-65.391 -56.423)" fill="#fbb231" fill-rule="evenodd"/>
          <path id="Path_49" data-name="Path 49" d="M107.3,67.121v-.049l.025-.074.025-.049.049-.049.049-.049.074-.025.049-.025h.148l.049.025.074.025.049.049.049.049.025.049.025.074v.049h-.074V67.1l-.025-.074-.025-.049-.025-.025-.049-.049-.025-.025-.074-.025h-.1l-.074.025-.025.025-.049.049-.025.025-.025.049-.025.074v.025Z" transform="translate(-83.765 -58.23)" fill="#fff" fill-rule="evenodd"/>
          <path id="Path_50" data-name="Path 50" d="M108.2,67.648V67.5h.173l.025.025h.025l.025.025v.025h0l.025.025-.025.025v.025H108.4v-.025h.025V67.6l-.025-.025h-.025v-.025h-.123v.1Z" transform="translate(-84.442 -58.757)" fill="#fff" fill-rule="evenodd"/>
          <path id="Path_51" data-name="Path 51" d="M107.3,68.1v.1l.025.074.025.049.049.049.049.049.074.025.049.025h.148l.049-.025.074-.025.049-.049.049-.049.025-.049.025-.074v-.1h-.074v.074l-.025.074-.025.049-.025.025-.049.049-.025.025H107.7l-.049.025L107.6,68.4h-.074l-.025-.025-.049-.049-.025-.025-.025-.049-.025-.074V68.1Z" transform="translate(-83.765 -59.209)" fill="#fff" fill-rule="evenodd"/>
          <path id="Path_52" data-name="Path 52" d="M108.2,68.1v.173h.049v-.148h.074l.074.148h.049l-.074-.148h.074V68.1H108.2Z" transform="translate(-84.442 -59.209)" fill="#fff" fill-rule="evenodd"/>
          <path id="Path_53" data-name="Path 53" d="M107.3,67.146h0v-.074l.025-.074.025-.049.049-.049.049-.049.049-.025.074-.025h.148l.074.025.049.025.049.049.049.049.025.049.025.074v.074h0v.074l-.025.074-.025.049-.049.049-.049.049-.049.025-.074.025h-.148l-.074-.025-.049-.025-.049-.049-.049-.049-.025-.049-.025-.074v-.074m.272.148H107.5V67h.247l.025.025V67.1h0v.1h-.1l.074.123h-.025l-.074-.123h-.074v.1m.074-.173h.1V67.1h0v-.025H107.6v.1h.049m0,.272h.049l.049-.025.049-.025.049-.025.025-.049.025-.049.025-.049V67.17h0v-.049l-.025-.049-.025-.049-.025-.049-.049-.025-.049-.025L107.7,66.9h-.1l-.049.025-.049.025-.049.025-.025.049-.025.049-.025.049v.049h0v.049l.025.049.025.049.025.049.049.025.049.025.049.025h.049" transform="translate(-83.765 -58.23)" fill="none" stroke="#fff" stroke-miterlimit="2.613" stroke-width="0.216"/>
          <path id="Path_54" data-name="Path 54" d="M89.7,61.292h.691l.272-1.408v-.049l.025-.074v-.049l.025-.049.025-.049.025-.049.049-.074.025-.025.049-.049.049-.049.049-.025.074-.025.074-.025.074-.025.1-.025h.148l.123-.642h-.148l-.049.025-.074.025h-.049l-.049.025-.049.049-.049.025-.049.025-.049.049-.025.025-.049.049-.025.049-.049.025-.025.049-.049.049.074-.445h-.691L89.7,61.292Z" transform="translate(-70.511 -52.055)" fill="#fff" fill-rule="evenodd"/>
          <path id="Path_55" data-name="Path 55" d="M89.7,61.292h.691l.272-1.408h0v-.049l.025-.074v-.049l.025-.049.025-.049.025-.049.049-.074.025-.025.049-.049.049-.049.049-.025.074-.025.074-.025.074-.025.1-.025h.148l.123-.642h-.148l-.049.025-.074.025h-.049l-.049.025-.049.049-.049.025-.049.025-.049.049-.025.025-.049.049-.025.049-.049.025-.025.049-.049.049.074-.445h-.691L89.7,61.292h0" transform="translate(-70.511 -52.055)" fill="none" stroke="#fff" stroke-miterlimit="2.613" stroke-width="0.216"/>
          <path id="Path_56" data-name="Path 56" d="M63,61.292h.716l.222-1.408.025-.049v-.074l.025-.049v-.049l.025-.049.025-.049.025-.049.049-.025.025-.049.049-.025.049-.025.074-.049h.074l.074-.025.074-.025H64.7l.025-.025v-.049l.025-.049v-.074l.025-.074.025-.074.025-.049.025-.049.025-.049.025-.049.025-.049.025-.025v-.049h.025V58.6H64.7l-.049.025-.074.025h-.049l-.049.025-.049.025-.049.049-.049.025-.025.025-.049.049-.025.049-.049.025-.025.049-.049.049-.025.049.074-.445h-.716L63,61.292Z" transform="translate(-50.405 -52.055)" fill="#fff" fill-rule="evenodd"/>
          <path id="Path_57" data-name="Path 57" d="M63,61.292h.716l.222-1.408h0l.025-.049v-.074l.025-.049v-.049l.025-.049.025-.049.025-.049.049-.025.025-.049.049-.025.049-.025.074-.049h.074l.074-.025.074-.025H64.7l.025-.025v-.049l.025-.049v-.074l.025-.074.025-.074.025-.049h0l.025-.049.025-.049.025-.049.025-.049.025-.025v-.049h.025V58.6H64.7l-.049.025-.074.025h-.049l-.049.025-.049.025-.049.049-.049.025-.025.025-.049.049-.025.049-.049.025-.025.049-.049.049-.025.049.074-.445h-.716L63,61.292h0" transform="translate(-50.405 -52.055)" fill="none" stroke="#fff" stroke-miterlimit="2.613" stroke-width="0.216"/>
          <path id="Path_58" data-name="Path 58" d="M107.3,79.272h0l.025-.074.025-.049.049-.049.049-.049.074-.025.049-.025h.148l.049.025.074.025.049.049.049.049.025.049.025.074h-.074l-.025-.049-.025-.049-.025-.025-.049-.049-.025-.025-.074-.025h-.1l-.074.025-.025.025-.049.049-.025.025-.025.049-.025.049Z" transform="translate(-83.765 -67.417)" fill="#fbb231" fill-rule="evenodd"/>
          <path id="Path_59" data-name="Path 59" d="M108.2,79.874V79.8h.222v.025h.025v.025h0l.025.025h-.049l-.025-.025h0l-.025-.025h-.123v.049Z" transform="translate(-84.442 -68.02)" fill="#fbb231" fill-rule="evenodd"/>
          <path id="Path_60" data-name="Path 60" d="M107.3,80.174V80.1h.074v.074Z" transform="translate(-83.765 -68.246)" fill="#fbb231" fill-rule="evenodd"/>
          <path id="Path_61" data-name="Path 61" d="M108.2,80.174V80.1h.049v.049h.148v-.025h.025V80.1h.049l-.025.025v.025h0v.025Z" transform="translate(-84.442 -68.246)" fill="#fbb231" fill-rule="evenodd"/>
          <path id="Path_62" data-name="Path 62" d="M109.8,80.174V80.1h.074v.074Z" transform="translate(-85.647 -68.246)" fill="#fbb231" fill-rule="evenodd"/>
          <path id="Path_63" data-name="Path 63" d="M107.3,80.4h0v.074l.025.074.025.049.049.049.049.049.074.025.049.025h.148l.049-.025.074-.025.049-.049.049-.049.025-.049.025-.074V80.4h-.074v.049l-.025.074-.025.025-.025.049-.049.049-.025.025H107.7l-.049.025-.049-.025h-.074l-.025-.025-.049-.049-.025-.049-.025-.025-.025-.074V80.4H107.3Z" transform="translate(-83.765 -68.472)" fill="#fbb231" fill-rule="evenodd"/>
          <path id="Path_64" data-name="Path 64" d="M108.2,80.4v.123h.049V80.4h.074l.074.123h.049l-.074-.123H108.2Z" transform="translate(-84.442 -68.472)" fill="#fbb231" fill-rule="evenodd"/>
          <path id="Path_65" data-name="Path 65" d="M55.845,59.34l-.025-.148-.049-.123-.049-.123-.074-.1-.074-.074-.049-.074-.1-.074-.1-.049-.1-.049-.1-.025h-.494l-.173.025-.173.049-.148.074-.123.074-.1.074-.123.1-.074.1-.074.1-.049.1-.049.123-.049.1-.025.1-.025.1-.025.1v.074l-.025.2v.173l.025.173.049.148.049.123.074.123.074.1.1.074.1.074.123.074.123.049.123.049.123.025.123.025.123.025h.716l.049-.025h.049l.049-.025.049-.025.049-.025.049-.025.1-.617-.074.049-.074.049L55.5,60.6h-.1l-.074.025-.049.025-.074.025h-.716l-.049-.025.025-.049-.049-.025-.049-.025-.049-.049-.025-.049-.025-.049-.025-.049-.025-.049-.025-.049-.025-.049v-.173h1.605l.025-.148.049-.2.025-.2Zm-.691.247H54.24v-.074l.025-.049.025-.049.025-.049.025-.049.025-.049.025-.049.025-.025.025-.025.049-.025.049-.025.049-.025.049-.025h.3l.049.025.049.025.049.025.025.025.025.025.025.025.025.049.025.049.025.049v.148Z" transform="translate(-43.176 -51.98)" fill="#fff" fill-rule="evenodd"/>
        </g>
      </g>
    </g>
    <g id="Group_54" data-name="Group 54" transform="translate(2018 -724)">
      <rect id="Rectangle_25" data-name="Rectangle 25" width="36" height="24" rx="2" transform="translate(-524 8565)" fill="#fff"/>
      <g id="card_1_" data-name="card (1)" transform="translate(-524 8574)">
        <g id="Group_52" data-name="Group 52" transform="translate(4 -2)">
          <g id="Group_51" data-name="Group 51">
            <path id="Path_66" data-name="Path 66" d="M49.621,55.073H47.2L48.724,46.3h2.451Z" transform="translate(-37.446 -46.151)" fill="#0066b2"/>
            <path id="Path_67" data-name="Path 67" d="M20.458,46.3l-2.331,6.035-.269-1.285h0l-.807-3.94s-.09-.782-1.166-.782H12.06l-.06.14a9.227,9.227,0,0,1,2.54,1.006l2.122,7.6H19.2l3.885-8.745h-2.63Z" transform="translate(-12 -46.151)" fill="#0066b2"/>
            <path id="Path_68" data-name="Path 68" d="M89.425,55.143h2.241L89.724,46.4H87.752a1.148,1.148,0,0,0-1.136.642L83,55.143h2.54l.508-1.313h3.108Zm-2.69-3.1,1.285-3.268.717,3.268Z" transform="translate(-63.667 -46.221)" fill="#0066b2"/>
            <path id="Path_69" data-name="Path 69" d="M67.334,48.068l.359-1.876A7.287,7.287,0,0,0,65.51,45.8c-1.225,0-4.094.5-4.094,2.912,0,2.268,3.377,2.3,3.377,3.472,0,1.2-3.018.98-4.035.224l-.359,1.96a7.031,7.031,0,0,0,2.749.5c1.674,0,4.184-.812,4.184-3,0-2.268-3.407-2.492-3.407-3.5C63.927,47.4,66.287,47.536,67.334,48.068Z" transform="translate(-47.143 -45.8)" fill="#0066b2"/>
          </g>
          <path id="Path_70" data-name="Path 70" d="M17.858,51.451l-.807-4.214a1.036,1.036,0,0,0-1.166-.837H12.06l-.06.149a9.452,9.452,0,0,1,3.616,1.823A7.01,7.01,0,0,1,17.858,51.451Z" transform="translate(-12 -46.221)" fill="#f9a533"/>
        </g>
      </g>
    </g>
    <g id="Group_55" data-name="Group 55" transform="translate(2018 -724)">
      <rect id="Rectangle_26" data-name="Rectangle 26" width="36" height="24" rx="2" transform="translate(-482 8565)" fill="#fff"/>
      <g id="Mada-01" transform="translate(-582.1 8204.2)">
        <rect id="Rectangle_44" data-name="Rectangle 44" width="12.381" height="4.124" transform="translate(104.1 373.005)" fill="#84b740"/>
        <rect id="Rectangle_45" data-name="Rectangle 45" width="12.381" height="4.128" transform="translate(104.1 367.8)" fill="#259bd6"/>
        <path id="Path_142" data-name="Path 142" d="M722.121,504.536l-.055.011a1.806,1.806,0,0,1-.4.051c-.323,0-.706-.165-.706-.945,0-.4.066-.934.669-.934h0a1.809,1.809,0,0,1,.441.085l.048.015Zm.1-3.885-.1.018v1.441l-.088-.026-.026-.007a2.029,2.029,0,0,0-.548-.1c-1.206,0-1.459.912-1.459,1.676a1.486,1.486,0,0,0,1.614,1.65,3.272,3.272,0,0,0,1.077-.151.476.476,0,0,0,.4-.522V500.5c-.287.051-.584.1-.875.151" transform="translate(-594.528 -128.245)" fill="#27292d"/>
        <path id="Path_143" data-name="Path 143" d="M820.777,542.9l-.052.015-.184.048a1.914,1.914,0,0,1-.445.07c-.283,0-.452-.14-.452-.379,0-.154.07-.415.533-.415h.6Zm-.423-2.6a4.068,4.068,0,0,0-1.228.213l-.309.092.1.7.3-.1a3.543,3.543,0,0,1,1-.169c.132,0,.537,0,.537.437v.191H820.2c-1.026,0-1.5.327-1.5,1.029,0,.6.437.959,1.173.959a3.791,3.791,0,0,0,.816-.11l.015,0,.015,0,.092.015c.287.051.584.1.875.158v-2.294c0-.743-.448-1.121-1.331-1.121" transform="translate(-689.6 -166.582)" fill="#27292d"/>
        <path id="Path_144" data-name="Path 144" d="M626.477,542.9l-.051.015-.184.048a1.886,1.886,0,0,1-.445.07c-.283,0-.452-.14-.452-.379,0-.154.07-.415.529-.415h.6v.662Zm-.419-2.6a4.05,4.05,0,0,0-1.228.213l-.309.092.1.7.3-.1a3.543,3.543,0,0,1,1-.169c.132,0,.537,0,.537.437v.191H625.9c-1.026,0-1.5.327-1.5,1.029,0,.6.437.959,1.176.959a3.792,3.792,0,0,0,.816-.11l.015,0,.015,0,.088.015c.29.051.584.1.875.162v-2.294c0-.75-.445-1.125-1.327-1.125" transform="translate(-502.097 -166.582)" fill="#27292d"/>
        <path id="Path_145" data-name="Path 145" d="M485.248,540.4a2.481,2.481,0,0,0-1,.221l-.037.018-.033-.026a1.508,1.508,0,0,0-.893-.217,3.653,3.653,0,0,0-1.055.158c-.312.1-.434.246-.434.529v2.621h.978v-2.422l.048-.015a1.245,1.245,0,0,1,.43-.077.387.387,0,0,1,.426.445v2.073h.963V541.6a.711.711,0,0,0-.029-.213l-.033-.062.066-.029a1.159,1.159,0,0,1,.478-.1.389.389,0,0,1,.426.445v2.073h.959v-2.169c0-.768-.412-1.14-1.264-1.14" transform="translate(-364.533 -166.678)" fill="#27292d"/>
        <path id="Path_146" data-name="Path 146" d="M691.271,370.491a3.337,3.337,0,0,1-.57-.051l-.055-.011v-1.415a.693.693,0,0,0-.026-.2l-.029-.059.063-.026c.015-.007.029-.011.048-.018l.011-.007.066-.022a.094.094,0,0,1,.026-.007,2.281,2.281,0,0,1,.5-.059h0c.6,0,.669.533.669.934,0,.779-.39.945-.709.945m0-2.691h-.026a1.732,1.732,0,0,0-1.345.456.919.919,0,0,0-.176.548h0v1.459a.43.43,0,0,1-.029.184l-.033.063h-1.775v-1.015h0a1.512,1.512,0,0,0-1.57-1.658h-.893c-.037.261-.066.445-.1.706h.89c.467,0,.713.4.713,1.007v1.022l-.062-.033a.674.674,0,0,0-.209-.029h-1.537c-.029.195-.066.448-.107.7h4.724c.162-.033.349-.062.511-.088a2.661,2.661,0,0,0,.989.18,1.754,1.754,0,0,0,.044-3.5" transform="translate(-560.814)" fill="#27292d"/>
        <path id="Path_147" data-name="Path 147" d="M487.255,372.7h.044c1.026,0,1.5-.338,1.5-1.173a1.074,1.074,0,0,0-1.173-1.077h-.945a.407.407,0,0,1-.452-.434c0-.184.07-.412.533-.412h2.066c.044-.268.066-.437.107-.706h-2.147c-1,0-1.5.419-1.5,1.117s.437,1.051,1.173,1.051h.945a.446.446,0,0,1,.452.46.462.462,0,0,1-.529.474h-.158L484.145,372h-.551c-.467,0-.794-.265-.794-.879v-.423c0-.64.254-1.037.794-1.037h.9c.04-.272.066-.445.1-.7H483.37a1.534,1.534,0,0,0-1.57,1.684h0v.478a1.451,1.451,0,0,0,1.57,1.581h.893l1.639,0h1.353Z" transform="translate(-364.611 -1.06)" fill="#27292d"/>
      </g>
    </g>
    <rect id="Rectangle_27" data-name="Rectangle 27" width="36" height="24" rx="2" transform="translate(1581 7841)" fill="#fff"/>
    <g id="paypal" transform="translate(1571.322 7658.583)">
      <path id="Path_136" data-name="Path 136" d="M350.755,221.2h-2.281a.446.446,0,0,0-.335.268l-.939,5.9a.178.178,0,0,0,.2.2h1.207a.178.178,0,0,0,.2-.2l.268-1.677a.307.307,0,0,1,.335-.268h.738a2.338,2.338,0,0,0,2.616-2.214,1.758,1.758,0,0,0-.268-1.476,2.706,2.706,0,0,0-1.744-.537m.268,2.214c-.134.8-.738.8-1.342.8h-.4l.268-1.543c0-.067.067-.134.2-.134h.134c.4,0,.8,0,1.006.268.134.067.134.268.134.6" transform="translate(-318.087 -30.783)" fill="#139ad6"/>
      <g id="Group_70" data-name="Group 70" transform="translate(12.678 190.417)">
        <path id="Path_137" data-name="Path 137" d="M154.755,221.2h-2.281a.446.446,0,0,0-.335.268l-.939,5.9a.178.178,0,0,0,.2.2h1.073a.446.446,0,0,0,.335-.268l.268-1.61a.307.307,0,0,1,.335-.268h.738a2.337,2.337,0,0,0,2.616-2.214,1.758,1.758,0,0,0-.268-1.476,2.578,2.578,0,0,0-1.744-.537m.268,2.214c-.134.8-.738.8-1.342.8h-.335l.268-1.543c0-.067.067-.134.2-.134h.134c.4,0,.8,0,1.006.268a.718.718,0,0,1,.067.6" transform="translate(-151.2 -221.2)" fill="#263b80"/>
        <path id="Path_138" data-name="Path 138" d="M219.106,245.334h-1.073c-.067,0-.2.067-.2.134l-.067.335-.067-.134a1.578,1.578,0,0,0-1.275-.47,2.578,2.578,0,0,0-2.482,2.214,2,2,0,0,0,.4,1.677,1.69,1.69,0,0,0,1.409.537,2.144,2.144,0,0,0,1.543-.6l-.067.335a.178.178,0,0,0,.2.2h1.006a.446.446,0,0,0,.335-.268l.6-3.756c-.067-.067-.2-.2-.268-.2m-1.543,2.147a1.3,1.3,0,0,1-1.275,1.073,1.073,1.073,0,0,1-.738-.268,1.431,1.431,0,0,1-.2-.8,1.2,1.2,0,0,1,1.945-.8,1.171,1.171,0,0,1,.268.8" transform="translate(-208.642 -243.188)" fill="#263b80"/>
      </g>
      <path id="Path_139" data-name="Path 139" d="M414.306,245.334h-1.073c-.067,0-.2.067-.2.134l-.067.335-.067-.134a1.578,1.578,0,0,0-1.275-.47,2.578,2.578,0,0,0-2.482,2.214,2,2,0,0,0,.4,1.677,1.69,1.69,0,0,0,1.409.537,2.144,2.144,0,0,0,1.543-.6l-.067.335a.178.178,0,0,0,.2.2h1.006a.446.446,0,0,0,.335-.268l.6-3.756c-.067-.067-.134-.2-.268-.2m-1.543,2.147a1.3,1.3,0,0,1-1.275,1.073,1.073,1.073,0,0,1-.738-.268,1.431,1.431,0,0,1-.2-.8,1.2,1.2,0,0,1,1.945-.8.77.77,0,0,1,.268.8" transform="translate(-374.796 -52.77)" fill="#139ad6"/>
      <path id="Path_140" data-name="Path 140" d="M289.165,246.8h-1.14a.349.349,0,0,0-.268.134l-1.476,2.281-.671-2.147a.31.31,0,0,0-.335-.2H284.2c-.134,0-.2.134-.2.268l1.207,3.555-1.14,1.61c-.067.134,0,.335.134.335h1.073a.349.349,0,0,0,.268-.134l3.689-5.3c.2-.2.067-.4-.067-.4" transform="translate(-260.186 -54.236)" fill="#263b80"/>
      <path id="Path_141" data-name="Path 141" d="M476.139,221.847l-.939,6.037a.178.178,0,0,0,.2.2h.939a.446.446,0,0,0,.335-.268l.939-5.9a.178.178,0,0,0-.2-.2H476.34c-.067-.067-.134,0-.2.134" transform="translate(-435.354 -31.228)" fill="#139ad6"/>
    </g>
  </g>
</svg>
