<svg xmlns="http://www.w3.org/2000/svg" width="12.624" height="15.448" viewBox="0 0 12.624 15.448">
  <g id="apple" transform="translate(-27.875 0)">
    <path id="XMLID_229_" d="M28.527,74.336c-1.306,2.266-.476,5.706.968,7.791.721,1.043,1.451,1.978,2.45,1.978H32a3.026,3.026,0,0,0,1.137-.3,3.114,3.114,0,0,1,1.347-.319,2.929,2.929,0,0,1,1.282.309A2.717,2.717,0,0,0,37,84.085c1.126-.021,1.817-1.031,2.427-1.922a8.518,8.518,0,0,0,1.064-2.178l0-.014a.127.127,0,0,0-.067-.155l-.009,0a3.228,3.228,0,0,1-1.956-2.956,3.322,3.322,0,0,1,1.57-2.778l.012-.008a.127.127,0,0,0,.036-.178A3.654,3.654,0,0,0,37.2,72.332c-.082-.008-.166-.012-.251-.012a5.01,5.01,0,0,0-1.8.45,2.9,2.9,0,0,1-.864.258,2.827,2.827,0,0,1-.894-.261,4.331,4.331,0,0,0-1.575-.4h-.04A3.863,3.863,0,0,0,28.527,74.336Z" transform="translate(0 -68.657)" fill="#fff"/>
    <path id="XMLID_230_" d="M152.4,0a3.527,3.527,0,0,0-2.329,1.194,3.3,3.3,0,0,0-.837,2.45.127.127,0,0,0,.116.11c.054,0,.109.006.164.006a2.984,2.984,0,0,0,2.2-1.127,3.484,3.484,0,0,0,.819-2.521A.127.127,0,0,0,152.4,0Z" transform="translate(-115.189 0)" fill="#fff"/>
  </g>
</svg>
