<svg xmlns="http://www.w3.org/2000/svg" xmlns:xlink="http://www.w3.org/1999/xlink" width="28" height="18" viewBox="0 0 28 18">
  <defs>
    <clipPath id="clip-path">
      <rect id="Rectangle_31" data-name="Rectangle 31" width="24" height="14" fill="none"/>
    </clipPath>
  </defs>
  <g id="KSAFlag" transform="translate(-767 -431)">
    <rect id="Rectangle_35" data-name="Rectangle 35" width="28" height="18" rx="0.5" transform="translate(767 431)" fill="#e8e9ec"/>
    <g id="Group_62" data-name="Group 62" transform="translate(769 433)">
      <g id="Group_61" data-name="Group 61" transform="translate(0 0)">
        <g id="Group_60" data-name="Group 60" clip-path="url(#clip-path)">
          <rect id="Rectangle_29" data-name="Rectangle 29" width="24" height="14" fill="#3d9635"/>
          <g id="Group_59" data-name="Group 59">
            <g id="Group_58" data-name="Group 58" clip-path="url(#clip-path)">
              <path id="Path_73" data-name="Path 73" d="M-166.311,1306.744c-.024.327-.054.9.225.962.336.032.15-.569.272-.678.023-.054.065-.054.069.014v.51a.245.245,0,0,0,.191.249c.088-.007.147,0,.182.082q.02.441.041.882s.2.059.214-.5a5.285,5.285,0,0,1-.021-.661c0-.063.081-.067.136-.036.088.062.127.138.264.108.208-.058.332-.159.336-.318a1.406,1.406,0,0,0-.094-.455c.009-.027-.041-.1-.031-.126.037.058.094.053.107,0a.455.455,0,0,0-.179-.277c-.074-.065-.182-.051-.221.084a.736.736,0,0,0,.17.491.479.479,0,0,1,.043.245.131.131,0,0,1-.171-.033s-.166-.124-.166-.151a.6.6,0,0,0-.015-.391.535.535,0,0,0-.109-.215c-.041-.044-.1-.044-.124,0a.741.741,0,0,0,.014.52c.038.112.1.183.069.183-.023.063-.07.049-.1-.024a1.8,1.8,0,0,1-.059-.478c-.014-.126-.031-.395-.114-.462-.05-.069-.125-.036-.152.027a2.3,2.3,0,0,0,.009.365,3.985,3.985,0,0,1,.1.587c.008.276-.16.12-.152-.018a1.251,1.251,0,0,0-.006-.53c-.027-.071-.059-.088-.126-.077s-.188.144-.226.39a2.171,2.171,0,0,0-.046.238c-.019.127-.1.216-.161-.018-.051-.17-.082-.588-.166-.49" transform="translate(173.103 -1302.775)" fill="#fff"/>
              <path id="Path_74" data-name="Path 74" d="M-165.286,1311.685c-.3.145-.583.28-.875.42a.891.891,0,0,1,.693-.562c.18.005.135.07.182.141" transform="translate(172.991 -1306.375)" fill="#fff"/>
              <path id="Path_75" data-name="Path 75" d="M-163.276,1306.236c-.017,0-.035.012-.056.017a.167.167,0,0,0-.118.2c.084.514.14.9.224,1.418.013.061-.037.14-.1.132-.111-.075-.138-.226-.326-.22a.369.369,0,0,0-.312.293.708.708,0,0,0,0,.336.275.275,0,0,0,.312.078c.083-.034.151-.117.18-.1h0c.018.032,0,.3-.391.506-.239.107-.429.132-.531-.063-.064-.122.005-.585-.151-.478-.462,1.189,1.08,1.354,1.252.048.011-.036.046-.073.07-.064s.02.019.023.045c-.036,1.183-1.193,1.263-1.389.891a1.151,1.151,0,0,1-.068-.4.2.2,0,0,0-.047-.128c-.047-.035-.11.057-.123.216a1.426,1.426,0,0,0-.014.287c.061.935,1.551.533,1.792-.239a2.571,2.571,0,0,0,.038-.738H-163c.149.159.356.021.4-.035a.067.067,0,0,1,.1-.009.239.239,0,0,0,.359-.1,3.185,3.185,0,0,0,.05-.442.439.439,0,0,0-.16.066.042.042,0,0,0-.011.021c-.006.042-.013.085-.019.127a.021.021,0,0,1,0,.01.041.041,0,0,1-.014.014c-.026.014-.072.006-.075-.033-.035-.162-.183-.184-.272.068-.06.049-.17.058-.181-.015.015-.169-.054-.192-.19-.112-.044-.335-.087-.654-.131-.988.057,0,.109.04.161-.025a1.876,1.876,0,0,0-.242-.565h0l-.01-.01,0,0,0,0-.008,0a.04.04,0,0,0-.019,0m-.415,1.836a.075.075,0,0,1,.082.051.09.09,0,0,1-.015.089h0v0c-.011.015-.052.009-.081.009a.078.078,0,0,1-.073-.036c-.01-.032.02-.062.033-.086h0l.005-.007a.1.1,0,0,1,.049-.021" transform="translate(172.099 -1302.778)" fill="#fff"/>
              <path id="Path_76" data-name="Path 76" d="M-158.191,1306.152a.251.251,0,0,0-.1.029.2.2,0,0,0-.034.263c.058.028.117.087.078.119-.166.177-.6.472-.618.526v0h.005a1.228,1.228,0,0,0,.321,0h0a4.558,4.558,0,0,0,.532-.536c-.022-.02-.043-.034-.066-.054a.038.038,0,0,1,0-.063.174.174,0,0,0,.017-.266.284.284,0,0,0-.131-.026m-.021.156a.087.087,0,0,1,.076.057c.017.037.008.073-.019.079s-.064-.018-.081-.055-.008-.074.019-.08h0" transform="translate(168.052 -1302.721)" fill="#fff"/>
              <path id="Path_77" data-name="Path 77" d="M-166.37,1314.5a.866.866,0,0,0-.088.77.191.191,0,0,0,.186.062.34.34,0,0,0,.124-.331c-.034-.054-.061-.063-.1-.017-.073.148-.1.047-.109-.036a1.909,1.909,0,0,1,.02-.415c.018-.116,0-.081-.037-.034" transform="translate(173.23 -1308.347)" fill="#fff"/>
              <path id="Path_78" data-name="Path 78" d="M-147.709,1308.3c-.159-.342-.379-.681-.449-.811s-.6-.9-.677-.984c-.172-.2.279.085-.057-.321-.128-.109-.135-.116-.242-.206-.054-.038-.185-.108-.208.007a.671.671,0,0,0,.012.241.839.839,0,0,0,.136.206,15.353,15.353,0,0,1,1.471,2.366c.072-.034.056-.442.014-.5" transform="translate(161.599 -1302.563)" fill="#fff"/>
              <path id="Path_79" data-name="Path 79" d="M-146.442,1309.6c-.032.035.077.185.218.185a.828.828,0,0,0,.635-.508.9.9,0,0,0,.144-.39,8.528,8.528,0,0,0-.158-1.978.327.327,0,0,1,.006-.138c.015-.018.067,0,.095-.045s-.107-.382-.191-.513c-.03-.059-.04-.1-.09.007a.742.742,0,0,0-.083.372c.113.779.147,1.46.221,2.239a.309.309,0,0,1-.055.229,2.194,2.194,0,0,1-.743.541" transform="translate(159.633 -1302.724)" fill="#fff"/>
              <path id="Path_80" data-name="Path 80" d="M-136.827,1309.53c-.17.1-.17.21-.033.214a.842.842,0,0,0,.706-.337,1.119,1.119,0,0,0,.115-.436,10.148,10.148,0,0,0-.129-2.136,1.054,1.054,0,0,1-.023-.2c.015-.039.092,0,.12-.041s-.2-.349-.283-.48c-.03-.058-.04-.1-.09.008a.608.608,0,0,0-.049.372,20.591,20.591,0,0,1,.237,2.413.784.784,0,0,1-.047.2,1.576,1.576,0,0,1-.232.27c-.077.057-.241.112-.294.154" transform="translate(153.204 -1302.656)" fill="#fff"/>
              <path id="Path_81" data-name="Path 81" d="M-137.3,1308.752c0-.2,0-.368,0-.516s-.074-.7-.1-.821-.045-.3-.079-.44a1.48,1.48,0,0,1-.029-.25c.014-.04.067,0,.093-.045a1.577,1.577,0,0,0-.223-.621c-.032-.058-.089-.038-.16.056-.066.061-.042.2-.016.336a12.4,12.4,0,0,1,.268,2.649c-.009.072.25-.213.248-.349" transform="translate(153.799 -1302.637)" fill="#fff"/>
              <path id="Path_82" data-name="Path 82" d="M-140.89,1309.633c-.106,0-.329-.208-.394-.327a.222.222,0,0,1,.013-.176c.039-.025.1-.054.145-.026,0,0,.047.065.038.074.058.028.083.012.089-.012,0-.041-.017-.066-.017-.112a.124.124,0,0,1,.219-.064.474.474,0,0,1,.059.219c0,.036-.058-.006-.09,0s-.041.046-.043.08c-.006.09-.017.233-.019.342" transform="translate(156.143 -1304.612)" fill="#fff"/>
              <path id="Path_83" data-name="Path 83" d="M-147.2,1308.967a9.343,9.343,0,0,0-.014-.976c-.011-.374-.072-1.1-.1-1.219-.033-.228.094.025.076-.107a1.461,1.461,0,0,0-.316-.59c-.048-.068-.046-.082-.12.017a.691.691,0,0,0,.01.457,8.567,8.567,0,0,1,.2,1.332,12.01,12.01,0,0,1,.011,1.411c.08,0,.209-.13.254-.324" transform="translate(160.493 -1302.632)" fill="#fff"/>
              <path id="Path_84" data-name="Path 84" d="M-138.779,1308.546c-.188-.314-.471-.683-.546-.81s-.716-1.065-.8-1.148c-.234-.246.108-.04-.045-.23a1.852,1.852,0,0,0-.277-.271c-.055-.035-.089-.1-.107.012a2.222,2.222,0,0,0-.008.306.406.406,0,0,0,.092.19,17.392,17.392,0,0,1,1.685,2.445c.071-.037.047-.439,0-.495" transform="translate(155.645 -1302.642)" fill="#fff"/>
              <path id="Path_85" data-name="Path 85" d="M-155.611,1325.352h0a.158.158,0,0,0-.054.291c-1.753,0-4.443-.03-5.019-.03-.323,0-1.343-.038-1.363-.038a1.032,1.032,0,0,0,.95.391c.779,0,4.386-.01,5.412-.01a.359.359,0,0,0,.064.376l0,0,.007,0h0c.069.016.1-.033.122-.069a7,7,0,0,0,.787,0h0c.038.056.077.11.149.1.128-.028.229-.041.232-.3,0,0-.013-.442-.3-.415-.069.01-.261.03-.261.03-.223-.026-.387-.029-.638-.039.023-.029.064-.148.014-.192a.082.082,0,0,0-.06-.015h-.006l0,0,0,0c-.013-.019-.02-.064-.028-.076h-.005m.119.632h0c.256.013.5,0,.752.015a.093.093,0,0,1-.006.128l0,0h-.006l-.215-.007a.038.038,0,0,0,0-.012c-.02-.059-.162-.055-.2-.009l0,0,0,0,0,0a.02.02,0,0,0,0,.006v.007a1.962,1.962,0,0,1-.326-.008c-.033-.041-.029-.115.01-.133" transform="translate(170.204 -1315.731)" fill="#fff"/>
              <path id="Path_86" data-name="Path 86" d="M-155.955,1306.169c-.171.489.1,1.023.285.971.134.055.22-.2.275-.481.038-.078.066-.087.085-.046,0,.373.027.455.123.568a.309.309,0,0,0,.4.007l.167-.167a.1.1,0,0,1,.139-.007c.051.046.043.126.152.182a.338.338,0,0,0,.333-.071c.061-.1.075-.14.1-.18.044-.058.118-.032.118-.013s-.05.064-.021.123c.052.039.064.014.095.005.108-.052.19-.288.19-.288,0-.088-.044-.081-.076-.063s-.044.034-.086.059c-.053.008-.155.043-.207-.036a3.15,3.15,0,0,1-.092-.322c0-.007-.069-.15-.005-.16.032.006.1.024.112-.034.034-.057-.073-.218-.145-.3a.157.157,0,0,0-.236-.007c-.059.054-.051.115-.063.173a.269.269,0,0,0,.056.235.718.718,0,0,1,.131.479.192.192,0,0,1-.173.087c-.045-.01-.12-.029-.159-.322a2.123,2.123,0,0,0-.087-.678c-.034-.088-.059-.173-.142-.023a.348.348,0,0,0-.049.333.992.992,0,0,1,.054.518,1.021,1.021,0,0,1-.1.141.164.164,0,0,1-.211.029.225.225,0,0,1-.126-.177,2.45,2.45,0,0,0-.02-.573.1.1,0,0,0-.173-.035,1.305,1.305,0,0,0-.314.645c-.048.156-.1.112-.136.049-.089-.083-.094-.73-.2-.625" transform="translate(166.113 -1302.471)" fill="#fff"/>
              <path id="Path_87" data-name="Path 87" d="M-158.212,1310.114l0,0,0,0c-.012.008-.026.028-.055.049-.05.057-.058.1-.055.211,0,.012.094.268.173.449a1.393,1.393,0,0,1,.066.6,1.5,1.5,0,0,1-.611.639.317.317,0,0,1-.255,0h0a.16.16,0,0,1-.068-.145h0a1.441,1.441,0,0,0,.614-.635.649.649,0,0,0,.017-.457.439.439,0,0,0-.1-.211h0c.034-.016.123.049.137.008a.668.668,0,0,0-.176-.324.148.148,0,0,0-.216-.013c-.074.041-.09.189-.054.32.039.1.147.114.223.311h0c0,.012.026.147-.013.2a2.4,2.4,0,0,1-.46.432l0,0h-.005v0c0-.007,0-.028,0-.061,0-.059.022-.193.019-.216h0c-.133.085-.176.348-.2.425a6.274,6.274,0,0,0-.935.639c-.114.178.787-.205.891-.252l0,0c.02.022.021.1.081.167a.476.476,0,0,0,.486.157,1.544,1.544,0,0,0,.7-.584c.027-.04.07-.071.11-.04a1.1,1.1,0,0,0,1,.523c.113-.137.059-.2.014-.234-.014-.009-.242-.1-.278-.187s.031-.156.14-.21a4.922,4.922,0,0,0,.92-.177.8.8,0,0,1,.1-.315.159.159,0,0,1,.052-.056h0v0a.029.029,0,0,0,0-.008l-.051-.03-1,0a.112.112,0,0,1-.027-.014v0h0v0h0v0a.072.072,0,0,1,.032-.018c.239-.033.663-.1.692-.51a.357.357,0,0,0-.352-.39.354.354,0,0,0-.306.4c-.009.055.019.162-.038.175-.367.034-.769.264-.782.429h-.017a.1.1,0,0,1-.05-.1,1.958,1.958,0,0,0-.252-.855c-.052-.052-.074-.073-.089-.075h-.007m1.462.365a.137.137,0,0,1,.078.021.1.1,0,0,1,.061.083v.011l-.005.006a.1.1,0,0,1-.1-.009.107.107,0,0,1-.062-.083v0a.029.029,0,0,1,0-.009l0,0h0l0,0a.043.043,0,0,1,.025-.009m-.93.844h.011a3.08,3.08,0,0,0,.418.047c.116.008.174.1.065.137s-.21.065-.211.22c.014.077.011.117,0,.136l0,0h-.005l-.005,0h0c-.027,0-.064-.021-.092-.035a.568.568,0,0,1-.278-.41.1.1,0,0,1,.1-.108" transform="translate(168.946 -1305.406)" fill="#fff"/>
              <path id="Path_88" data-name="Path 88" d="M-162.539,1306.421c.115.055.332.032.323-.155,0-.016,0-.072-.006-.087-.023-.055-.087-.041-.1.015,0,.019.008.048-.008.058s-.047,0-.045-.048a.087.087,0,0,0-.019-.044.039.039,0,0,0-.025-.006c-.016,0-.016.005-.024.018a.142.142,0,0,0-.009.043c0,.018-.009.025-.023.028s-.011,0-.024-.006-.016-.011-.016-.025a.138.138,0,0,0-.007-.045.048.048,0,0,0-.028-.016c-.063,0-.067.073-.064.1,0,.005-.007.134.078.17" transform="translate(170.591 -1302.717)" fill="#fff"/>
              <path id="Path_89" data-name="Path 89" d="M-152.068,1310.854c.115.054.389.023.323-.155,0-.016,0-.072-.006-.087-.023-.054-.087-.042-.1.015,0,.019.008.049-.008.058s-.047,0-.045-.047a.089.089,0,0,0-.019-.045.039.039,0,0,0-.025-.006c-.016,0-.016.005-.024.019a.141.141,0,0,0-.009.043c0,.018-.009.025-.023.027s-.011,0-.024-.006-.016-.011-.016-.025a.139.139,0,0,0-.007-.046.045.045,0,0,0-.028-.015c-.063,0-.067.072-.064.1,0,.005-.007.133.078.17" transform="translate(163.496 -1305.719)" fill="#fff"/>
              <path id="Path_90" data-name="Path 90" d="M-145.961,1309.019c.115.055.331.031.322-.154,0-.017,0-.072-.005-.087-.024-.055-.088-.041-.1.015,0,.019.008.049-.009.058s-.046,0-.044-.047a.086.086,0,0,0-.02-.044.034.034,0,0,0-.024-.006c-.016,0-.016,0-.025.018a.177.177,0,0,0-.009.043c0,.018-.009.025-.022.028s-.012,0-.024-.006-.016-.011-.016-.024a.165.165,0,0,0-.007-.046.057.057,0,0,0-.028-.015c-.063,0-.068.072-.064.1-.005.006-.007.134.078.17" transform="translate(159.359 -1304.477)" fill="#fff"/>
              <path id="Path_91" data-name="Path 91" d="M-142.895,1308.663a.7.7,0,0,0-.066.681.534.534,0,0,0,.248.282.173.173,0,0,0,.259-.028c.118-.122.12-.434.175-.5a.1.1,0,0,1,.184-.043.458.458,0,0,0,.168.145.282.282,0,0,0,.37.026.426.426,0,0,0,.2-.24,9.009,9.009,0,0,0,.014-1.414c0-.033-.114-.58-.114-.586s-.014-.279-.026-.344c0-.026-.008-.034.019-.03a.15.15,0,0,0,.051.034c.03.006.056-.045.038-.091l-.274-.507c-.022-.022-.051-.045-.086.006a.2.2,0,0,0-.068.15c.008.12.029.242.038.363q.055.308.11.616c.034.44.043.842.078,1.281,0,.186-.063.433-.117.456,0,0-.082.048-.137-.005a1.627,1.627,0,0,1-.2-.268.122.122,0,0,0-.2,0,2.693,2.693,0,0,0-.344.65c-.029.044-.109.083-.2,0a.916.916,0,0,1-.122-.633" transform="translate(157.312 -1302.635)" fill="#fff"/>
              <path id="Path_92" data-name="Path 92" d="M-145.9,1306.248a.381.381,0,0,1,.152.354c-.021.126-.076.263-.115.245s.029-.125-.012-.24c-.023-.075-.163-.212-.149-.252-.029-.084.06-.121.124-.106" transform="translate(159.352 -1302.784)" fill="#fff"/>
              <path id="Path_93" data-name="Path 93" d="M-142.729,1308.834a3.18,3.18,0,0,0-.022-.552c-.007-.147-.167-1.344-.2-1.455-.04-.211.156-.028.134-.151-.067-.155-.235-.38-.288-.514-.032-.057-.018-.109-.09-.015a1.153,1.153,0,0,0-.063.525,11.419,11.419,0,0,1,.315,2.528c.08,0,.173-.184.212-.366" transform="translate(157.478 -1302.683)" fill="#fff"/>
              <path id="Path_94" data-name="Path 94" d="M-136.379,1307.176c.094.047.149.308.139.383-.019.137-.069.285-.1.265s.008-.2-.011-.26c-.021-.081-.149-.229-.136-.273a.089.089,0,0,1,.112-.115" transform="translate(152.891 -1303.412)" fill="#fff"/>
              <path id="Path_95" data-name="Path 95" d="M-158.049,1313.111c.09.035.143.227.133.282-.018.1-.066.209-.1.2s.007-.149-.011-.192c-.007-.1-.133-.156-.13-.2-.024-.082.052-.1.107-.085" transform="translate(167.571 -1307.434)" fill="#fff"/>
              <path id="Path_96" data-name="Path 96" d="M-165.506,1306.054c.133.04.14.235.131.293-.018.1-.064.217-.1.2s0-.155-.019-.2c-.02-.062-.132-.175-.119-.208-.025-.07.052-.1.106-.088" transform="translate(172.623 -1302.653)" fill="#fff"/>
              <path id="Path_97" data-name="Path 97" d="M-157.37,1308.88a.237.237,0,0,0-.078.315.153.153,0,0,0,.165.053c.1.012.159-.187.159-.187s0-.056-.116.05c-.05.01-.056-.009-.068-.037a.246.246,0,0,1,.015-.156c.018-.05-.021-.071-.078-.037" transform="translate(167.108 -1304.558)" fill="#fff"/>
              <path id="Path_98" data-name="Path 98" d="M-155.109,1305.787a.369.369,0,0,0-.156.262c0,.069-.016.069.029.112s.065.043.131.009a.14.14,0,0,0,.063-.093c.016-.078-.082.037-.095-.05s.041-.113.1-.191c0-.053,0-.091-.072-.048" transform="translate(165.612 -1302.461)" fill="#fff"/>
              <path id="Path_99" data-name="Path 99" d="M-152.961,1305.957a1.609,1.609,0,0,0-.044.3c-.018.076.08.108.124.011a.936.936,0,0,0,.07-.331c-.02-.116-.1-.112-.15.016" transform="translate(164.078 -1302.521)" fill="#fff"/>
              <path id="Path_100" data-name="Path 100" d="M-140.892,1311.463c.014-.013.547-.393.547-.393.054-.019.042.2.017.194a2.112,2.112,0,0,1-.565.393c-.026.019-.053-.147,0-.194" transform="translate(155.89 -1306.053)" fill="#fff"/>
              <path id="Path_101" data-name="Path 101" d="M-139.556,1312.274c.094.047.131.322.121.4,0,.145-.091.262-.127.243s0-.18-.015-.239c-.021-.081-.1-.233-.087-.277a.092.092,0,0,1,.108-.124" transform="translate(155.041 -1306.867)" fill="#fff"/>
              <path id="Path_102" data-name="Path 102" d="M-149.2,1315.661a.684.684,0,0,1,.154-.132.1.1,0,0,1,.1.018c.009.053-.033.1-.02.173.011.028.02.06.072.048a.385.385,0,0,1,.248-.075c.065,0,.067.114.026.115a1.912,1.912,0,0,0-.338.118.077.077,0,0,1-.1-.012.1.1,0,0,1-.01-.1c0-.056-.018-.087-.065-.081s-.066.032-.084-.009-.009-.045.014-.061" transform="translate(161.512 -1309.069)" fill="#fff"/>
              <path id="Path_103" data-name="Path 103" d="M-137.824,1316.092a.068.068,0,0,1,0,.1c-.037.035-.064.053-.1.087-.017.03-.028.076.026.091.1.028.33-.122.33-.125a.072.072,0,0,0,.022-.081c-.022-.025-.071-.01-.1-.014-.016,0-.067-.008-.042-.053a.321.321,0,0,0,.042-.081c.015-.034,0-.057-.054-.076a.458.458,0,0,0-.144,0c-.034.007-.045.023-.052.064,0,.064.041.059.08.085" transform="translate(153.871 -1309.351)" fill="#fff"/>
            </g>
          </g>
        </g>
      </g>
    </g>
  </g>
</svg>
