<svg xmlns="http://www.w3.org/2000/svg" width="29.582" height="7.982" viewBox="0 0 29.582 7.982">
  <g id="paypal" transform="translate(-12.678 -190.417)">
    <path id="Path_136" data-name="Path 136" d="M350.755,221.2h-2.281a.446.446,0,0,0-.335.268l-.939,5.9a.178.178,0,0,0,.2.2h1.207a.178.178,0,0,0,.2-.2l.268-1.677a.307.307,0,0,1,.335-.268h.738a2.338,2.338,0,0,0,2.616-2.214,1.758,1.758,0,0,0-.268-1.476,2.706,2.706,0,0,0-1.744-.537m.268,2.214c-.134.8-.738.8-1.342.8h-.4l.268-1.543c0-.067.067-.134.2-.134h.134c.4,0,.8,0,1.006.268.134.067.134.268.134.6" transform="translate(-318.087 -30.783)" fill="#139ad6"/>
    <g id="Group_70" data-name="Group 70" transform="translate(12.678 190.417)">
      <path id="Path_137" data-name="Path 137" d="M154.755,221.2h-2.281a.446.446,0,0,0-.335.268l-.939,5.9a.178.178,0,0,0,.2.2h1.073a.446.446,0,0,0,.335-.268l.268-1.61a.307.307,0,0,1,.335-.268h.738a2.337,2.337,0,0,0,2.616-2.214,1.758,1.758,0,0,0-.268-1.476,2.578,2.578,0,0,0-1.744-.537m.268,2.214c-.134.8-.738.8-1.342.8h-.335l.268-1.543c0-.067.067-.134.2-.134h.134c.4,0,.8,0,1.006.268a.718.718,0,0,1,.067.6" transform="translate(-151.2 -221.2)" fill="#263b80"/>
      <path id="Path_138" data-name="Path 138" d="M219.106,245.334h-1.073c-.067,0-.2.067-.2.134l-.067.335-.067-.134a1.578,1.578,0,0,0-1.275-.47,2.578,2.578,0,0,0-2.482,2.214,2,2,0,0,0,.4,1.677,1.69,1.69,0,0,0,1.409.537,2.144,2.144,0,0,0,1.543-.6l-.067.335a.178.178,0,0,0,.2.2h1.006a.446.446,0,0,0,.335-.268l.6-3.756c-.067-.067-.2-.2-.268-.2m-1.543,2.147a1.3,1.3,0,0,1-1.275,1.073,1.073,1.073,0,0,1-.738-.268,1.431,1.431,0,0,1-.2-.8,1.2,1.2,0,0,1,1.945-.8,1.171,1.171,0,0,1,.268.8" transform="translate(-208.642 -243.188)" fill="#263b80"/>
    </g>
    <path id="Path_139" data-name="Path 139" d="M414.306,245.334h-1.073c-.067,0-.2.067-.2.134l-.067.335-.067-.134a1.578,1.578,0,0,0-1.275-.47,2.578,2.578,0,0,0-2.482,2.214,2,2,0,0,0,.4,1.677,1.69,1.69,0,0,0,1.409.537,2.144,2.144,0,0,0,1.543-.6l-.067.335a.178.178,0,0,0,.2.2h1.006a.446.446,0,0,0,.335-.268l.6-3.756c-.067-.067-.134-.2-.268-.2m-1.543,2.147a1.3,1.3,0,0,1-1.275,1.073,1.073,1.073,0,0,1-.738-.268,1.431,1.431,0,0,1-.2-.8,1.2,1.2,0,0,1,1.945-.8.77.77,0,0,1,.268.8" transform="translate(-374.796 -52.77)" fill="#139ad6"/>
    <path id="Path_140" data-name="Path 140" d="M289.165,246.8h-1.14a.349.349,0,0,0-.268.134l-1.476,2.281-.671-2.147a.31.31,0,0,0-.335-.2H284.2c-.134,0-.2.134-.2.268l1.207,3.555-1.14,1.61c-.067.134,0,.335.134.335h1.073a.349.349,0,0,0,.268-.134l3.689-5.3c.2-.2.067-.4-.067-.4" transform="translate(-260.186 -54.236)" fill="#263b80"/>
    <path id="Path_141" data-name="Path 141" d="M476.139,221.847l-.939,6.037a.178.178,0,0,0,.2.2h.939a.446.446,0,0,0,.335-.268l.939-5.9a.178.178,0,0,0-.2-.2H476.34c-.067-.067-.134,0-.2.134" transform="translate(-435.354 -31.228)" fill="#139ad6"/>
  </g>
</svg>
