<svg id="card" xmlns="http://www.w3.org/2000/svg" width="24.696" height="14.769" viewBox="0 0 24.696 14.769">
  <g id="Group_50" data-name="Group 50" transform="translate(0 0)">
    <path id="Path_3" data-name="Path 3" d="M59.484,46.869h.4l.37-.025.37-.049.37-.074.346-.074.346-.1.346-.123.346-.123.321-.148.321-.173.321-.173.3-.2.3-.2.272-.222.272-.247.247-.247.247-.247.247-.272.2-.272.222-.3.2-.3L66,42.991l.148-.321.148-.321.148-.321.123-.346.1-.37.074-.346.074-.37.025-.37.049-.37v-.766l-.049-.37-.025-.37-.074-.37-.074-.346-.1-.346-.123-.346-.148-.346-.148-.321L66,35.953l-.173-.3-.2-.3-.222-.3-.2-.272-.247-.272-.247-.272L64.473,34l-.272-.222-.272-.222-.3-.2-.3-.2-.321-.173-.321-.173-.321-.148-.346-.123-.346-.123-.346-.1-.346-.074-.37-.074-.37-.049-.37-.025h-.766l-.37.025-.37.049-.37.074-.37.074-.346.1-.346.123-.321.123-.321.148-.321.173-.321.173-.3.2-.3.2-.272.222L54.52,34l-.247.247-.247.272-.222.272-.222.272-.222.3-.173.3-.173.3-.173.321-.148.321-.123.346-.123.346-.1.346-.074.346-.074.37-.049.37-.025.37-.025.37.025.4.025.37.049.37.074.37.074.346.1.37.123.346.123.321.148.321.173.321.173.321.173.3.222.3.222.272.222.272.247.247.247.247.272.247.272.222.3.2.3.2.321.173.321.173.321.148.321.123.346.123.346.1.37.074.37.074.37.049.37.025Z" transform="translate(-42.197 -32.1)" fill="#fbb231" fill-rule="evenodd"/>
    <path id="Path_4" data-name="Path 4" d="M19.409,46.869h.37l.37-.025.37-.049.37-.074.37-.074.346-.1.346-.123.321-.123.321-.148.321-.173.321-.173.3-.2.3-.2.272-.222.272-.247.247-.247.247-.247.222-.272.222-.272.222-.3.173-.3.173-.321.173-.321.148-.321.123-.321.123-.346.1-.37.074-.346.074-.37.049-.37.025-.37.025-.4-.025-.37-.025-.37-.049-.37-.074-.37-.074-.346-.1-.346-.123-.346-.123-.346-.148-.321-.173-.321-.173-.3-.173-.3-.222-.3-.222-.272-.222-.272-.247-.272L24.373,34l-.272-.222-.272-.222-.3-.2-.3-.2-.321-.173-.321-.173-.321-.148-.321-.123-.346-.123-.346-.1-.37-.074-.37-.074-.37-.049-.37-.025h-.766l-.37.025-.37.049-.37.074-.346.074-.346.1-.346.123-.346.123-.321.148-.321.173-.321.173-.3.2-.3.2-.272.222L14.42,34l-.247.247-.247.272-.247.272-.2.272-.222.3-.2.3-.173.3-.148.321-.148.321-.148.346-.123.346-.1.346-.074.346-.074.37-.025.37-.049.37v.766l.049.37.025.37.074.37.074.346.1.37.123.346.148.321.148.321.148.321.173.321.2.3.222.3.2.272.247.272.247.247.247.247.272.247.272.222.3.2.3.2.321.173.321.173.321.148.346.123.346.123.346.1.346.074.37.074.37.049.37.025Z" transform="translate(-12 -32.1)" fill="#ec1c2e" fill-rule="evenodd"/>
    <path id="Path_5" data-name="Path 5" d="M58.5,42.32h3.927V41.9H58.846l-.346.42Z" transform="translate(-47.016 -39.48)" fill="#fbb231" fill-rule="evenodd"/>
    <path id="Path_6" data-name="Path 6" d="M56.1,45.92h4.519V45.5H56.347l-.247.42Z" transform="translate(-45.209 -42.191)" fill="#fbb231" fill-rule="evenodd"/>
    <path id="Path_7" data-name="Path 7" d="M54.3,49.52h4.964V49.1H54.473l-.173.42Z" transform="translate(-43.854 -44.902)" fill="#fbb231" fill-rule="evenodd"/>
    <path id="Path_8" data-name="Path 8" d="M53.1,53.2h5.26v-.4H53.223l-.123.4Z" transform="translate(-42.95 -47.688)" fill="#fbb231" fill-rule="evenodd"/>
    <path id="Path_9" data-name="Path 9" d="M53.423,70.6h5.087v-.4H53.3l.123.4Z" transform="translate(-43.101 -60.791)" fill="#fbb231" fill-rule="evenodd"/>
    <path id="Path_10" data-name="Path 10" d="M54.773,74.22H59.49V73.8H54.6l.173.42Z" transform="translate(-44.079 -63.502)" fill="#fbb231" fill-rule="evenodd"/>
    <path id="Path_11" data-name="Path 11" d="M56.747,77.82h4.174V77.4H56.5l.247.42Z" transform="translate(-45.51 -66.212)" fill="#fbb231" fill-rule="evenodd"/>
    <path id="Path_12" data-name="Path 12" d="M59.346,81.42H62.8V81H59l.346.42Z" transform="translate(-47.393 -68.923)" fill="#fbb231" fill-rule="evenodd"/>
    <path id="Path_13" data-name="Path 13" d="M52.4,56.8h5.433v-.4H52.474l-.074.4Z" transform="translate(-42.423 -50.399)" fill="#fbb231" fill-rule="evenodd"/>
    <path id="Path_14" data-name="Path 14" d="M65.8,67h2.074v-.4h-2L65.8,67Z" transform="translate(-52.514 -58.08)" fill="#fbb231" fill-rule="evenodd"/>
    <path id="Path_15" data-name="Path 15" d="M66.5,63.4h1.9V63H66.574l-.074.4Z" transform="translate(-53.041 -55.369)" fill="#fbb231" fill-rule="evenodd"/>
    <path id="Path_16" data-name="Path 16" d="M51.8,63h.543v.4h-.519L51.8,63Z" transform="translate(-41.971 -55.369)" fill="#fbb231" fill-rule="evenodd"/>
    <path id="Path_17" data-name="Path 17" d="M41.4,59.117h-.148l-.025-.025h-.173L41,59.068h-.148l-.074.025h-.173l-.025.025-.049.025H40.51l-.049.025-.025.025-.025.025v.025l-.025.025v.1l.025.025.025.049.025.025.049.049.049.025.074.049.074.025.074.025.1.025.074.025.074.025.074.049.074.049.049.074.074.074.025.1.025.1.025.148-.025.148v.123l-.049.1-.025.1-.049.074-.074.074-.049.074-.074.049-.074.049-.074.025-.1.049-.074.025h-.1l-.074.025h-.074l-.1.025h-.37l-.074-.025h-.272l-.049-.025h-.1l-.025-.025h-.049l-.049-.025h-.025l-.049-.025.1-.543h.074l.025.025h.074l.049.025H39.7l.049.025h.074l.049.025h.494l.074-.025.049-.025.025-.049.025-.025.025-.049v-.025l.025-.049v-.074l-.025-.049-.049-.049-.049-.049-.074-.049-.1-.025-.1-.025-.1-.049-.1-.049-.1-.049-.074-.074-.074-.074-.074-.1-.049-.1-.025-.148.025-.148v-.1l.025-.1.025-.074.025-.074.049-.074.025-.074.074-.074.049-.049.074-.049.074-.025.1-.049.1-.025.1-.025.123-.025h.667l.074.025h.123l.049.025H41.5l.025.025-.123.543Z" transform="translate(-32.558 -51.98)" fill="#fff" fill-rule="evenodd"/>
    <path id="Path_18" data-name="Path 18" d="M41.4,59.117h-.148l-.025-.025h-.173L41,59.068h-.148l-.074.025h-.173l-.025.025-.049.025H40.51l-.049.025-.025.025-.025.025v.025l-.025.025v.1l.025.025.025.049.025.025h0l.049.049.049.025.074.049.074.025.074.025.1.025.074.025.074.025.074.049.074.049.049.074.074.074.025.1.025.1.025.148-.025.148h0v.123l-.049.1-.025.1-.049.074-.074.074-.049.074-.074.049-.074.049-.074.025-.1.049-.074.025h-.1l-.074.025h-.074l-.1.025h-.37l-.074-.025h-.272l-.049-.025h-.1l-.025-.025h-.049l-.049-.025h-.025l-.049-.025.1-.543h.074l.025.025h.074l.049.025H39.7l.049.025h.074l.049.025h.494l.074-.025.049-.025.025-.049.025-.025.025-.049v-.025l.025-.049h0v-.074l-.025-.049-.049-.049-.049-.049-.074-.049-.1-.025-.1-.025-.1-.049-.1-.049-.1-.049-.074-.074-.074-.074-.074-.1-.049-.1-.025-.148.025-.148h0v-.1l.025-.1.025-.074.025-.074.049-.074.025-.074.074-.074.049-.049.074-.049.074-.025.1-.049.1-.025.1-.025.123-.025h.667l.074.025h.123l.049.025H41.5l.025.025-.123.543" transform="translate(-32.558 -51.98)" fill="none" stroke="#fff" stroke-miterlimit="2.613" stroke-width="0.216"/>
    <path id="Path_19" data-name="Path 19" d="M48.694,56.3h.691l-.1.593h.4l-.074.568-.445-.025-.247,1.408v.049l.025.025.025.049.025.025.049.025h.049l.049.025h.123l.049-.025h.074l.025-.025h.049l-.074.469h-.049v.025h-.025l-.025.025h-.074l-.025.025h-.074l-.025.025h-.42l-.074-.025h-.1l-.049-.025-.074-.025-.049-.025-.025-.025-.049-.025-.025-.049v-.025l-.025-.049v-.272l.494-2.717Z" transform="translate(-39.26 -50.323)" fill="#fff" fill-rule="evenodd"/>
    <path id="Path_20" data-name="Path 20" d="M48.694,56.3h.691l-.1.593h.4l-.074.568-.445-.025-.247,1.408h0v.049l.025.025.025.049.025.025.049.025h.049l.049.025h.123l.049-.025h.074l.025-.025h.049l-.074.469h-.049v.025h-.025l-.025.025h-.074l-.025.025h-.074l-.025.025h-.42l-.074-.025h-.1l-.049-.025-.074-.025-.049-.025-.025-.025-.049-.025-.025-.049v-.025l-.025-.049v-.272l.494-2.717" transform="translate(-39.26 -50.323)" fill="none" stroke="#fff" stroke-miterlimit="2.613" stroke-width="0.216"/>
    <path id="Path_21" data-name="Path 21" d="M54.241,60.056h0l-.025.049v.074l.025.049.025.049v.049l.049.049.025.049.025.025.049.049.025.025.049.049.049.025.049.025h.049l.049.025h.123l.074.025H55.2l.074-.025h.074l.049-.025.074-.025.074-.025.074-.025L55.7,60.5l.074-.025-.1.617h-.049l-.049.025-.025.025H55.5l-.025.025h-.049l-.049.025H55.3l-.049.025h-.642l-.123-.025-.123-.025-.123-.049-.123-.049-.123-.049-.1-.074-.1-.1-.074-.1-.074-.1-.074-.148-.025-.148-.025-.173-.025-.173.025-.2h0v-.1l.025-.074.025-.1.025-.1.025-.124.049-.1.049-.123.074-.1.074-.1.1-.1.123-.074.123-.074.148-.074.148-.025.173-.049h.42l.1.025.1.025.1.049.1.025.1.074.074.074.074.074.049.1.049.123.049.123.025.148v.173l-.025.2-.025.2-.025.148h-1.8l.1-.469h1.087l.025-.074-.025-.049V59.34L55.2,59.29l-.025-.025-.025-.049-.025-.025-.025-.025-.025-.025-.049-.025-.025-.025-.049-.025h-.074l-.049-.025h-.049l-.049.025H54.71l-.049.025-.049.025h-.025l-.049.049-.025.025-.025.025-.049.049-.025.025-.025.049-.025.049v.049l-.025.049v.049l-.1.519" transform="translate(-43.251 -51.98)" fill="none" stroke="#fff" stroke-miterlimit="2.613" stroke-width="0.216"/>
    <path id="Path_22" data-name="Path 22" d="M72.744,56.664l-.025-.025h-.025l-.049-.025-.025-.025h-.049l-.025-.025H72.5l-.049-.025-.049-.025h-.1l-.049-.025h-.42l-.074.025-.074.025-.074.025-.074.025-.074.049-.049.049-.074.074-.049.074-.074.1-.049.1-.049.123-.049.148-.049.173v.074l-.025.1V57.9l.025.074.025.074.025.074.049.074.049.074.049.049.049.049.074.049.074.025.074.049.1.025h.074l.049.025h.272l.074-.025h.074l.049-.025.074-.025.049-.025.074-.025.049-.049.049-.025-.123.667h0l-.025.025H72.3l-.025.025-.025.025h-.025l-.049.025-.049.025h-.049L72,59.159h-.074l-.074.025h-.469l-.123-.025-.123-.025-.1-.025-.124-.049-.123-.074-.1-.074-.1-.074-.1-.1-.074-.123-.074-.123-.049-.148-.049-.148-.025-.173L70.2,57.85l.025-.2.025-.2.025-.1v-.1l.049-.1.025-.1.025-.074.025-.1.025-.074.049-.074.025-.074.049-.074.025-.074.049-.074.049-.049.049-.074.049-.049.049-.049.074-.049.049-.049.049-.049.074-.025L71.138,56l.049-.025.074-.025.074-.049.074-.025h.074l.074-.025.1-.025h.074l.1-.025h.346l.074.025H72.4l.049.025.074.025h.049l.074.025h.049l.049.025.025.025h.049l.025.025h.049l-.148.692Z" transform="translate(-55.827 -49.947)" fill="#fff" fill-rule="evenodd"/>
    <path id="Path_23" data-name="Path 23" d="M72.744,56.664h0l-.025-.025h-.025l-.049-.025-.025-.025h-.049l-.025-.025H72.5l-.049-.025-.049-.025h-.1l-.049-.025h-.42l-.074.025-.074.025-.074.025-.074.025-.074.049-.049.049-.074.074-.049.074-.074.1-.049.1-.049.123-.049.148-.049.173h0v.074l-.025.1V57.9l.025.074.025.074.025.074.049.074.049.074.049.049.049.049.074.049.074.025.074.049.1.025h.074l.049.025h.272l.074-.025h.074l.049-.025.074-.025.049-.025.074-.025.049-.049.049-.025-.123.667h0l-.025.025H72.3l-.025.025-.025.025h-.025l-.049.025-.049.025h-.049L72,59.159h-.074l-.074.025h-.469l-.123-.025-.123-.025-.1-.025-.124-.049-.123-.074-.1-.074-.1-.074-.1-.1-.074-.123-.074-.123-.049-.148-.049-.148-.025-.173L70.2,57.85l.025-.2.025-.2h0l.025-.1v-.1l.049-.1.025-.1.025-.074.025-.1.025-.074.049-.074.025-.074.049-.074.025-.074.049-.074.049-.049.049-.074.049-.049.049-.049.074-.049.049-.049.049-.049.074-.025L71.138,56l.049-.025.074-.025.074-.049.074-.025h.074l.074-.025.1-.025h.074l.1-.025h.346l.074.025H72.4l.049.025.074.025h.049l.074.025h.049l.049.025.025.025h.049l.025.025h.049l-.148.692" transform="translate(-55.827 -49.947)" fill="none" stroke="#fff" stroke-miterlimit="2.613" stroke-width="0.216"/>
    <path id="Path_24" data-name="Path 24" d="M98.472,59.56h-.691l.049-.272v-.025l-.049.049-.025.049-.049.025-.049.049-.049.025-.025.025-.049.025-.049.025-.049.025h-.049l-.049.025h-.1l-.049.025h-.1l-.123-.025-.123-.025-.1-.049-.123-.049-.074-.074-.074-.074-.074-.1-.074-.1-.049-.123-.025-.1-.025-.123-.025-.148v-.37l.025-.123.049-.148.025-.148.049-.123.074-.123.074-.1.074-.1.074-.1.074-.074.1-.074.074-.074.1-.049.1-.049.1-.025.1-.025.1-.025h.247l.074.025.049.025h.049l.049.025.049.049.049.025.049.025.025.025.049.025.025.049.025.025.025.025.025.049v.025h0l.173-.988h.691l-.568,3.26Z" transform="translate(-75.406 -50.323)" fill="#fff" fill-rule="evenodd"/>
    <path id="Path_25" data-name="Path 25" d="M98.472,59.56h-.691l.049-.272v-.025h0l-.049.049-.025.049-.049.025-.049.049-.049.025-.025.025-.049.025-.049.025-.049.025h-.049l-.049.025h-.1l-.049.025h-.1l-.123-.025-.123-.025-.1-.049-.123-.049-.074-.074-.074-.074-.074-.1-.074-.1-.049-.123-.025-.1-.025-.123-.025-.148v-.37l.025-.123h0l.049-.148.025-.148.049-.123.074-.123.074-.1.074-.1.074-.1.074-.074.1-.074.074-.074.1-.049.1-.049.1-.025.1-.025.1-.025h.247l.074.025.049.025h.049l.049.025.049.049.049.025.049.025.025.025.049.025.025.049.025.025.025.025.025.049v.025h0l.173-.988h.691l-.568,3.26" transform="translate(-75.406 -50.323)" fill="none" stroke="#fff" stroke-miterlimit="2.613" stroke-width="0.216"/>
    <path id="Path_26" data-name="Path 26" d="M99.746,62.582h.074l.074-.025.049-.025.049-.025.074-.025.049-.049.049-.025.025-.049.049-.049.025-.049.025-.074.049-.049.025-.074v-.049l.025-.074.025-.074v-.4l-.025-.074-.025-.049-.025-.049-.025-.049-.025-.025-.049-.049-.049-.025-.025-.025h-.049l-.074-.025-.049.025h-.074l-.049.025-.049.025-.049.025-.049.049-.049.025-.049.049L99.6,61.4l-.049.049-.025.049-.025.074-.025.074-.025.049-.025.074v.074l-.025.123v.123l.025.1.025.123.049.1.074.1.074.049.1.025Z" transform="translate(-77.816 -53.938)" fill="#fbb231" fill-rule="evenodd"/>
    <path id="Path_27" data-name="Path 27" d="M31.872,60.749l-.1.543h-.617l.025-.1V61.02L31.205,61l-.049.049-.025.025-.049.049-.049.025-.074.049-.049.025-.074.025-.074.025-.049.025-.074.025h-.074l-.074.025h-.222l-.074-.025-.074-.025-.074-.025-.074-.025-.074-.049-.049-.025-.049-.049-.049-.049-.025-.049-.025-.049-.025-.049-.025-.049-.025-.074v-.1l-.025-.074v-.049l.025-.1V60.4l.025-.1.049-.074.025-.1.049-.074.049-.049.074-.074.049-.049.074-.049.074-.049.074-.049.074-.025.074-.025.1-.025.074-.025h.1l.049-.025h.2l.049-.025h.445l.025.025h0v-.025l.025-.049v-.049l.025-.049-.025-.049-.025-.049-.025-.049-.049-.049-.049-.025-.049-.025h-.049l-.074-.025h-.37l-.074.025H30.44l-.074.025h-.074l-.049.025h-.074l-.049.025-.049.025h-.025l-.025.025.173-.593.049-.025.049-.025.074-.025h.049l.049-.025h.074l.074-.025h.766l.074.025h.074l.074.025.074.025.074.049.074.049.074.049.074.049.049.049L32.07,59l.025.074.049.074v.272l-.272,1.334Z" transform="translate(-25.253 -52.055)" fill="#fff" fill-rule="evenodd"/>
    <path id="Path_28" data-name="Path 28" d="M31.872,60.749l-.1.543h-.617l.025-.1V61.02L31.205,61h0l-.049.049-.025.025-.049.049-.049.025-.074.049-.049.025-.074.025-.074.025-.049.025-.074.025h-.074l-.074.025h-.222l-.074-.025h0l-.074-.025-.074-.025-.074-.025-.074-.049-.049-.025-.049-.049-.049-.049-.025-.049-.025-.049-.025-.049-.025-.049-.025-.074v-.1l-.025-.074v-.049h0l.025-.1V60.4l.025-.1.049-.074.025-.1.049-.074.049-.049.074-.074.049-.049.074-.049.074-.049.074-.049.074-.025.074-.025.1-.025.074-.025h.1l.049-.025h.2l.049-.025h.445l.025.025h0v-.025l.025-.049v-.049l.025-.049h0l-.025-.049-.025-.049-.025-.049-.049-.049-.049-.025-.049-.025h-.049l-.074-.025h-.37l-.074.025H30.44l-.074.025h-.074l-.049.025h-.074l-.049.025-.049.025h-.025l-.025.025.173-.593h0l.049-.025.049-.025.074-.025h.049l.049-.025h.074l.074-.025h.766l.074.025h.074l.074.025.074.025.074.049.074.049.074.049.074.049.049.049L32.07,59l.025.074.049.074v.272l-.272,1.334" transform="translate(-25.253 -52.055)" fill="none" stroke="#fff" stroke-miterlimit="2.613" stroke-width="0.216"/>
    <path id="Path_29" data-name="Path 29" d="M33.689,64.525h0l-.025-.025h-.321l-.049.025H33.22l-.025.025h-.049l-.025.025H33.1l-.049.025-.025.025L33,64.648l-.049.025-.025.025-.025.025-.049.025-.025.025v.049l-.025.025v.2l.025.049.049.049.025.025h.049l.025.025H33.1l.074-.025h.049l.074-.025h.049l.049-.025.025-.025.049-.025.025-.025.025-.049.025-.025.025-.025.025-.025.025-.025v-.049l.025-.074.025-.1V64.6l.025-.074Z" transform="translate(-27.663 -56.498)" fill="#ec1c2e" fill-rule="evenodd"/>
    <path id="Path_30" data-name="Path 30" d="M15.491,59.56H14.8l.568-3.26h1.185l.123,1.926.815-1.926h1.235l-.593,3.26h-.667l.42-2.445h-.025L16.85,59.56h-.766v-.1l-.025-.272-.025-.4-.025-.445-.025-.445-.025-.37-.025-.3v-.123h-.025l-.42,2.445Z" transform="translate(-14.109 -50.323)" fill="#fff" fill-rule="evenodd"/>
    <path id="Path_31" data-name="Path 31" d="M15.491,59.56H14.8l.568-3.26h1.185l.123,1.926.815-1.926h1.235l-.593,3.26h-.667l.42-2.445h-.025L16.85,59.56h-.766v-.1l-.025-.272-.025-.4-.025-.445-.025-.445-.025-.37-.025-.3v-.123h-.025l-.42,2.445" transform="translate(-14.109 -50.323)" fill="none" stroke="#fff" stroke-miterlimit="2.613" stroke-width="0.216"/>
    <path id="Path_32" data-name="Path 32" d="M82.047,60.749l-.1.543h-.617V61l-.025.049-.025.025-.049.049-.049.025-.049.049-.074.025-.049.025-.074.025-.074.025-.049.025h-.074l-.074.025h-.222l-.049-.025-.1-.025-.074-.025-.074-.025-.074-.049-.049-.025-.049-.049-.025-.049L79.9,61.02l-.025-.049-.025-.049-.025-.049V60.8l-.025-.049v-.272l.025-.074.025-.1.025-.074.025-.1.049-.074L80,60.008l.074-.074.049-.049.074-.049.074-.049.074-.049.074-.025.1-.025.074-.025.074-.025h.1l.049-.025h.2l.049-.025H81.5l.025.025h0l.025-.025v-.2l-.025-.049-.025-.049-.049-.049-.025-.025-.074-.025h-.049l-.049-.025h-.4l-.074.025H80.64l-.074.025h-.074l-.074.025h-.049l-.074.025-.025.025H80.22l-.025.025.173-.593.049-.025.074-.025.049-.025h.049l.074-.025h.074l.049-.025h.766l.074.025H81.7l.074.025.074.025.074.049.074.049.074.049.074.049.049.049.049.074.049.074.025.074v.272l-.272,1.334Z" transform="translate(-63.056 -52.055)" fill="#fff" fill-rule="evenodd"/>
    <path id="Path_33" data-name="Path 33" d="M88.5,67.868l.025-.025.1-.543H88.6l-.1.543v.025h.025v-.025l-.025.025Z" transform="translate(-69.608 -58.607)" fill="#fff" fill-rule="evenodd"/>
    <path id="Path_34" data-name="Path 34" d="M85.9,69.425l.025.025h.617V69.4h-.617v.025H85.9v.025h.025l-.025-.025Z" transform="translate(-67.65 -60.188)" fill="#fff" fill-rule="evenodd"/>
    <path id="Path_35" data-name="Path 35" d="M85.949,68.325l-.025-.025v.049L85.9,68.4v.2h.025l.025-.1v-.173l-.025-.025.025.025Z" transform="translate(-67.65 -59.36)" fill="#fff" fill-rule="evenodd"/>
    <path id="Path_36" data-name="Path 36" d="M82.2,68.646h.346l.074-.025.049-.025h.074l.074-.025.049-.049.074-.025.049-.025.049-.049.049-.025.049-.049.025-.025-.025-.025-.025.049-.049.025-.049.025-.049.049-.049.025-.049.025-.074.025-.049.025-.074.025L82.6,68.6l-.049.025H82.2v.025Z" transform="translate(-64.863 -59.36)" fill="#fff" fill-rule="evenodd"/>
    <path id="Path_37" data-name="Path 37" d="M79.7,66.6h0v.123l.025.049v.049l.025.074v.049l.025.049.049.049.025.049.049.049.049.049.049.049.074.049.074.025.074.025.1.025v-.025l-.1-.025-.074-.025-.074-.049-.049-.025-.049-.049-.049-.025-.049-.049-.025-.049L79.823,67l-.025-.049-.025-.074-.025-.049v-.1l-.025-.074.025-.049H79.7Z" transform="translate(-62.981 -58.08)" fill="#fff" fill-rule="evenodd"/>
    <path id="Path_38" data-name="Path 38" d="M80.589,62.7h0l-.074.025-.1.025-.074.025-.074.025-.074.049-.074.049-.074.049-.074.074-.049.049-.049.074-.049.074-.049.074-.025.1-.025.074-.025.1v.1h.049V63.49l.025-.1.049-.074.025-.074.049-.074.049-.074L80,63.021l.074-.049.074-.049.049-.049.1-.025.074-.049.074-.025.074-.025h.074V62.7Z" transform="translate(-62.981 -55.143)" fill="#fff" fill-rule="evenodd"/>
    <path id="Path_39" data-name="Path 39" d="M83.819,62.5h-.025l-.025.025h-.247l-.049.025H83.3V62.6h.025l.025-.025h.173l.025-.025h.272V62.5Z" transform="translate(-65.692 -54.992)" fill="#fff" fill-rule="evenodd"/>
    <path id="Path_40" data-name="Path 40" d="M85.746,62.525h-.222l-.049-.025H85.4v.049h.37l-.025-.025Z" transform="translate(-67.273 -54.992)" fill="#fff" fill-rule="evenodd"/>
    <path id="Path_41" data-name="Path 41" d="M86.825,62h0v.049L86.8,62.1v.049h0l.025.025v-.025l.025-.049V62h-.025Z" transform="translate(-68.327 -54.616)" fill="#fff" fill-rule="evenodd"/>
    <path id="Path_42" data-name="Path 42" d="M85.7,60.925h.049l.049.025.049.025L85.9,61l.025.025.049.049v.049l.025.049h.025v-.049L86,61.048l-.049-.025-.025-.049-.049-.049h-.049l-.074-.025H85.7v.025Z" transform="translate(-67.499 -53.787)" fill="#fff" fill-rule="evenodd"/>
    <path id="Path_43" data-name="Path 43" d="M81.4,60.973h.049l.025-.025h.049l.049-.025h.049L81.7,60.9l.074-.025h.148l.074-.025h.469v-.025h-.074l-.074-.025H82.24l-.074.025h-.247l-.074.025H81.77l-.074.025h-.074l-.049.025H81.5l-.049.025-.025.025H81.4l.025.025Z" transform="translate(-64.261 -53.712)" fill="#fff" fill-rule="evenodd"/>
    <path id="Path_44" data-name="Path 44" d="M81.573,59h0l-.173.617h.025l.173-.593h-.025V59Z" transform="translate(-64.261 -52.357)" fill="#fff" fill-rule="evenodd"/>
    <path id="Path_45" data-name="Path 45" d="M83.211,58.5h-.543l-.074.025h-.148l-.049.025h-.074l-.049.025h-.049l-.074.025-.049.025v.025l.074-.025.049-.025h.049l.074-.025H82.4l.074-.025h.2l.074-.025h.3l.074.025h.1V58.5Z" transform="translate(-64.788 -51.98)" fill="#fff" fill-rule="evenodd"/>
    <path id="Path_46" data-name="Path 46" d="M87.464,59.364h0v-.2l-.025-.1-.025-.074-.025-.074-.049-.074-.074-.074-.049-.049-.074-.049-.074-.049-.1-.025-.074-.025-.074-.025-.074-.025h-.074L86.6,58.5v.049h.148l.074.025.074.025.074.025.074.049.074.025.074.049.049.049.074.074.049.049.025.074.025.074.025.1v.074l-.025.1h0l.049.025Z" transform="translate(-68.177 -51.98)" fill="#fff" fill-rule="evenodd"/>
    <path id="Path_47" data-name="Path 47" d="M88.925,63.234h0l.272-1.309-.049-.025L88.9,63.234h.025Z" transform="translate(-69.909 -54.54)" fill="#fff" fill-rule="evenodd"/>
    <path id="Path_48" data-name="Path 48" d="M83.789,64.449h0l-.025-.025H83.69l-.025-.025h-.025l-.049.025h-.148l-.049.025H83.32l-.025.025h-.049l-.025.025H83.2l-.049.025h-.025l-.025.025-.049.025-.025.025L83,64.622l-.025.049-.025.025-.025.049v.025l-.025.049v.074l.025.074.025.049.025.049.025.025h.049l.049.025h.1l.074-.025h.074l.049-.025.049-.025.049-.025.049-.025.049-.025.025-.025.025-.025.049-.025v-.049l.025-.025.025-.025v-.049l.025-.074V64.6l.025-.074v-.074Z" transform="translate(-65.391 -56.423)" fill="#fbb231" fill-rule="evenodd"/>
    <path id="Path_49" data-name="Path 49" d="M107.3,67.121v-.049l.025-.074.025-.049.049-.049.049-.049.074-.025.049-.025h.148l.049.025.074.025.049.049.049.049.025.049.025.074v.049h-.074V67.1l-.025-.074-.025-.049-.025-.025-.049-.049-.025-.025-.074-.025h-.1l-.074.025-.025.025-.049.049-.025.025-.025.049-.025.074v.025Z" transform="translate(-83.765 -58.23)" fill="#fff" fill-rule="evenodd"/>
    <path id="Path_50" data-name="Path 50" d="M108.2,67.648V67.5h.173l.025.025h.025l.025.025v.025h0l.025.025-.025.025v.025H108.4v-.025h.025V67.6l-.025-.025h-.025v-.025h-.123v.1Z" transform="translate(-84.442 -58.757)" fill="#fff" fill-rule="evenodd"/>
    <path id="Path_51" data-name="Path 51" d="M107.3,68.1v.1l.025.074.025.049.049.049.049.049.074.025.049.025h.148l.049-.025.074-.025.049-.049.049-.049.025-.049.025-.074v-.1h-.074v.074l-.025.074-.025.049-.025.025-.049.049-.025.025H107.7l-.049.025L107.6,68.4h-.074l-.025-.025-.049-.049-.025-.025-.025-.049-.025-.074V68.1Z" transform="translate(-83.765 -59.209)" fill="#fff" fill-rule="evenodd"/>
    <path id="Path_52" data-name="Path 52" d="M108.2,68.1v.173h.049v-.148h.074l.074.148h.049l-.074-.148h.074V68.1H108.2Z" transform="translate(-84.442 -59.209)" fill="#fff" fill-rule="evenodd"/>
    <path id="Path_53" data-name="Path 53" d="M107.3,67.146h0v-.074l.025-.074.025-.049.049-.049.049-.049.049-.025.074-.025h.148l.074.025.049.025.049.049.049.049.025.049.025.074v.074h0v.074l-.025.074-.025.049-.049.049-.049.049-.049.025-.074.025h-.148l-.074-.025-.049-.025-.049-.049-.049-.049-.025-.049-.025-.074v-.074m.272.148H107.5V67h.247l.025.025V67.1h0v.1h-.1l.074.123h-.025l-.074-.123h-.074v.1m.074-.173h.1V67.1h0v-.025H107.6v.1h.049m0,.272h.049l.049-.025.049-.025.049-.025.025-.049.025-.049.025-.049V67.17h0v-.049l-.025-.049-.025-.049-.025-.049-.049-.025-.049-.025L107.7,66.9h-.1l-.049.025-.049.025-.049.025-.025.049-.025.049-.025.049v.049h0v.049l.025.049.025.049.025.049.049.025.049.025.049.025h.049" transform="translate(-83.765 -58.23)" fill="none" stroke="#fff" stroke-miterlimit="2.613" stroke-width="0.216"/>
    <path id="Path_54" data-name="Path 54" d="M89.7,61.292h.691l.272-1.408v-.049l.025-.074v-.049l.025-.049.025-.049.025-.049.049-.074.025-.025.049-.049.049-.049.049-.025.074-.025.074-.025.074-.025.1-.025h.148l.123-.642h-.148l-.049.025-.074.025h-.049l-.049.025-.049.049-.049.025-.049.025-.049.049-.025.025-.049.049-.025.049-.049.025-.025.049-.049.049.074-.445h-.691L89.7,61.292Z" transform="translate(-70.511 -52.055)" fill="#fff" fill-rule="evenodd"/>
    <path id="Path_55" data-name="Path 55" d="M89.7,61.292h.691l.272-1.408h0v-.049l.025-.074v-.049l.025-.049.025-.049.025-.049.049-.074.025-.025.049-.049.049-.049.049-.025.074-.025.074-.025.074-.025.1-.025h.148l.123-.642h-.148l-.049.025-.074.025h-.049l-.049.025-.049.049-.049.025-.049.025-.049.049-.025.025-.049.049-.025.049-.049.025-.025.049-.049.049.074-.445h-.691L89.7,61.292h0" transform="translate(-70.511 -52.055)" fill="none" stroke="#fff" stroke-miterlimit="2.613" stroke-width="0.216"/>
    <path id="Path_56" data-name="Path 56" d="M63,61.292h.716l.222-1.408.025-.049v-.074l.025-.049v-.049l.025-.049.025-.049.025-.049.049-.025.025-.049.049-.025.049-.025.074-.049h.074l.074-.025.074-.025H64.7l.025-.025v-.049l.025-.049v-.074l.025-.074.025-.074.025-.049.025-.049.025-.049.025-.049.025-.049.025-.025v-.049h.025V58.6H64.7l-.049.025-.074.025h-.049l-.049.025-.049.025-.049.049-.049.025-.025.025-.049.049-.025.049-.049.025-.025.049-.049.049-.025.049.074-.445h-.716L63,61.292Z" transform="translate(-50.405 -52.055)" fill="#fff" fill-rule="evenodd"/>
    <path id="Path_57" data-name="Path 57" d="M63,61.292h.716l.222-1.408h0l.025-.049v-.074l.025-.049v-.049l.025-.049.025-.049.025-.049.049-.025.025-.049.049-.025.049-.025.074-.049h.074l.074-.025.074-.025H64.7l.025-.025v-.049l.025-.049v-.074l.025-.074.025-.074.025-.049h0l.025-.049.025-.049.025-.049.025-.049.025-.025v-.049h.025V58.6H64.7l-.049.025-.074.025h-.049l-.049.025-.049.025-.049.049-.049.025-.025.025-.049.049-.025.049-.049.025-.025.049-.049.049-.025.049.074-.445h-.716L63,61.292h0" transform="translate(-50.405 -52.055)" fill="none" stroke="#fff" stroke-miterlimit="2.613" stroke-width="0.216"/>
    <path id="Path_58" data-name="Path 58" d="M107.3,79.272h0l.025-.074.025-.049.049-.049.049-.049.074-.025.049-.025h.148l.049.025.074.025.049.049.049.049.025.049.025.074h-.074l-.025-.049-.025-.049-.025-.025-.049-.049-.025-.025-.074-.025h-.1l-.074.025-.025.025-.049.049-.025.025-.025.049-.025.049Z" transform="translate(-83.765 -67.417)" fill="#fbb231" fill-rule="evenodd"/>
    <path id="Path_59" data-name="Path 59" d="M108.2,79.874V79.8h.222v.025h.025v.025h0l.025.025h-.049l-.025-.025h0l-.025-.025h-.123v.049Z" transform="translate(-84.442 -68.02)" fill="#fbb231" fill-rule="evenodd"/>
    <path id="Path_60" data-name="Path 60" d="M107.3,80.174V80.1h.074v.074Z" transform="translate(-83.765 -68.246)" fill="#fbb231" fill-rule="evenodd"/>
    <path id="Path_61" data-name="Path 61" d="M108.2,80.174V80.1h.049v.049h.148v-.025h.025V80.1h.049l-.025.025v.025h0v.025Z" transform="translate(-84.442 -68.246)" fill="#fbb231" fill-rule="evenodd"/>
    <path id="Path_62" data-name="Path 62" d="M109.8,80.174V80.1h.074v.074Z" transform="translate(-85.647 -68.246)" fill="#fbb231" fill-rule="evenodd"/>
    <path id="Path_63" data-name="Path 63" d="M107.3,80.4h0v.074l.025.074.025.049.049.049.049.049.074.025.049.025h.148l.049-.025.074-.025.049-.049.049-.049.025-.049.025-.074V80.4h-.074v.049l-.025.074-.025.025-.025.049-.049.049-.025.025H107.7l-.049.025-.049-.025h-.074l-.025-.025-.049-.049-.025-.049-.025-.025-.025-.074V80.4H107.3Z" transform="translate(-83.765 -68.472)" fill="#fbb231" fill-rule="evenodd"/>
    <path id="Path_64" data-name="Path 64" d="M108.2,80.4v.123h.049V80.4h.074l.074.123h.049l-.074-.123H108.2Z" transform="translate(-84.442 -68.472)" fill="#fbb231" fill-rule="evenodd"/>
    <path id="Path_65" data-name="Path 65" d="M55.845,59.34l-.025-.148-.049-.123-.049-.123-.074-.1-.074-.074-.049-.074-.1-.074-.1-.049-.1-.049-.1-.025h-.494l-.173.025-.173.049-.148.074-.123.074-.1.074-.123.1-.074.1-.074.1-.049.1-.049.123-.049.1-.025.1-.025.1-.025.1v.074l-.025.2v.173l.025.173.049.148.049.123.074.123.074.1.1.074.1.074.123.074.123.049.123.049.123.025.123.025.123.025h.716l.049-.025h.049l.049-.025.049-.025.049-.025.049-.025.1-.617-.074.049-.074.049L55.5,60.6h-.1l-.074.025-.049.025-.074.025h-.716l-.049-.025.025-.049-.049-.025-.049-.025-.049-.049-.025-.049-.025-.049-.025-.049-.025-.049-.025-.049-.025-.049v-.173h1.605l.025-.148.049-.2.025-.2Zm-.691.247H54.24v-.074l.025-.049.025-.049.025-.049.025-.049.025-.049.025-.049.025-.025.025-.025.049-.025.049-.025.049-.025.049-.025h.3l.049.025.049.025.049.025.025.025.025.025.025.025.025.049.025.049.025.049v.148Z" transform="translate(-43.176 -51.98)" fill="#fff" fill-rule="evenodd"/>
  </g>
</svg>
