<svg xmlns="http://www.w3.org/2000/svg" width="12.977" height="19.866" viewBox="0 0 12.977 19.866">
  <path id="Path_169" data-name="Path 169" d="M15.354,7.622h-.811V5.73c0-2.611-1.817-4.73-4.055-4.73S6.433,3.119,6.433,5.73V7.622H5.622A1.778,1.778,0,0,0,4,9.514v9.46a1.778,1.778,0,0,0,1.622,1.892h9.732a1.778,1.778,0,0,0,1.622-1.892V9.514A1.778,1.778,0,0,0,15.354,7.622Zm-4.866,8.514a1.778,1.778,0,0,1-1.622-1.892,1.778,1.778,0,0,1,1.622-1.892,1.778,1.778,0,0,1,1.622,1.892A1.778,1.778,0,0,1,10.488,16.136ZM13,7.622H7.974V5.73A2.75,2.75,0,0,1,10.488,2.8,2.75,2.75,0,0,1,13,5.73Z" transform="translate(-4 -1)" fill="#fff"/>
</svg>
