<svg id="_2._Icon_3._Brand_instagram_2._Light" data-name="2. Icon / 3. Brand / instagram / 2. Light" xmlns="http://www.w3.org/2000/svg" xmlns:xlink="http://www.w3.org/1999/xlink" width="16" height="16" viewBox="0 0 16 16">
  <defs>
    <clipPath id="clip-path">
      <path id="instagram" d="M8,0C5.83,0,5.547.009,4.7.048A5.908,5.908,0,0,0,2.76.42a3.919,3.919,0,0,0-1.417.922A3.927,3.927,0,0,0,.42,2.76,5.929,5.929,0,0,0,.048,4.7C.009,5.539,0,5.819,0,8s.009,2.462.048,3.3A5.924,5.924,0,0,0,.42,13.24a3.923,3.923,0,0,0,.923,1.417,3.923,3.923,0,0,0,1.417.923,5.924,5.924,0,0,0,1.942.372C5.538,15.991,5.819,16,8,16s2.461-.009,3.3-.048a5.929,5.929,0,0,0,1.942-.372,4.09,4.09,0,0,0,2.34-2.34,5.908,5.908,0,0,0,.372-1.942C15.991,10.453,16,10.17,16,8s-.009-2.452-.048-3.3A5.912,5.912,0,0,0,15.58,2.76a3.923,3.923,0,0,0-.922-1.417A3.923,3.923,0,0,0,13.24.42,5.912,5.912,0,0,0,11.3.048C10.452.009,10.17,0,8,0ZM8,14.559c-2.144,0-2.4-.008-3.233-.047a4.454,4.454,0,0,1-1.485-.275,2.464,2.464,0,0,1-.92-.6,2.464,2.464,0,0,1-.6-.92,4.454,4.454,0,0,1-.275-1.485C1.45,10.4,1.441,10.144,1.441,8s.008-2.4.047-3.233a4.438,4.438,0,0,1,.275-1.485,2.477,2.477,0,0,1,.6-.92,2.481,2.481,0,0,1,.92-.6,4.454,4.454,0,0,1,1.485-.275c.843-.038,1.1-.046,3.233-.046s2.389.008,3.233.046a4.438,4.438,0,0,1,1.485.275,2.485,2.485,0,0,1,.92.6,2.485,2.485,0,0,1,.6.92,4.438,4.438,0,0,1,.275,1.485c.038.844.046,1.1.046,3.233s-.008,2.389-.046,3.233a4.454,4.454,0,0,1-.275,1.485,2.65,2.65,0,0,1-1.518,1.518,4.438,4.438,0,0,1-1.485.275C10.4,14.55,10.144,14.559,8,14.559ZM8,3.892A4.108,4.108,0,1,0,12.108,8,4.113,4.113,0,0,0,8,3.892Zm0,6.775A2.667,2.667,0,1,1,10.667,8,2.67,2.67,0,0,1,8,10.667Zm4.27.644a.96.96,0,1,0,.96.96A.961.961,0,0,0,12.27,11.311Z" transform="translate(16 16) rotate(180)" fill="#fff"/>
    </clipPath>
  </defs>
  <rect id="_2._Icon_3._Brand_instagram_2._Light_background" data-name="2. Icon / 3. Brand / instagram / 2. Light background" width="16" height="16" transform="translate(0)" fill="rgba(0,0,0,0)"/>
  <path id="instagram-2" data-name="instagram" d="M8,0C5.83,0,5.547.009,4.7.048A5.908,5.908,0,0,0,2.76.42a3.919,3.919,0,0,0-1.417.922A3.927,3.927,0,0,0,.42,2.76,5.929,5.929,0,0,0,.048,4.7C.009,5.539,0,5.819,0,8s.009,2.462.048,3.3A5.924,5.924,0,0,0,.42,13.24a3.923,3.923,0,0,0,.923,1.417,3.923,3.923,0,0,0,1.417.923,5.924,5.924,0,0,0,1.942.372C5.538,15.991,5.819,16,8,16s2.461-.009,3.3-.048a5.929,5.929,0,0,0,1.942-.372,4.09,4.09,0,0,0,2.34-2.34,5.908,5.908,0,0,0,.372-1.942C15.991,10.453,16,10.17,16,8s-.009-2.452-.048-3.3A5.912,5.912,0,0,0,15.58,2.76a3.923,3.923,0,0,0-.922-1.417A3.923,3.923,0,0,0,13.24.42,5.912,5.912,0,0,0,11.3.048C10.452.009,10.17,0,8,0ZM8,14.559c-2.144,0-2.4-.008-3.233-.047a4.454,4.454,0,0,1-1.485-.275,2.464,2.464,0,0,1-.92-.6,2.464,2.464,0,0,1-.6-.92,4.454,4.454,0,0,1-.275-1.485C1.45,10.4,1.441,10.144,1.441,8s.008-2.4.047-3.233a4.438,4.438,0,0,1,.275-1.485,2.477,2.477,0,0,1,.6-.92,2.481,2.481,0,0,1,.92-.6,4.454,4.454,0,0,1,1.485-.275c.843-.038,1.1-.046,3.233-.046s2.389.008,3.233.046a4.438,4.438,0,0,1,1.485.275,2.485,2.485,0,0,1,.92.6,2.485,2.485,0,0,1,.6.92,4.438,4.438,0,0,1,.275,1.485c.038.844.046,1.1.046,3.233s-.008,2.389-.046,3.233a4.454,4.454,0,0,1-.275,1.485,2.65,2.65,0,0,1-1.518,1.518,4.438,4.438,0,0,1-1.485.275C10.4,14.55,10.144,14.559,8,14.559ZM8,3.892A4.108,4.108,0,1,0,12.108,8,4.113,4.113,0,0,0,8,3.892Zm0,6.775A2.667,2.667,0,1,1,10.667,8,2.67,2.67,0,0,1,8,10.667Zm4.27.644a.96.96,0,1,0,.96.96A.961.961,0,0,0,12.27,11.311Z" transform="translate(16 16) rotate(180)" fill="none"/>
  <g id="Group_19" data-name="Group 19" transform="translate(0 0)" clip-path="url(#clip-path)">
    <g id="icon_color" data-name="icon color" transform="translate(0 0)">
      <rect id="icon_color_background" data-name="icon color background" width="16" height="16" fill="#fff"/>
      <rect id="Gray_20" data-name="Gray 20" width="16" height="16" fill="#fff"/>
    </g>
  </g>
</svg>
