<svg id="bilingual" xmlns="http://www.w3.org/2000/svg" width="20" height="20" viewBox="0 0 20 20">
  <path id="Shape" d="M10.669,27.772l-2.333-1.46a1.439,1.439,0,0,1-.742-1.246V23.975a.345.345,0,0,1,.11-.252,4.6,4.6,0,0,0,1.212-2.071.345.345,0,0,1,.148-.211.552.552,0,0,0,.255-.449V19.8a.59.59,0,0,0-.231-.4.345.345,0,0,1-.114-.255V17.416c0-.079-.186-2.416-3.107-2.416s-3.107,2.337-3.107,2.437v1.705a.345.345,0,0,1-.114.259.59.59,0,0,0-.231.4v1.191a.552.552,0,0,0,.255.463.345.345,0,0,1,.148.211,4.511,4.511,0,0,0,1.212,2.054.345.345,0,0,1,.11.255v1.091a1.446,1.446,0,0,1-.763,1.256l-2.3,1.45A2.05,2.05,0,0,0,0,29.566v.276H11.736v-.276A2.04,2.04,0,0,0,10.669,27.772Z" transform="translate(0 -9.843)" fill="#1f2b6a"/>
  <path id="Shape-2" data-name="Shape" d="M38.284,27H33.452a1.381,1.381,0,0,0-1.381,1.381v.69L30,30.452l2.071,1.381v.69A1.381,1.381,0,0,0,33.452,33.9h4.832a1.381,1.381,0,0,0,1.381-1.381V28.381A1.381,1.381,0,0,0,38.284,27Zm-.69,5.178a.345.345,0,0,1,0,.69,3.459,3.459,0,0,1-1.726-.238,3.448,3.448,0,0,1-1.726.238.345.345,0,0,1,0-.69,5.237,5.237,0,0,0,1.036-.035,2.416,2.416,0,0,1-.552-.877.345.345,0,0,1,.649-.235,1.726,1.726,0,0,0,.594.8,1.726,1.726,0,0,0,.69-1.381v-.69H34.142a.345.345,0,0,1,0-.69h1.381v-.69a.345.345,0,0,1,.69,0v.69h1.381a.345.345,0,1,1,0,.69h-.345v.69a2.416,2.416,0,0,1-.69,1.688,4.615,4.615,0,0,0,1.036.038Z" transform="translate(-19.665 -17.695)" fill="#1f2b6a"/>
  <path id="Shape-3" data-name="Shape" d="M45.761,6.381v.345H43V6.381a1.381,1.381,0,0,1,2.761,0Z" transform="translate(-28.178 -3.274)" fill="#1f2b6a"/>
  <path id="Shape-4" data-name="Shape" d="M38.284,0H33.452a1.381,1.381,0,0,0-1.381,1.381v.69L30,3.452l2.071,1.381v.69A1.381,1.381,0,0,0,33.452,6.9h4.832a1.381,1.381,0,0,0,1.381-1.381V1.381A1.381,1.381,0,0,0,38.284,0Zm-.345,5.523a.345.345,0,1,1-.69,0V4.142H34.487V5.523a.345.345,0,1,1-.69,0V3.107a2.071,2.071,0,1,1,4.142,0Z" transform="translate(-19.665)" fill="#1f2b6a"/>
</svg>
