<svg id="Flat" xmlns="http://www.w3.org/2000/svg" width="43.969" height="32.244" viewBox="0 0 43.969 32.244">
  <g id="Group_22" data-name="Group 22">
    <g id="Group_18" data-name="Group 18" transform="translate(31.213 18.399)">
      <path id="Path_27" data-name="Path 27" d="M16.67,13.13c2.761,1.874,4.7,4.413,4.7,7.8v6.046h8.061V20.929C29.427,16.536,22.232,13.936,16.67,13.13Z" transform="translate(-16.67 -13.13)" fill="#00cdf2" fill-rule="evenodd"/>
    </g>
    <g id="Group_19" data-name="Group 19" transform="translate(7.956)">
      <circle id="Ellipse_1" data-name="Ellipse 1" cx="8.061" cy="8.061" r="8.061" fill="#00cdf2"/>
    </g>
    <g id="Group_20" data-name="Group 20" transform="translate(25.255)">
      <path id="Path_28" data-name="Path 28" d="M16.35,20.122A8.061,8.061,0,0,0,16.35,4a8.42,8.42,0,0,0-2.68.484,12.051,12.051,0,0,1,0,15.155A8.42,8.42,0,0,0,16.35,20.122Z" transform="translate(-13.67 -4)" fill="#00cdf2" fill-rule="evenodd"/>
    </g>
    <g id="Group_21" data-name="Group 21" transform="translate(0 18.137)">
      <path id="Path_29" data-name="Path 29" d="M17.122,13C11.741,13,1,15.7,1,21.061v6.046H33.244V21.061C33.244,15.7,22.5,13,17.122,13Z" transform="translate(-1 -13)" fill="#00cdf2" fill-rule="evenodd"/>
    </g>
  </g>
</svg>
