<svg id="whatsapp-logo-variant" xmlns="http://www.w3.org/2000/svg" width="18" height="18" viewBox="0 0 18 18">
  <path id="Path_135" data-name="Path 135" d="M18,8.768A8.853,8.853,0,0,1,4.892,16.446L0,18l1.595-4.706A8.679,8.679,0,0,1,.328,8.768,8.837,8.837,0,0,1,18,8.768ZM9.162,1.4A7.408,7.408,0,0,0,1.734,8.77a7.292,7.292,0,0,0,1.415,4.321l-.927,2.737,2.854-.907A7.438,7.438,0,0,0,16.592,8.768,7.408,7.408,0,0,0,9.162,1.4Zm4.463,9.39c-.055-.089-.2-.143-.416-.251s-1.282-.627-1.48-.7-.344-.109-.488.107-.558.7-.686.843-.252.162-.469.056A5.972,5.972,0,0,1,8.345,9.779a6.466,6.466,0,0,1-1.2-1.489c-.127-.215-.013-.331.094-.438s.217-.251.325-.377a1.433,1.433,0,0,0,.217-.357.4.4,0,0,0-.018-.377C7.7,6.633,7.272,5.576,7.09,5.146s-.36-.359-.487-.359-.271-.018-.415-.018a.793.793,0,0,0-.577.268A2.4,2.4,0,0,0,4.853,6.83a4.155,4.155,0,0,0,.884,2.223,8.871,8.871,0,0,0,3.7,3.245c2.2.86,2.2.573,2.6.536A2.185,2.185,0,0,0,13.5,11.813,1.786,1.786,0,0,0,13.625,10.788Z" fill="#008095"/>
</svg>
